<svg width="55" height="55" viewBox="0 0 55 55" fill="none" xmlns="http://www.w3.org/2000/svg">
<path fill-rule="evenodd" clip-rule="evenodd" d="M27.5 55C42.6878 55 55 42.6878 55 27.5C55 12.3122 42.6878 0 27.5 0C12.3122 0 0 12.3122 0 27.5C0 42.6878 12.3122 55 27.5 55Z" fill="#FE413F"/>
<path d="M40.2678 27.8121C40.2678 20.0237 34.2244 14.7322 27.5 14.7322C20.8465 14.7322 14.7321 19.9103 14.7321 27.8973C13.8809 28.3796 13.3135 29.2875 13.3135 30.3373V33.1746C13.3135 34.7352 14.5903 36.0119 16.1508 36.0119H17.5694V27.3582C17.5694 21.868 22.0098 17.4276 27.5 17.4276C32.9902 17.4276 37.4305 21.868 37.4305 27.3582V37.4306H26.0813V40.2679H37.4305C38.9911 40.2679 40.2678 38.9911 40.2678 37.4306V35.6998C41.1048 35.2601 41.6865 34.3947 41.6865 33.3732V30.1104C41.6865 29.1173 41.1048 28.2519 40.2678 27.8121Z" fill="white"/>
<path d="M23.2438 30.3374C24.0273 30.3374 24.6625 29.7022 24.6625 28.9187C24.6625 28.1352 24.0273 27.5001 23.2438 27.5001C22.4603 27.5001 21.8252 28.1352 21.8252 28.9187C21.8252 29.7022 22.4603 30.3374 23.2438 30.3374Z" fill="white"/>
<path d="M31.7561 30.3374C32.5396 30.3374 33.1747 29.7022 33.1747 28.9187C33.1747 28.1352 32.5396 27.5001 31.7561 27.5001C30.9726 27.5001 30.3374 28.1352 30.3374 28.9187C30.3374 29.7022 30.9726 30.3374 31.7561 30.3374Z" fill="white"/>
<path d="M36.0117 26.124C35.3308 22.0808 31.8125 18.9882 27.5708 18.9882C23.2723 18.9882 18.6475 22.549 19.0163 28.1385C22.5204 26.7056 25.1591 23.5846 25.911 19.7826C27.7694 23.5137 31.5856 26.0814 36.0117 26.124Z" fill="white"/>
</svg>
