<svg width="42" height="42" viewBox="0 0 42 42" fill="none" xmlns="http://www.w3.org/2000/svg">
<path fill-rule="evenodd" clip-rule="evenodd" d="M21 42C32.598 42 42 32.598 42 21C42 9.40202 32.598 0 21 0C9.40202 0 0 9.40202 0 21C0 32.598 9.40202 42 21 42Z" fill="#FE413F"/>
<path d="M30.7498 21.2383C30.7498 15.2908 26.1348 11.25 20.9998 11.25C15.919 11.25 11.2498 15.2042 11.2498 21.3033C10.5998 21.6717 10.1665 22.365 10.1665 23.1667V25.3333C10.1665 26.525 11.1415 27.5 12.3332 27.5H13.4165V20.8917C13.4165 16.6992 16.8073 13.3083 20.9998 13.3083C25.1923 13.3083 28.5832 16.6992 28.5832 20.8917V28.5833H19.9165V30.75H28.5832C29.7748 30.75 30.7498 29.775 30.7498 28.5833V27.2617C31.389 26.9258 31.8332 26.265 31.8332 25.485V22.9933C31.8332 22.235 31.389 21.5742 30.7498 21.2383Z" fill="white"/>
<path d="M17.7498 23.1667C18.3481 23.1667 18.8332 22.6816 18.8332 22.0833C18.8332 21.485 18.3481 21 17.7498 21C17.1515 21 16.6665 21.485 16.6665 22.0833C16.6665 22.6816 17.1515 23.1667 17.7498 23.1667Z" fill="white"/>
<path d="M24.2498 23.1667C24.8481 23.1667 25.3332 22.6816 25.3332 22.0833C25.3332 21.485 24.8481 21 24.2498 21C23.6515 21 23.1665 21.485 23.1665 22.0833C23.1665 22.6816 23.6515 23.1667 24.2498 23.1667Z" fill="white"/>
<path d="M27.5 19.9492C26.98 16.8617 24.2933 14.5 21.0542 14.5C17.7717 14.5 14.24 17.2192 14.5217 21.4875C17.1975 20.3933 19.2125 18.01 19.7867 15.1067C21.2058 17.9558 24.12 19.9167 27.5 19.9492Z" fill="white"/>
</svg>
