<svg width="40" height="40" viewBox="0 0 40 40" fill="none" xmlns="http://www.w3.org/2000/svg">
<path d="M35.9999 30.3333L21.6666 19.5833V18.0666C24.4166 17.25 26.3333 14.45 25.7166 11.3166C25.2833 9.13331 23.5499 7.31664 21.3666 6.81664C17.5666 5.94998 14.1666 8.83331 14.1666 12.5H17.4999C17.4999 11.1166 18.6166 9.99998 19.9999 9.99998C21.3833 9.99998 22.4999 11.1166 22.4999 12.5C22.4999 13.9 21.3499 15.0333 19.9499 15C19.0499 14.9833 18.3333 15.75 18.3333 16.65V19.5833L3.99994 30.3333C2.71661 31.3 3.39994 33.3333 4.99994 33.3333H19.9999H34.9999C36.5999 33.3333 37.2833 31.3 35.9999 30.3333ZM9.99994 30L19.9999 22.5L29.9999 30H9.99994Z" fill="url(#paint0_linear)"/>
<defs>
<linearGradient id="paint0_linear" x1="63.3909" y1="-8.52204" x2="18.6454" y2="56.8608" gradientUnits="userSpaceOnUse">
<stop stop-color="#FFE66C"/>
<stop offset="0.871768" stop-color="#FE413F"/>
</linearGradient>
</defs>
</svg>
