<svg width="55" height="55" viewBox="0 0 55 55" fill="none" xmlns="http://www.w3.org/2000/svg">
<path fill-rule="evenodd" clip-rule="evenodd" d="M27.5 55C42.6878 55 55 42.6878 55 27.5C55 12.3122 42.6878 0 27.5 0C12.3122 0 0 12.3122 0 27.5C0 42.6878 12.3122 55 27.5 55Z" fill="#FE413F"/>
<g clip-path="url(#clip0)">
<path d="M39.1265 17.0741L35.3073 13.2549C35.0945 13.0421 34.7453 13.0421 34.5325 13.2549L30.7133 17.0741C30.5605 17.2324 30.5114 17.467 30.5987 17.6688C30.6805 17.8707 30.8824 18.0071 31.1006 18.0071H32.7374V38.7402C32.7374 39.0402 32.9829 39.2858 33.283 39.2858H36.5566C36.8567 39.2858 37.1022 39.0402 37.1022 38.7402V18.0071H38.739C38.9573 18.0071 39.1592 17.8707 39.241 17.6688C39.3284 17.467 39.2793 17.2324 39.1265 17.0741Z" fill="white"/>
<path d="M30.3971 23.0757L26.5778 19.2565C26.365 19.0437 26.0158 19.0437 25.803 19.2565L21.9838 23.0757C21.831 23.234 21.7819 23.4686 21.8692 23.6705C21.951 23.8724 22.1529 24.0088 22.3711 24.0088H24.008V38.7401C24.008 39.0401 24.2535 39.2857 24.5536 39.2857H27.8272C28.1273 39.2857 28.3728 39.0401 28.3728 38.7401V24.0088H30.0096C30.2278 24.0088 30.4297 23.8724 30.5115 23.6705C30.5989 23.4686 30.5498 23.234 30.3971 23.0757Z" fill="white"/>
<path d="M21.6676 28.5318L17.8483 24.7126C17.6355 24.4998 17.2863 24.4998 17.0735 24.7126L13.2543 28.5318C13.1015 28.6901 13.0524 28.9247 13.1397 29.1265C13.2216 29.3284 13.4234 29.4648 13.6416 29.4648H15.2784V38.7401C15.2784 39.0402 15.524 39.2857 15.824 39.2857H19.0977C19.3977 39.2857 19.6433 39.0402 19.6433 38.7401V29.4648H21.2801C21.4983 29.4648 21.7002 29.3284 21.782 29.1265C21.8694 28.9247 21.8203 28.6901 21.6676 28.5318Z" fill="white"/>
</g>
<defs>
<clipPath id="clip0">
<rect width="26.1905" height="26.1905" fill="white" transform="translate(13.0952 13.0953)"/>
</clipPath>
</defs>
</svg>
