<svg width="55" height="55" viewBox="0 0 55 55" fill="none" xmlns="http://www.w3.org/2000/svg">
<path fill-rule="evenodd" clip-rule="evenodd" d="M27.5 55C42.6878 55 55 42.6878 55 27.5C55 12.3122 42.6878 0 27.5 0C12.3122 0 0 12.3122 0 27.5C0 42.6878 12.3122 55 27.5 55Z" fill="#FE413F"/>
<path d="M31.4286 18.3333V27.5H18.556L17.7834 28.2726L17.0238 29.0322V18.3333H31.4286ZM32.7381 15.7143H15.7143C14.9941 15.7143 14.4048 16.3036 14.4048 17.0238V35.3572L19.6429 30.1191H32.7381C33.4584 30.1191 34.0476 29.5298 34.0476 28.8095V17.0238C34.0476 16.3036 33.4584 15.7143 32.7381 15.7143ZM39.2857 20.9524H36.6667V32.7381H19.6429V35.3572C19.6429 36.0774 20.2322 36.6667 20.9524 36.6667H35.3572L40.5953 41.9048V22.2619C40.5953 21.5417 40.006 20.9524 39.2857 20.9524Z" fill="white"/>
</svg>
