<svg width="42" height="42" viewBox="0 0 42 42" fill="none" xmlns="http://www.w3.org/2000/svg">
<path fill-rule="evenodd" clip-rule="evenodd" d="M21 42C32.598 42 42 32.598 42 21C42 9.40202 32.598 0 21 0C9.40202 0 0 9.40202 0 21C0 32.598 9.40202 42 21 42Z" fill="#FE413F"/>
<path d="M24 14V21H14.17L13.58 21.59L13 22.17V14H24ZM25 12H12C11.45 12 11 12.45 11 13V27L15 23H25C25.55 23 26 22.55 26 22V13C26 12.45 25.55 12 25 12ZM30 16H28V25H15V27C15 27.55 15.45 28 16 28H27L31 32V17C31 16.45 30.55 16 30 16Z" fill="white"/>
</svg>
