<svg width="40" height="40" viewBox="0 0 40 40" fill="none" xmlns="http://www.w3.org/2000/svg">
<path d="M6.33333 10.125H34.8333V7H6.33333C4.59167 7 3.16667 8.40625 3.16667 10.125V27.3125H0V32H22.1667V27.3125H6.33333V10.125ZM36.4167 13.25H26.9167C26.0458 13.25 25.3333 13.9531 25.3333 14.8125V30.4375C25.3333 31.2969 26.0458 32 26.9167 32H36.4167C37.2875 32 38 31.2969 38 30.4375V14.8125C38 13.9531 37.2875 13.25 36.4167 13.25ZM34.8333 27.3125H28.5V16.375H34.8333V27.3125Z" fill="url(#paint0_linear)"/>
<defs>
<linearGradient id="paint0_linear" x1="68.4547" y1="-7.23182" x2="29.9921" y2="61.1082" gradientUnits="userSpaceOnUse">
<stop stop-color="#FFE66C"/>
<stop offset="0.871768" stop-color="#FE413F"/>
</linearGradient>
</defs>
</svg>
