<svg width="58" height="58" viewBox="0 0 58 58" fill="none" xmlns="http://www.w3.org/2000/svg">
<rect x="1" y="1" width="56" height="56" rx="28" fill="white" stroke="url(#paint0_linear)" stroke-width="2"/>
<path d="M42.2775 20.7925H37.3279V17.2364C37.3279 16.0033 36.3261 15 35.0946 15H23.2387C22.0073 15 21.0055 16.0032 21.0055 17.2364V20.7925H16.0558C14.3708 20.7925 13 22.1634 13 23.8483V40.9268C13 42.6131 14.3698 43.985 16.0535 43.985H42.2798C43.9635 43.985 45.3333 42.6131 45.3333 40.9268V23.8483C45.3333 22.1634 43.9625 20.7925 42.2775 20.7925ZM22.2685 17.2364C22.2685 16.6997 22.7038 16.263 23.2387 16.263H35.0946C35.6296 16.263 36.0648 16.6997 36.0648 17.2364V20.7925H34.426V18.539C34.426 18.1903 34.1433 17.9075 33.7945 17.9075H24.5388C24.19 17.9075 23.9073 18.1903 23.9073 18.539V20.7925H22.2685V17.2364ZM25.1703 20.7925V19.1706H33.163V20.7925H25.1703ZM14.263 23.8483C14.263 22.8598 15.0672 22.0555 16.0558 22.0555H42.2775C43.266 22.0555 44.0703 22.8598 44.0703 23.8483V29.705C44.0703 31.6535 42.485 33.2388 40.5365 33.2388H39.8577V30.5605C39.8577 30.2117 39.5749 29.929 39.2261 29.929H35.3816C35.0328 29.929 34.7501 30.2117 34.7501 30.5605V33.2388H23.5833V30.5605C23.5833 30.2117 23.3006 29.929 22.9518 29.929H19.1071C18.7584 29.929 18.4756 30.2117 18.4756 30.5605V33.2388H17.7968C15.8483 33.2389 14.263 31.6536 14.263 29.7051V23.8483ZM38.5946 31.192V35.9172H36.0131V31.192H38.5946ZM22.3203 31.192V35.9172H19.7387V31.192H22.3203ZM44.0703 40.9268C44.0703 41.9167 43.267 42.722 42.2797 42.722H16.0535C15.0662 42.7219 14.263 41.9166 14.263 40.9268V32.9455C15.1405 33.9016 16.3999 34.5019 17.7968 34.5019H18.4756V36.5487C18.4756 36.8975 18.7584 37.1803 19.1071 37.1803H22.9517C23.3005 37.1803 23.5832 36.8975 23.5832 36.5487V34.5019H34.7499V36.5487C34.7499 36.8975 35.0327 37.1803 35.3815 37.1803H39.226C39.5748 37.1803 39.8575 36.8975 39.8575 36.5487V34.5019H40.5363C41.9333 34.5019 43.1927 33.9016 44.0701 32.9455V40.9268H44.0703Z" fill="#FE413F"/>
<path d="M21.6759 25.4334H36.6572C37.006 25.4334 37.2887 25.1507 37.2887 24.8019C37.2887 24.4531 37.006 24.1704 36.6572 24.1704H21.6759C21.3272 24.1704 21.0444 24.4531 21.0444 24.8019C21.0444 25.1507 21.3272 25.4334 21.6759 25.4334Z" fill="#FE413F"/>
<defs>
<linearGradient id="paint0_linear" x1="16.9029" y1="-2.15962e-05" x2="67.0473" y2="0.782392" gradientUnits="userSpaceOnUse">
<stop stop-color="#FE413F"/>
<stop offset="1" stop-color="#FFE568"/>
</linearGradient>
</defs>
</svg>
