<svg width="82" height="82" viewBox="0 0 82 82" fill="none" xmlns="http://www.w3.org/2000/svg">
<circle cx="41" cy="41" r="40" fill="white" stroke="url(#paint0_linear)" stroke-width="2"/>
<path d="M58.2721 56.4142C59.7762 56.4142 61 55.1905 61 53.6863V25.9062C61 23.7523 59.2477 22 57.0938 22H24.9062C22.7523 22 21 23.7523 21 25.9062V53.6863C21 55.1905 22.2237 56.4142 23.7279 56.4142H24.5938V60.4375H21.7812C21.3498 60.4375 21 60.7873 21 61.2188C21 61.6502 21.3498 62 21.7812 62H60.2188C60.6502 62 61 61.6502 61 61.2188C61 60.7873 60.6502 60.4375 60.2188 60.4375H57.4062V56.4142H58.2721ZM22.5625 25.9062C22.5625 24.6139 23.6139 23.5625 24.9062 23.5625H57.0938C58.3861 23.5625 59.4375 24.6139 59.4375 25.9062V27.625H22.6409C22.6145 27.625 22.5883 27.6264 22.5625 27.629V25.9062ZM29.5938 60.4375H26.1562V53.4062H29.5938V60.4375ZM38.3438 60.4375H34.9062V44.7681H38.3438V60.4375ZM47.0938 60.4375H43.6562V51.375H47.0938V60.4375ZM56.625 42.0391H51.625C51.1935 42.0391 50.8438 42.3889 50.8438 42.8203V46.7655C50.8438 47.197 51.1935 47.5468 51.625 47.5468C52.0565 47.5468 52.4062 47.197 52.4062 46.7655V43.6016H55.8438V60.4375H52.4062V52.0195C52.4062 51.5881 52.0565 51.2383 51.625 51.2383C51.1935 51.2383 50.8438 51.5881 50.8438 52.0195V60.4375H48.6562V50.5938C48.6562 50.1623 48.3065 49.8125 47.875 49.8125H42.875C42.4435 49.8125 42.0938 50.1623 42.0938 50.5938V60.4375H39.9062V43.9869C39.9062 43.5555 39.5565 43.2056 39.125 43.2056H34.125C33.6935 43.2056 33.3438 43.5555 33.3438 43.9869V60.4375H31.1562V52.625C31.1562 52.1936 30.8065 51.8438 30.375 51.8438H25.375C24.9435 51.8438 24.5938 52.1936 24.5938 52.625V54.8517H23.7279C23.0852 54.8517 22.5625 54.3289 22.5625 53.6863V29.1835C22.5883 29.1861 22.6145 29.1875 22.6409 29.1875H59.4375V53.6863C59.4375 54.3289 58.9147 54.8517 58.2721 54.8517H57.4062V42.8203C57.4062 42.3889 57.0565 42.0391 56.625 42.0391Z" fill="url(#paint1_linear)"/>
<path d="M55.9998 24.8125H38.3486C37.9171 24.8125 37.5674 25.1623 37.5674 25.5938C37.5674 26.0252 37.9171 26.375 38.3486 26.375H55.9998C56.4313 26.375 56.7811 26.0252 56.7811 25.5938C56.7811 25.1623 56.4313 24.8125 55.9998 24.8125Z" fill="url(#paint2_linear)"/>
<path d="M29.6773 25.0414C29.532 24.8961 29.3305 24.8125 29.125 24.8125C28.9195 24.8125 28.718 24.896 28.5727 25.0414C28.4273 25.1867 28.3438 25.3883 28.3438 25.5938C28.3438 25.7992 28.4273 26.0008 28.5727 26.146C28.718 26.2914 28.9195 26.375 29.125 26.375C29.3305 26.375 29.532 26.2914 29.6773 26.146C29.8227 26.0008 29.9062 25.7992 29.9062 25.5938C29.9062 25.3883 29.8227 25.1867 29.6773 25.0414Z" fill="url(#paint3_linear)"/>
<path d="M26.5523 25.0414C26.407 24.8961 26.2055 24.8125 26 24.8125C25.7945 24.8125 25.593 24.896 25.4477 25.0414C25.3023 25.1867 25.2188 25.3883 25.2188 25.5938C25.2188 25.7992 25.3023 26.0008 25.4477 26.146C25.593 26.2914 25.7945 26.375 26 26.375C26.2055 26.375 26.407 26.2914 26.5523 26.146C26.6977 26.0008 26.7812 25.7992 26.7812 25.5938C26.7812 25.3883 26.6977 25.1867 26.5523 25.0414Z" fill="url(#paint4_linear)"/>
<path d="M32.8023 25.0414C32.657 24.8961 32.4563 24.8125 32.25 24.8125C32.0445 24.8125 31.843 24.896 31.6977 25.0414C31.5523 25.1867 31.4688 25.3883 31.4688 25.5938C31.4688 25.7992 31.5523 26.0008 31.6977 26.146C31.843 26.2914 32.0445 26.375 32.25 26.375C32.4555 26.375 32.657 26.2914 32.8023 26.146C32.9477 26.0008 33.0312 25.7992 33.0312 25.5938C33.0312 25.3883 32.9477 25.1867 32.8023 25.0414Z" fill="url(#paint5_linear)"/>
<path d="M52.1773 48.9976C52.032 48.8515 51.8305 48.7687 51.625 48.7687C51.4195 48.7687 51.218 48.8516 51.0727 48.9976C50.9273 49.143 50.8438 49.3445 50.8438 49.55C50.8438 49.7555 50.9273 49.957 51.0727 50.1023C51.218 50.2476 51.4195 50.3312 51.625 50.3312C51.8305 50.3312 52.032 50.2476 52.1773 50.1023C52.3227 49.957 52.4062 49.7555 52.4062 49.55C52.4062 49.3437 52.3227 49.143 52.1773 48.9976Z" fill="url(#paint6_linear)"/>
<path d="M54.1251 32.6202C52.5743 32.6202 51.3126 33.8819 51.3126 35.4327C51.3126 36.0488 51.5122 36.6188 51.8494 37.0826L46.66 42.272C46.2572 42.0491 45.7946 41.9218 45.3025 41.9218C44.8592 41.9218 44.4396 42.0253 44.0663 42.2088L38.6476 36.7902C38.8705 36.3874 38.9979 35.9248 38.9979 35.4327C38.9979 33.8819 37.7362 32.6202 36.1854 32.6202C34.6345 32.6202 33.3729 33.8819 33.3729 35.4327C33.3729 35.9748 33.5274 36.4812 33.7941 36.911L29.1806 41.5245C28.7779 41.3016 28.3152 41.1742 27.8232 41.1742C26.2724 41.1742 25.0107 42.4359 25.0107 43.9867C25.0107 45.5376 26.2724 46.7992 27.8232 46.7992C29.3741 46.7992 30.6357 45.5376 30.6357 43.9867C30.6357 43.4947 30.5084 43.032 30.2855 42.6293L34.9541 37.9607C35.3262 38.1427 35.744 38.2452 36.1854 38.2452C36.6773 38.2452 37.14 38.1178 37.5427 37.8949L42.9083 43.2605C42.6434 43.6894 42.49 44.1941 42.49 44.7341C42.49 46.285 43.7517 47.5466 45.3025 47.5466C46.8534 47.5466 48.115 46.285 48.115 44.7341C48.115 44.2421 47.9877 43.7795 47.7648 43.3767L53.0933 38.0482C53.4131 38.1749 53.761 38.2452 54.1251 38.2452C55.676 38.2452 56.9376 36.9836 56.9376 35.4327C56.9376 33.8819 55.676 32.6202 54.1251 32.6202ZM27.8233 45.2369C27.1341 45.2369 26.5733 44.6761 26.5733 43.9869C26.5733 43.2977 27.1341 42.7369 27.8233 42.7369C28.5125 42.7369 29.0733 43.2977 29.0733 43.9869C29.0733 44.6761 28.5125 45.2369 27.8233 45.2369ZM36.1854 36.6827C35.4962 36.6827 34.9354 36.122 34.9354 35.4327C34.9354 34.7435 35.4962 34.1827 36.1854 34.1827C36.8746 34.1827 37.4354 34.7435 37.4354 35.4327C37.4354 36.122 36.8746 36.6827 36.1854 36.6827ZM45.3026 45.9843C44.6134 45.9843 44.0526 45.4235 44.0526 44.7343C44.0526 44.0451 44.6134 43.4843 45.3026 43.4843C45.9918 43.4843 46.5526 44.0451 46.5526 44.7343C46.5526 45.4235 45.9918 45.9843 45.3026 45.9843ZM54.1251 36.6827C53.4359 36.6827 52.8751 36.122 52.8751 35.4327C52.8751 34.7435 53.4359 34.1827 54.1251 34.1827C54.8143 34.1827 55.3751 34.7435 55.3751 35.4327C55.3751 36.122 54.8143 36.6827 54.1251 36.6827Z" fill="url(#paint7_linear)"/>
<path d="M32.5885 32.0743C32.4424 31.929 32.2416 31.8453 32.0361 31.8453C31.8299 31.8453 31.6283 31.9289 31.483 32.0743C31.3377 32.2196 31.2549 32.4211 31.2549 32.6266C31.2549 32.8321 31.3377 33.0336 31.483 33.1789C31.6291 33.3242 31.8299 33.4078 32.0361 33.4078C32.2416 33.4078 32.4424 33.3243 32.5885 33.1789C32.7338 33.0336 32.8174 32.8321 32.8174 32.6266C32.8174 32.4211 32.7338 32.2196 32.5885 32.0743Z" fill="url(#paint8_linear)"/>
<path d="M29.125 31.8454H25.375C24.9435 31.8454 24.5938 32.1952 24.5938 32.6266C24.5938 33.0581 24.9435 33.4079 25.375 33.4079H29.125C29.5565 33.4079 29.9062 33.0581 29.9062 32.6266C29.9062 32.1952 29.5565 31.8454 29.125 31.8454Z" fill="url(#paint9_linear)"/>
<path d="M29.125 35.5954H25.375C24.9435 35.5954 24.5938 35.9452 24.5938 36.3766C24.5938 36.8081 24.9435 37.1579 25.375 37.1579H29.125C29.5565 37.1579 29.9062 36.8081 29.9062 36.3766C29.9062 35.9452 29.5565 35.5954 29.125 35.5954Z" fill="url(#paint10_linear)"/>
<defs>
<linearGradient id="paint0_linear" x1="23.8971" y1="-3.05326e-05" x2="94.7911" y2="1.10614" gradientUnits="userSpaceOnUse">
<stop stop-color="#FE413F"/>
<stop offset="1" stop-color="#FFE568"/>
</linearGradient>
<linearGradient id="paint1_linear" x1="93.0576" y1="-0.770917" x2="21.936" y2="82.3659" gradientUnits="userSpaceOnUse">
<stop stop-color="#FFE66C"/>
<stop offset="0.871768" stop-color="#FE413F"/>
</linearGradient>
<linearGradient id="paint2_linear" x1="72.1797" y1="23.923" x2="71.7903" y2="29.5201" gradientUnits="userSpaceOnUse">
<stop stop-color="#FFE66C"/>
<stop offset="0.871768" stop-color="#FE413F"/>
</linearGradient>
<linearGradient id="paint3_linear" x1="31.1585" y1="23.923" x2="28.3803" y2="27.1705" gradientUnits="userSpaceOnUse">
<stop stop-color="#FFE66C"/>
<stop offset="0.871768" stop-color="#FE413F"/>
</linearGradient>
<linearGradient id="paint4_linear" x1="28.0335" y1="23.923" x2="25.2553" y2="27.1705" gradientUnits="userSpaceOnUse">
<stop stop-color="#FFE66C"/>
<stop offset="0.871768" stop-color="#FE413F"/>
</linearGradient>
<linearGradient id="paint5_linear" x1="34.2835" y1="23.923" x2="31.5053" y2="27.1705" gradientUnits="userSpaceOnUse">
<stop stop-color="#FFE66C"/>
<stop offset="0.871768" stop-color="#FE413F"/>
</linearGradient>
<linearGradient id="paint6_linear" x1="53.6585" y1="47.8792" x2="50.8803" y2="51.1268" gradientUnits="userSpaceOnUse">
<stop stop-color="#FFE66C"/>
<stop offset="0.871768" stop-color="#FE413F"/>
</linearGradient>
<linearGradient id="paint7_linear" x1="82.5251" y1="24.123" x2="64" y2="70.4414" gradientUnits="userSpaceOnUse">
<stop stop-color="#FFE66C"/>
<stop offset="0.871768" stop-color="#FE413F"/>
</linearGradient>
<linearGradient id="paint8_linear" x1="34.0696" y1="30.9558" x2="31.2914" y2="34.2034" gradientUnits="userSpaceOnUse">
<stop stop-color="#FFE66C"/>
<stop offset="0.871768" stop-color="#FE413F"/>
</linearGradient>
<linearGradient id="paint9_linear" x1="34.1639" y1="30.9559" x2="32.833" y2="36.2453" gradientUnits="userSpaceOnUse">
<stop stop-color="#FFE66C"/>
<stop offset="0.871768" stop-color="#FE413F"/>
</linearGradient>
<linearGradient id="paint10_linear" x1="34.1639" y1="34.7059" x2="32.833" y2="39.9953" gradientUnits="userSpaceOnUse">
<stop stop-color="#FFE66C"/>
<stop offset="0.871768" stop-color="#FE413F"/>
</linearGradient>
</defs>
</svg>
