<svg width="82" height="82" viewBox="0 0 82 82" fill="none" xmlns="http://www.w3.org/2000/svg">
<circle cx="41" cy="41" r="40" fill="white" stroke="url(#paint0_linear)" stroke-width="2"/>
<path d="M41 19C28.3178 19 18 29.3178 18 42C18 54.6822 28.3178 65 41 65C53.6822 65 64 54.6822 64 42C64 29.3178 53.6822 19 41 19ZM41 63.4666C29.1634 63.4666 19.5334 53.8366 19.5334 42C19.5334 30.1634 29.1634 20.5334 41 20.5334C52.8366 20.5334 62.4666 30.1634 62.4666 42C62.4666 53.8366 52.8366 63.4666 41 63.4666Z" fill="url(#paint1_linear)"/>
<path d="M41.0001 22.8334C30.4316 22.8334 21.8335 31.4315 21.8335 42C21.8335 52.5685 30.4316 61.1666 41.0001 61.1666C51.5686 61.1666 60.1668 52.5685 60.1668 42C60.1668 31.4315 51.5686 22.8334 41.0001 22.8334ZM41.0001 59.6334C31.2772 59.6334 23.3668 51.7237 23.3668 42C23.3668 32.2763 31.2772 24.3666 41.0001 24.3666C50.723 24.3666 58.6335 32.2764 58.6335 42C58.6335 51.7236 50.723 59.6334 41.0001 59.6334Z" fill="url(#paint2_linear)"/>
<path d="M41 25.9C40.5769 25.9 40.2334 26.2426 40.2334 26.6666V28.9666C40.2334 29.3906 40.5769 29.7332 41 29.7332C41.4232 29.7332 41.7667 29.3906 41.7667 28.9666V26.6666C41.7667 26.2426 41.4232 25.9 41 25.9Z" fill="url(#paint3_linear)"/>
<path d="M41 54.2667C40.5769 54.2667 40.2334 54.6093 40.2334 55.0333V57.3333C40.2334 57.7573 40.5769 58.0999 41 58.0999C41.4232 58.0999 41.7667 57.7573 41.7667 57.3333V55.0333C41.7667 54.6094 41.4232 54.2667 41 54.2667Z" fill="url(#paint4_linear)"/>
<path d="M56.3332 41.2333H54.0332C53.6101 41.2333 53.2666 41.576 53.2666 42C53.2666 42.424 53.6101 42.7666 54.0332 42.7666H56.3332C56.7564 42.7666 57.0999 42.424 57.0999 42C57.0999 41.576 56.7564 41.2333 56.3332 41.2333Z" fill="url(#paint5_linear)"/>
<path d="M27.9665 41.2333H25.6665C25.2434 41.2333 24.8999 41.576 24.8999 42C24.8999 42.424 25.2434 42.7666 25.6665 42.7666H27.9665C28.3897 42.7666 28.7332 42.424 28.7332 42C28.7332 41.576 28.3898 41.2333 27.9665 41.2333Z" fill="url(#paint6_linear)"/>
<path d="M41.0002 38.9333C39.3089 38.9333 37.9336 40.3088 37.9336 42C37.9336 43.6913 39.309 45.0666 41.0002 45.0666C42.6915 45.0666 44.0669 43.6912 44.0669 42C44.0669 40.3087 42.6915 38.9333 41.0002 38.9333ZM41.0002 43.5333C40.1546 43.5333 39.4669 42.8457 39.4669 42C39.4669 41.1544 40.1545 40.4666 41.0002 40.4666C41.8458 40.4666 42.5336 41.1543 42.5336 42C42.5336 42.8456 41.8458 43.5333 41.0002 43.5333Z" fill="url(#paint7_linear)"/>
<path d="M32.3261 32.2419L30.8088 30.7246C30.5098 30.4248 30.0237 30.4248 29.7247 30.7246C29.4257 31.0243 29.4257 31.5089 29.7247 31.8087L31.242 33.3259C31.3915 33.4754 31.5878 33.5505 31.784 33.5505C31.9804 33.5505 32.1766 33.4761 32.3261 33.3259C32.6258 33.0261 32.6258 32.5416 32.3261 32.2419Z" fill="url(#paint8_linear)"/>
<path d="M52.2753 52.1914L50.7581 50.6742C50.4591 50.3744 49.9738 50.3744 49.674 50.6742C49.3743 50.974 49.3742 51.4585 49.674 51.7583L51.1912 53.2754C51.3407 53.4249 51.537 53.5001 51.7333 53.5001C51.9296 53.5001 52.1258 53.4249 52.2753 53.2754C52.5743 52.9756 52.5743 52.4911 52.2753 52.1914Z" fill="url(#paint9_linear)"/>
<path d="M51.5086 31.4913C51.2839 31.2667 50.9427 31.2023 50.653 31.3342L36.8913 37.5058C36.6613 37.6078 36.4965 37.8179 36.4513 38.0663C36.4053 38.3147 36.485 38.5692 36.6629 38.7471L38.831 40.916C39.1185 41.2035 39.6283 41.2042 39.9158 40.916C40.4947 40.3364 41.5044 40.3364 42.0839 40.916C42.3738 41.2059 42.5333 41.5907 42.5333 42.0001C42.5333 42.4095 42.3738 42.7944 42.0848 43.0841C41.9406 43.2275 41.8601 43.4222 41.8601 43.6262C41.8601 43.8293 41.9406 44.0241 42.0848 44.1682L44.2529 46.3371C44.3978 46.482 44.5933 46.5617 44.7949 46.5617C44.8409 46.5617 44.8869 46.5571 44.9337 46.5487C45.1813 46.5035 45.3906 46.3386 45.4941 46.1086L51.6658 32.347C51.7961 32.0564 51.7333 31.7159 51.5086 31.4913ZM44.5503 44.4664L43.6426 43.5579C43.9195 43.0918 44.0666 42.5574 44.0666 42C44.0666 41.1812 43.7477 40.4107 43.1681 39.8326C42.1952 38.8597 40.596 38.675 39.4413 39.358L38.5336 38.4504L49.4432 33.5575L44.5503 44.4664Z" fill="url(#paint10_linear)"/>
<path d="M45.3372 45.2529L43.1691 43.084C42.8816 42.7965 42.3726 42.7965 42.0843 43.084C41.5054 43.6636 40.4957 43.6636 39.9161 43.084C39.6263 42.7942 39.4668 42.4094 39.4668 42C39.4668 41.5906 39.6263 41.2057 39.9153 40.9159C40.0594 40.7725 40.1399 40.5778 40.1399 40.3739C40.1399 40.1708 40.0594 39.976 39.9153 39.8319L37.7472 37.6629C37.5693 37.4851 37.3156 37.4076 37.0664 37.4514C36.8188 37.4966 36.6094 37.6614 36.5059 37.8914L30.3343 51.6531C30.2039 51.9436 30.2668 52.284 30.4914 52.5086C30.6379 52.6551 30.8341 52.7332 31.0335 52.7332C31.1393 52.7332 31.2466 52.7118 31.347 52.6658L45.1087 46.4941C45.3387 46.3922 45.5035 46.1821 45.5487 45.9337C45.5948 45.6854 45.5151 45.4308 45.3372 45.2529ZM32.5569 50.4425L37.4498 39.5336L38.3575 40.4421C38.0807 40.9082 37.9336 41.4426 37.9336 42C37.9336 42.8188 38.2525 43.5893 38.8321 44.1674C39.805 45.1403 41.4042 45.325 42.5589 44.6419L43.4666 45.5496L32.5569 50.4425Z" fill="url(#paint11_linear)"/>
<defs>
<linearGradient id="paint0_linear" x1="23.8971" y1="-3.05326e-05" x2="94.7911" y2="1.10614" gradientUnits="userSpaceOnUse">
<stop stop-color="#FE413F"/>
<stop offset="1" stop-color="#FFE568"/>
</linearGradient>
<linearGradient id="paint1_linear" x1="100.866" y1="-7.18656" x2="19.0764" y2="88.4208" gradientUnits="userSpaceOnUse">
<stop stop-color="#FFE66C"/>
<stop offset="0.871768" stop-color="#FE413F"/>
</linearGradient>
<linearGradient id="paint2_linear" x1="90.8886" y1="1.01128" x2="22.7305" y2="80.684" gradientUnits="userSpaceOnUse">
<stop stop-color="#FFE66C"/>
<stop offset="0.871768" stop-color="#FE413F"/>
</linearGradient>
<linearGradient id="paint3_linear" x1="40.6802" y1="25.9" x2="42.0061" y2="25.9082" gradientUnits="userSpaceOnUse">
<stop stop-color="#FE413F"/>
<stop offset="1" stop-color="#FFE568"/>
</linearGradient>
<linearGradient id="paint4_linear" x1="42.9955" y1="52.0845" x2="37.7015" y2="54.5598" gradientUnits="userSpaceOnUse">
<stop stop-color="#FFE66C"/>
<stop offset="0.871768" stop-color="#FE413F"/>
</linearGradient>
<linearGradient id="paint5_linear" x1="54.3837" y1="41.2333" x2="57.6936" y2="41.3625" gradientUnits="userSpaceOnUse">
<stop stop-color="#FE413F"/>
<stop offset="1" stop-color="#FFE568"/>
</linearGradient>
<linearGradient id="paint6_linear" x1="26.017" y1="41.2333" x2="29.3269" y2="41.3625" gradientUnits="userSpaceOnUse">
<stop stop-color="#FE413F"/>
<stop offset="1" stop-color="#FFE568"/>
</linearGradient>
<linearGradient id="paint7_linear" x1="48.9823" y1="35.4418" x2="38.0771" y2="48.1894" gradientUnits="userSpaceOnUse">
<stop stop-color="#FFE66C"/>
<stop offset="0.871768" stop-color="#FE413F"/>
</linearGradient>
<linearGradient id="paint8_linear" x1="30.3895" y1="30.4998" x2="33.0267" y2="30.5409" gradientUnits="userSpaceOnUse">
<stop stop-color="#FE413F"/>
<stop offset="1" stop-color="#FFE568"/>
</linearGradient>
<linearGradient id="paint9_linear" x1="54.9442" y1="48.7127" x2="49.5198" y2="55.0526" gradientUnits="userSpaceOnUse">
<stop stop-color="#FFE66C"/>
<stop offset="0.871768" stop-color="#FE413F"/>
</linearGradient>
<linearGradient id="paint10_linear" x1="63.9906" y1="22.559" x2="36.7944" y2="54.3477" gradientUnits="userSpaceOnUse">
<stop stop-color="#FFE66C"/>
<stop offset="0.871768" stop-color="#FE413F"/>
</linearGradient>
<linearGradient id="paint11_linear" x1="57.8192" y1="28.733" x2="30.6262" y2="60.5212" gradientUnits="userSpaceOnUse">
<stop stop-color="#FFE66C"/>
<stop offset="0.871768" stop-color="#FE413F"/>
</linearGradient>
</defs>
</svg>
