<svg width="82" height="82" viewBox="0 0 82 82" fill="none" xmlns="http://www.w3.org/2000/svg">
<circle cx="41" cy="41" r="40" fill="white" stroke="url(#paint0_linear)" stroke-width="2"/>
<path d="M52.5446 48.1861C52.5295 48.1902 52.5144 48.1947 52.4996 48.1995L43.4424 51.1208C43.2089 49.8508 42.1 48.6151 40.2431 48.5401L38.1388 48.4549C37.6226 48.432 37.185 48.8364 37.1641 49.3537C37.1432 49.8711 37.5456 50.3074 38.063 50.3283L40.1673 50.4135C41.1535 50.4534 41.6084 51.0645 41.614 51.6155C41.6154 51.7537 41.5904 51.8808 41.5411 51.9956C41.5255 52.0234 41.5112 52.0521 41.4984 52.0813C41.3018 52.4264 40.8625 52.6416 40.2417 52.6791L33.3161 53.0976C32.7992 53.1288 32.4057 53.5731 32.4369 54.0899C32.468 54.6068 32.9096 55.0001 33.4292 54.9692L40.3549 54.5507C41.6162 54.4745 42.4739 53.9396 42.9688 53.2438L53.0524 49.9913C54.0947 49.7148 55.8878 49.4467 56.3679 50.6847C56.4089 50.8057 56.3199 50.922 56.1036 51.0304L43.5837 57.0495C41.4607 57.8169 36.7601 58.1316 32.9783 58.3849C31.3038 58.497 29.7223 58.6029 28.5262 58.7353C28.4391 58.745 28.3539 58.7667 28.2729 58.8L18.875 62.6634V54.7849H22.6864C23.2041 54.7849 23.6239 54.3652 23.6239 53.8474C23.6239 52.7579 24.0772 51.6978 24.8677 50.9386C25.6051 50.2305 26.5485 49.8626 27.5291 49.902L29.6328 49.9871C30.1488 50.0098 30.5865 49.6056 30.6074 49.0883C30.6283 48.571 30.2259 48.1346 29.7085 48.1137L27.6049 48.0286C26.1108 47.9674 24.6779 48.5213 23.5689 49.5863C22.6406 50.4779 22.0299 51.6544 21.825 52.9099H17.9375C17.4198 52.9099 17 53.3296 17 53.8474V64.0625C17 64.3751 17.1559 64.6672 17.4157 64.8413C17.5723 64.9463 17.7543 64.9999 17.9376 64.9999C18.0582 64.9999 18.1792 64.9767 18.294 64.9295L28.8625 60.5848C30.0038 60.4632 31.511 60.3622 33.1032 60.2557C37.2338 59.9791 41.9154 59.6656 44.2734 58.7935C44.301 58.7833 44.328 58.7719 44.3544 58.7591L56.9219 52.7173C56.9254 52.7155 56.9291 52.7138 56.9326 52.712C58.2187 52.0733 58.4476 50.8628 58.1162 50.0084C57.3762 48.0997 55.3454 47.4354 52.5446 48.1861Z" fill="url(#paint1_linear)"/>
<path d="M64.5845 17.1586C64.3249 16.9847 63.9956 16.9515 63.7061 17.0704L53.1375 21.4151C51.9962 21.5367 50.489 21.6377 48.8969 21.7443C44.7663 22.0208 40.0847 22.3343 37.7266 23.2064C37.6991 23.2166 37.672 23.2281 37.6456 23.2408L25.0781 29.2826C25.0745 29.2844 25.071 29.2861 25.0674 29.2878C23.7813 29.9265 23.5523 31.137 23.8837 31.9914C24.4243 33.3855 25.6533 34.1158 27.3678 34.1158C28.0009 34.1158 28.7002 34.0162 29.4555 33.8138C29.4705 33.8098 29.4856 33.8053 29.5005 33.8005L38.5576 30.8791C38.7912 32.1492 39.9001 33.3848 41.757 33.4599L54.3952 33.9714C55.8888 34.0324 57.3221 33.4785 58.4311 32.4136C59.3594 31.5221 59.9701 30.3455 60.175 29.09H64.0626C64.5803 29.09 65.0001 28.6703 65.0001 28.1525V17.9375C65 17.6248 64.8441 17.3327 64.5845 17.1586ZM63.1251 27.215H59.3137C58.796 27.215 58.3762 27.6347 58.3762 28.1525C58.3762 29.242 57.9228 30.3021 57.1323 31.0613C56.395 31.7694 55.4512 32.1373 54.4709 32.098L41.8327 31.5865C40.8466 31.5465 40.3916 30.9354 40.3861 30.3844C40.3847 30.2465 40.4096 30.1195 40.4587 30.0048C40.4746 29.9767 40.489 29.9477 40.502 29.918C40.6987 29.5732 41.1381 29.3582 41.7584 29.3207L48.6841 28.9022C49.2009 28.871 49.5946 28.4267 49.5632 27.9099C49.5321 27.3931 49.0879 26.9994 48.5709 27.0306L41.6453 27.4491C40.3839 27.5253 39.5262 28.0603 39.0313 28.7561L28.9476 32.0085C27.9054 32.285 26.1123 32.553 25.6323 31.3152C25.5912 31.1941 25.6802 31.0778 25.8964 30.9694L38.4164 24.9503C40.5395 24.1829 45.2401 23.8683 49.0218 23.615C50.6963 23.5028 52.2779 23.3969 53.4739 23.2645C53.561 23.2549 53.6462 23.2331 53.7272 23.1998L63.1248 19.3365V27.215H63.1251Z" fill="url(#paint2_linear)"/>
<path d="M40.7581 47.2349C40.8374 47.256 40.9188 47.2666 41.0001 47.2666C41.0814 47.2666 41.1628 47.256 41.242 47.235C43.0786 46.7444 47.1016 43.4795 48.0009 40.1184C48.4368 38.4886 48.0773 37.039 46.961 35.9263C45.3634 34.3338 42.7638 34.3338 41.1662 35.9263C41.008 36.084 40.8616 35.9539 40.8339 35.9263C39.2364 34.3336 36.6367 34.3338 35.0392 35.9263C33.9229 37.0391 33.5634 38.4886 33.9993 40.1184C34.8986 43.4794 38.9217 46.7443 40.7581 47.2349ZM36.3629 37.2541C36.7969 36.8216 37.3666 36.6054 37.9366 36.6054C38.5064 36.6054 39.0764 36.8217 39.5102 37.2541C40.3457 38.0868 41.6546 38.0868 42.4899 37.2541C43.3577 36.3891 44.7694 36.389 45.6373 37.2541C46.2776 37.8923 46.4531 38.6485 46.1895 39.6336C45.5231 42.125 42.3817 44.7622 41.0001 45.3387C39.6185 44.7622 36.4772 42.125 35.8107 39.6336C35.5471 38.6486 35.7226 37.8924 36.3629 37.2541Z" fill="url(#paint3_linear)"/>
<path d="M32.9482 49.2209C32.9482 49.7387 33.3682 50.1584 33.886 50.1584C34.4038 50.1584 34.8235 49.7387 34.8235 49.2209C34.8235 48.7032 34.4037 48.2834 33.886 48.2834H33.8854C33.3676 48.2834 32.9482 48.7032 32.9482 49.2209Z" fill="url(#paint4_linear)"/>
<defs>
<linearGradient id="paint0_linear" x1="23.8971" y1="-3.05326e-05" x2="94.7911" y2="1.10614" gradientUnits="userSpaceOnUse">
<stop stop-color="#FE413F"/>
<stop offset="1" stop-color="#FFE568"/>
</linearGradient>
<linearGradient id="paint1_linear" x1="91.3137" y1="38.1406" x2="71.8932" y2="92.8556" gradientUnits="userSpaceOnUse">
<stop stop-color="#FFE66C"/>
<stop offset="0.871768" stop-color="#FE413F"/>
</linearGradient>
<linearGradient id="paint2_linear" x1="98.0616" y1="7.25647" x2="78.6412" y2="61.9714" gradientUnits="userSpaceOnUse">
<stop stop-color="#FFE66C"/>
<stop offset="0.871768" stop-color="#FE413F"/>
</linearGradient>
<linearGradient id="paint3_linear" x1="59.6908" y1="27.5962" x2="38.061" y2="56.5648" gradientUnits="userSpaceOnUse">
<stop stop-color="#FFE66C"/>
<stop offset="0.871768" stop-color="#FE413F"/>
</linearGradient>
<linearGradient id="paint4_linear" x1="36.3264" y1="47.2161" x2="32.9927" y2="51.1136" gradientUnits="userSpaceOnUse">
<stop stop-color="#FFE66C"/>
<stop offset="0.871768" stop-color="#FE413F"/>
</linearGradient>
</defs>
</svg>
