<svg width="58" height="58" viewBox="0 0 58 58" fill="none" xmlns="http://www.w3.org/2000/svg">
<rect x="1" y="1" width="56" height="56" rx="28" fill="white" stroke="url(#paint0_linear)" stroke-width="2"/>
<path d="M44.9323 22.5268L41.9249 16.6003V14.2499C41.9249 13.9048 41.6452 13.6249 41.2999 13.6249H16.6999C16.3548 13.6249 16.0749 13.9048 16.0749 14.2499V16.6006L13.0676 22.5268C13.0232 22.6144 13 22.7114 13 22.8096V24.3472C13 26.1742 14.3315 27.6952 16.0749 27.9932V41.1249H15.4353C15.0901 41.1249 14.8103 41.4047 14.8103 41.7499C14.8103 42.095 15.0901 42.3749 15.4353 42.3749H16.6951C16.6966 42.3749 16.6983 42.3751 16.6999 42.3751H33.8H38.8H41.3H42.5646C42.9097 42.3751 43.1896 42.0952 43.1896 41.7501C43.1896 41.405 42.9097 41.1251 42.5646 41.1251H41.9251V27.9932C43.6685 27.6952 45 26.1742 45 24.3472V22.8096C45 22.7114 44.9768 22.6144 44.9323 22.5268ZM17.3249 14.8749H40.6749V16.1251H36.3801H31.46H26.5401H21.6199H17.3249V14.8749ZM32.6968 22.7465L32.1517 17.3751H35.9171L37.6 22.9026V24.3472C37.6 25.6981 36.501 26.7971 35.15 26.7971C33.7991 26.7971 32.7 25.6981 32.7 24.3472V22.8096C32.7 22.7885 32.6989 22.7675 32.6968 22.7465ZM31.4499 22.8412V24.3472H31.4499C31.4499 25.6981 30.3509 26.7971 29.0001 26.7971C27.6491 26.7971 26.55 25.6981 26.55 24.3472V22.8412L27.1049 17.3751H30.8953L31.4499 22.8412ZM25.8485 17.3751L25.3032 22.7465C25.301 22.7675 25.3 22.7885 25.3 22.8096V24.3472C25.3 25.6981 24.201 26.7971 22.85 26.7971C21.4991 26.7971 20.4001 25.6981 20.4001 24.3472V22.9027L22.0831 17.3751H25.8485ZM14.25 24.3472V22.9591L17.0836 17.3751H20.7763L19.1771 22.6275C19.1592 22.6865 19.15 22.7479 19.15 22.8096V24.3472C19.15 25.6981 18.0509 26.7971 16.6999 26.7971C15.349 26.7971 14.25 25.6981 14.25 24.3472ZM38.175 41.1251H34.425V39.25V36.75H35.05C35.3952 36.75 35.675 36.4702 35.675 36.125C35.675 35.7798 35.3952 35.5 35.05 35.5H34.425V31.1251H38.175V41.1251ZM40.6749 41.1251H39.4249V30.5001C39.4249 30.1549 39.1451 29.8751 38.7999 29.8751H33.7998H19.2C18.8547 29.8751 18.575 30.1549 18.575 30.5001V39.25C18.575 39.5952 18.8547 39.875 19.2 39.875H33.175V41.1251H17.3249V27.9932C18.3433 27.8192 19.2211 27.2284 19.775 26.4023C20.4395 27.3932 21.5697 28.0471 22.85 28.0471C24.1302 28.0471 25.2604 27.3932 25.9249 26.4023C26.5895 27.3932 27.7197 28.0471 29 28.0471C30.2801 28.0471 31.4104 27.3933 32.0748 26.4023C32.7394 27.3933 33.8696 28.0471 35.1499 28.0471C36.4302 28.0471 37.5604 27.3932 38.2249 26.4023C38.7788 27.2284 39.6566 27.8192 40.6749 27.9932V41.1251ZM25.9207 31.1251H28.0982L26.9097 32.3133C26.6657 32.5573 26.6657 32.9531 26.9097 33.1972C27.0317 33.3193 27.1917 33.3803 27.3517 33.3803C27.5116 33.3803 27.6715 33.3193 27.7936 33.1973L29.866 31.1251H33.1749V38.625H19.825V37.2208L25.9207 31.1251ZM19.825 35.453V31.1251H24.1529L19.825 35.453ZM43.75 24.3472C43.75 25.6981 42.6509 26.7971 41.3 26.7971C39.9491 26.7971 38.85 25.6981 38.85 24.3472V22.8096C38.85 22.7479 38.8409 22.6865 38.8229 22.6275L37.2237 17.3751H40.9164L43.75 22.9591V24.3472Z" fill="#FE413F"/>
<path d="M26.0717 34.6605C26.2311 34.6605 26.3905 34.5999 26.5124 34.4787L26.5229 34.4683C26.7677 34.225 26.7688 33.8293 26.5255 33.5845C26.2821 33.3397 25.8863 33.3385 25.6416 33.5819L25.6311 33.5923C25.3863 33.8356 25.3852 34.2314 25.6285 34.4762C25.7507 34.599 25.9112 34.6605 26.0717 34.6605Z" fill="#FE413F"/>
<path d="M13.6398 41.1249H13.625C13.2798 41.1249 13 41.4048 13 41.7499C13 42.095 13.2798 42.3749 13.625 42.3749H13.6398C13.9849 42.3749 14.2648 42.095 14.2648 41.7499C14.2648 41.4048 13.9849 41.1249 13.6398 41.1249Z" fill="#FE413F"/>
<path d="M44.3751 41.1251H44.3604C44.0152 41.1251 43.7354 41.405 43.7354 41.7501C43.7354 42.0953 44.0152 42.3751 44.3604 42.3751H44.3751C44.7203 42.3751 45.0001 42.0953 45.0001 41.7501C45.0001 41.405 44.7203 41.1251 44.3751 41.1251Z" fill="#FE413F"/>
<defs>
<linearGradient id="paint0_linear" x1="16.9029" y1="-2.15962e-05" x2="67.0473" y2="0.782392" gradientUnits="userSpaceOnUse">
<stop stop-color="#FE413F"/>
<stop offset="1" stop-color="#FFE568"/>
</linearGradient>
</defs>
</svg>
