<svg width="60" height="54" viewBox="0 0 60 54" fill="none" xmlns="http://www.w3.org/2000/svg">
<g clip-path="url(#clip0)">
<path d="M44.18 38.7022C45.3992 38.7022 46.3911 37.7103 46.3911 36.491V13.9737C46.3911 12.2278 44.9707 10.8074 43.2249 10.8074H17.135C15.3891 10.8074 13.9688 12.2278 13.9688 13.9737V36.491C13.9688 37.7103 14.9607 38.7022 16.1799 38.7022H16.8817V41.9633H14.602C14.2523 41.9633 13.9688 42.2469 13.9688 42.5965C13.9688 42.9462 14.2523 43.2298 14.602 43.2298H45.7579C46.1076 43.2298 46.3911 42.9462 46.3911 42.5965C46.3911 42.2469 46.1076 41.9633 45.7579 41.9633H43.4782V38.7022H44.18ZM15.2352 13.9737C15.2352 12.9262 16.0875 12.0739 17.135 12.0739H43.2249C44.2724 12.0739 45.1246 12.9262 45.1246 13.9737V15.3668H15.2988C15.2774 15.3668 15.2561 15.368 15.2352 15.3701V13.9737ZM20.9345 41.9633H18.1482V36.2641H20.9345V41.9633ZM28.0269 41.9633H25.2406V29.2623H28.0269V41.9633ZM35.1193 41.9633H32.333V34.6176H35.1193V41.9633ZM42.8449 27.0503H38.7921C38.4424 27.0503 38.1589 27.3338 38.1589 27.6835V30.8814C38.1589 31.2311 38.4424 31.5146 38.7921 31.5146C39.1419 31.5146 39.4254 31.2311 39.4254 30.8814V28.3168H42.2117V41.9633H39.4254V35.14C39.4254 34.7904 39.1419 34.5068 38.7921 34.5068C38.4424 34.5068 38.1589 34.7904 38.1589 35.14V41.9633H36.3858V33.9844C36.3858 33.6347 36.1023 33.3511 35.7525 33.3511H31.6997C31.35 33.3511 31.0665 33.6347 31.0665 33.9844V41.9633H29.2934V28.6291C29.2934 28.2794 29.0099 27.9958 28.6601 27.9958H24.6073C24.2576 27.9958 23.9741 28.2794 23.9741 28.6291V41.9633H22.201V35.6308C22.201 35.2811 21.9175 34.9976 21.5677 34.9976H17.5149C17.1652 34.9976 16.8817 35.2811 16.8817 35.6308V37.4357H16.1799C15.659 37.4357 15.2352 37.0119 15.2352 36.491V16.6301C15.2561 16.6322 15.2774 16.6333 15.2988 16.6333H45.1246V36.491C45.1246 37.0119 44.7008 37.4357 44.18 37.4357H43.4782V27.6835C43.4782 27.3338 43.1947 27.0503 42.8449 27.0503Z" fill="url(#paint0_linear)"/>
<path d="M42.3385 13.0871H28.0312C27.6815 13.0871 27.3979 13.3707 27.3979 13.7203C27.3979 14.07 27.6815 14.3536 28.0312 14.3536H42.3385C42.6883 14.3536 42.9718 14.07 42.9718 13.7203C42.9718 13.3707 42.6883 13.0871 42.3385 13.0871Z" fill="url(#paint1_linear)"/>
<path d="M21.0023 13.2726C20.8846 13.1549 20.7212 13.0871 20.5546 13.0871C20.3881 13.0871 20.2247 13.1548 20.1069 13.2726C19.9891 13.3904 19.9214 13.5538 19.9214 13.7203C19.9214 13.8869 19.9891 14.0503 20.1069 14.168C20.2247 14.2858 20.3881 14.3536 20.5546 14.3536C20.7212 14.3536 20.8846 14.2858 21.0023 14.168C21.1201 14.0503 21.1879 13.8869 21.1879 13.7203C21.1879 13.5538 21.1201 13.3904 21.0023 13.2726Z" fill="url(#paint2_linear)"/>
<path d="M18.4691 13.2726C18.3514 13.1549 18.188 13.0871 18.0214 13.0871C17.8549 13.0871 17.6915 13.1548 17.5737 13.2726C17.4559 13.3904 17.3882 13.5538 17.3882 13.7203C17.3882 13.8869 17.4559 14.0503 17.5737 14.168C17.6915 14.2858 17.8549 14.3536 18.0214 14.3536C18.188 14.3536 18.3514 14.2858 18.4691 14.168C18.5869 14.0503 18.6547 13.8869 18.6547 13.7203C18.6547 13.5538 18.5869 13.3904 18.4691 13.2726Z" fill="url(#paint3_linear)"/>
<path d="M23.5351 13.2726C23.4173 13.1549 23.2545 13.0871 23.0874 13.0871C22.9208 13.0871 22.7574 13.1548 22.6396 13.2726C22.5219 13.3904 22.4541 13.5538 22.4541 13.7203C22.4541 13.8869 22.5219 14.0503 22.6396 14.168C22.7574 14.2858 22.9208 14.3536 23.0874 14.3536C23.2539 14.3536 23.4173 14.2858 23.5351 14.168C23.6528 14.0503 23.7206 13.8869 23.7206 13.7203C23.7206 13.5538 23.6528 13.3904 23.5351 13.2726Z" fill="url(#paint4_linear)"/>
<path d="M39.2397 32.6907C39.1219 32.5723 38.9585 32.5051 38.7919 32.5051C38.6254 32.5051 38.462 32.5723 38.3442 32.6907C38.2264 32.8085 38.1587 32.9718 38.1587 33.1384C38.1587 33.3049 38.2264 33.4683 38.3442 33.5861C38.462 33.7038 38.6254 33.7716 38.7919 33.7716C38.9585 33.7716 39.1219 33.7039 39.2397 33.5861C39.3574 33.4683 39.4252 33.3049 39.4252 33.1384C39.4252 32.9712 39.3574 32.8085 39.2397 32.6907Z" fill="url(#paint5_linear)"/>
<path d="M40.8186 19.4157C39.5616 19.4157 38.5389 20.4383 38.5389 21.6954C38.5389 22.1947 38.7007 22.6567 38.9741 23.0327L34.7677 27.2391C34.4413 27.0584 34.0662 26.9552 33.6674 26.9552C33.3081 26.9552 32.968 27.0391 32.6654 27.1878L28.2732 22.7957C28.4539 22.4692 28.5571 22.0942 28.5571 21.6954C28.5571 20.4383 27.5345 19.4157 26.2774 19.4157C25.0203 19.4157 23.9977 20.4383 23.9977 21.6954C23.9977 22.1348 24.123 22.5452 24.3392 22.8936L20.5996 26.6331C20.2732 26.4524 19.8982 26.3492 19.4994 26.3492C18.2424 26.3492 17.2197 27.3719 17.2197 28.6289C17.2197 29.886 18.2424 30.9086 19.4994 30.9086C20.7565 30.9086 21.7791 29.886 21.7791 28.6289C21.7791 28.2301 21.6759 27.8551 21.4952 27.5286L25.2794 23.7445C25.581 23.892 25.9197 23.975 26.2774 23.975C26.6762 23.975 27.0512 23.8718 27.3776 23.6912L31.7268 28.0402C31.512 28.3879 31.3877 28.797 31.3877 29.2347C31.3877 30.4918 32.4104 31.5144 33.6674 31.5144C34.9245 31.5144 35.9471 30.4918 35.9471 29.2347C35.9471 28.8359 35.8439 28.4609 35.6632 28.1345L39.9823 23.8154C40.2415 23.9181 40.5235 23.9751 40.8186 23.9751C42.0757 23.9751 43.0983 22.9525 43.0983 21.6954C43.0983 20.4383 42.0757 19.4157 40.8186 19.4157ZM19.4995 29.6422C18.9408 29.6422 18.4863 29.1877 18.4863 28.629C18.4863 28.0704 18.9408 27.6158 19.4995 27.6158C20.0581 27.6158 20.5127 28.0704 20.5127 28.629C20.5127 29.1877 20.0581 29.6422 19.4995 29.6422ZM26.2775 22.7086C25.7188 22.7086 25.2643 22.2541 25.2643 21.6954C25.2643 21.1368 25.7188 20.6822 26.2775 20.6822C26.8361 20.6822 27.2907 21.1368 27.2907 21.6954C27.2907 22.2541 26.8361 22.7086 26.2775 22.7086ZM33.6675 30.2481C33.1088 30.2481 32.6543 29.7935 32.6543 29.2349C32.6543 28.6762 33.1088 28.2217 33.6675 28.2217C34.2261 28.2217 34.6807 28.6762 34.6807 29.2349C34.6807 29.7935 34.2261 30.2481 33.6675 30.2481ZM40.8186 22.7086C40.26 22.7086 39.8054 22.2541 39.8054 21.6954C39.8054 21.1368 40.26 20.6822 40.8186 20.6822C41.3773 20.6822 41.8318 21.1368 41.8318 21.6954C41.8318 22.2541 41.3773 22.7086 40.8186 22.7086Z" fill="url(#paint6_linear)"/>
<path d="M23.3617 18.9733C23.2433 18.8555 23.0806 18.7877 22.914 18.7877C22.7468 18.7877 22.5835 18.8554 22.4657 18.9733C22.3479 19.091 22.2808 19.2544 22.2808 19.4209C22.2808 19.5875 22.3479 19.7508 22.4657 19.8686C22.5841 19.9864 22.7468 20.0542 22.914 20.0542C23.0806 20.0542 23.2433 19.9865 23.3617 19.8686C23.4795 19.7508 23.5473 19.5875 23.5473 19.4209C23.5473 19.2544 23.4795 19.091 23.3617 18.9733Z" fill="url(#paint7_linear)"/>
<path d="M20.5547 18.7877H17.5151C17.1653 18.7877 16.8818 19.0713 16.8818 19.421C16.8818 19.7706 17.1653 20.0542 17.5151 20.0542H20.5547C20.9044 20.0542 21.1879 19.7706 21.1879 19.421C21.1879 19.0713 20.9044 18.7877 20.5547 18.7877Z" fill="url(#paint8_linear)"/>
<path d="M20.5547 21.8273H17.5151C17.1653 21.8273 16.8818 22.1108 16.8818 22.4605C16.8818 22.8102 17.1653 23.0938 17.5151 23.0938H20.5547C20.9044 23.0938 21.1879 22.8102 21.1879 22.4605C21.1879 22.1108 20.9044 21.8273 20.5547 21.8273Z" fill="url(#paint9_linear)"/>
</g>
<circle cx="29.82" cy="26.6583" r="25.9084" stroke="url(#paint10_linear)" stroke-width="1.5"/>
<path d="M59 28.0992L56.118 24.4968L52.8758 28.0992" stroke="url(#paint11_linear)" stroke-width="1.5" stroke-linecap="round"/>
<path d="M1 24.4968L3.88199 28.0992L7.12422 24.4968" stroke="url(#paint12_linear)" stroke-width="1.5" stroke-linecap="round"/>
<defs>
<linearGradient id="paint0_linear" x1="72.3757" y1="-7.64974" x2="14.7274" y2="59.7376" gradientUnits="userSpaceOnUse">
<stop stop-color="#FFE66C"/>
<stop offset="0.871768" stop-color="#FE413F"/>
</linearGradient>
<linearGradient id="paint1_linear" x1="55.4532" y1="12.3661" x2="55.1376" y2="16.9029" gradientUnits="userSpaceOnUse">
<stop stop-color="#FFE66C"/>
<stop offset="0.871768" stop-color="#FE413F"/>
</linearGradient>
<linearGradient id="paint2_linear" x1="22.2029" y1="12.3661" x2="19.951" y2="14.9984" gradientUnits="userSpaceOnUse">
<stop stop-color="#FFE66C"/>
<stop offset="0.871768" stop-color="#FE413F"/>
</linearGradient>
<linearGradient id="paint3_linear" x1="19.6697" y1="12.3661" x2="17.4178" y2="14.9984" gradientUnits="userSpaceOnUse">
<stop stop-color="#FFE66C"/>
<stop offset="0.871768" stop-color="#FE413F"/>
</linearGradient>
<linearGradient id="paint4_linear" x1="24.7356" y1="12.3661" x2="22.4837" y2="14.9984" gradientUnits="userSpaceOnUse">
<stop stop-color="#FFE66C"/>
<stop offset="0.871768" stop-color="#FE413F"/>
</linearGradient>
<linearGradient id="paint5_linear" x1="40.4402" y1="31.7841" x2="38.1883" y2="34.4165" gradientUnits="userSpaceOnUse">
<stop stop-color="#FFE66C"/>
<stop offset="0.871768" stop-color="#FE413F"/>
</linearGradient>
<linearGradient id="paint6_linear" x1="63.8385" y1="12.5282" x2="48.8229" y2="50.072" gradientUnits="userSpaceOnUse">
<stop stop-color="#FFE66C"/>
<stop offset="0.871768" stop-color="#FE413F"/>
</linearGradient>
<linearGradient id="paint7_linear" x1="24.5623" y1="18.0667" x2="22.3104" y2="20.699" gradientUnits="userSpaceOnUse">
<stop stop-color="#FFE66C"/>
<stop offset="0.871768" stop-color="#FE413F"/>
</linearGradient>
<linearGradient id="paint8_linear" x1="24.639" y1="18.0667" x2="23.5603" y2="22.3541" gradientUnits="userSpaceOnUse">
<stop stop-color="#FFE66C"/>
<stop offset="0.871768" stop-color="#FE413F"/>
</linearGradient>
<linearGradient id="paint9_linear" x1="24.639" y1="21.1063" x2="23.5603" y2="25.3936" gradientUnits="userSpaceOnUse">
<stop stop-color="#FFE66C"/>
<stop offset="0.871768" stop-color="#FE413F"/>
</linearGradient>
<linearGradient id="paint10_linear" x1="18.6997" y1="-8.08876e-05" x2="64.7952" y2="0.719156" gradientUnits="userSpaceOnUse">
<stop stop-color="#FE413F"/>
<stop offset="1" stop-color="#FFE568"/>
</linearGradient>
<linearGradient id="paint11_linear" x1="59" y1="25.5466" x2="58.9714" y2="28.6617" gradientUnits="userSpaceOnUse">
<stop stop-color="#FE413F"/>
<stop offset="1" stop-color="#FFE568"/>
</linearGradient>
<linearGradient id="paint12_linear" x1="0.999998" y1="27.0494" x2="1.02859" y2="23.9343" gradientUnits="userSpaceOnUse">
<stop stop-color="#FE413F"/>
<stop offset="1" stop-color="#FFE568"/>
</linearGradient>
<clipPath id="clip0">
<rect width="32.4224" height="32.4224" fill="white" transform="translate(13.9688 10.8074)"/>
</clipPath>
</defs>
</svg>
