<svg width="52" height="52" viewBox="0 0 52 52" fill="none" xmlns="http://www.w3.org/2000/svg">
<rect width="52" height="52" rx="26" fill="url(#paint0_linear)"/>
<path d="M39.8811 16.9954H34.8295V13.3147C34.8295 12.0384 33.807 11 32.5502 11H20.4498C19.193 11 18.1705 12.0383 18.1705 13.3147V16.9954H13.1188C11.3991 16.9954 10 18.4143 10 20.1582V37.8347C10 39.5801 11.3981 41 13.1165 41H39.8835C41.602 41 43 39.5801 43 37.8347V20.1582C42.9999 18.4143 41.6009 16.9954 39.8811 16.9954ZM19.4596 13.3147C19.4596 12.7592 19.9038 12.3072 20.4498 12.3072H32.5501C33.0962 12.3072 33.5404 12.7592 33.5404 13.3147V16.9954H31.8677V14.663C31.8677 14.302 31.5792 14.0094 31.2232 14.0094H21.7767C21.4208 14.0094 21.1322 14.302 21.1322 14.663V16.9954H19.4596V13.3147ZM22.4213 16.9954V15.3166H30.5787V16.9954H22.4213ZM11.2891 20.1582C11.2891 19.135 12.1099 18.3026 13.1188 18.3026H39.8811C40.8901 18.3026 41.7109 19.135 41.7109 20.1582V26.22C41.7109 28.2367 40.0929 29.8775 38.1042 29.8775H37.4114V27.1054C37.4114 26.7444 37.1229 26.4518 36.7669 26.4518H32.843C32.4871 26.4518 32.1985 26.7444 32.1985 27.1054V29.8775H20.8015V27.1054C20.8015 26.7444 20.5129 26.4518 20.157 26.4518H16.2331C15.8771 26.4518 15.5885 26.7444 15.5885 27.1054V29.8775H14.8957C12.907 29.8776 11.2891 28.2368 11.2891 26.22V20.1582ZM36.1224 27.7591V32.6497H33.4876V27.7591H36.1224ZM19.5124 27.7591V32.6497H16.8777V27.7591H19.5124ZM41.7109 37.8348C41.7109 38.8593 40.8911 39.6928 39.8834 39.6928H13.1165C12.1088 39.6927 11.2891 38.8592 11.2891 37.8348V29.5739C12.1846 30.5635 13.47 31.1848 14.8957 31.1848H15.5885V33.3034C15.5885 33.6644 15.8771 33.957 16.2331 33.957H20.1569C20.5129 33.957 20.8014 33.6644 20.8014 33.3034V31.1848H32.1984V33.3034C32.1984 33.6644 32.4869 33.957 32.8429 33.957H36.7668C37.1227 33.957 37.4113 33.6644 37.4113 33.3034V31.1848H38.1041C39.5299 31.1848 40.8152 30.5636 41.7107 29.5739V37.8348H41.7109Z" fill="white"/>
<defs>
<linearGradient id="paint0_linear" x1="93.6749" y1="-29.6022" x2="1.21682" y2="78.4757" gradientUnits="userSpaceOnUse">
<stop stop-color="#FFE66C"/>
<stop offset="0.871768" stop-color="#FE413F"/>
</linearGradient>
</defs>
</svg>
