<svg width="48" height="48" viewBox="0 0 48 48" fill="none" xmlns="http://www.w3.org/2000/svg">
<rect width="48" height="48" rx="24" fill="white"/>
<rect x="0.584766" y="0.584766" width="46.8305" height="46.8305" rx="23.4152" stroke="black" stroke-opacity="0.04" stroke-width="1.16953"/>
<path d="M36.1647 15.3958H31.5723V12.0833C31.5723 10.9346 30.6427 10 29.5002 10H18.4998C17.3573 10 16.4277 10.9345 16.4277 12.0833V15.3958H11.8353C10.2719 15.3958 9 16.6728 9 18.2424V34.1512C9 35.7221 10.271 37 11.8332 37H36.1668C37.729 37 39 35.7221 39 34.1512V18.2424C38.9999 16.6728 37.7281 15.3958 36.1647 15.3958ZM17.5996 12.0833C17.5996 11.5833 18.0035 11.1765 18.4998 11.1765H29.5001C29.9965 11.1765 30.4003 11.5833 30.4003 12.0833V15.3958H28.8798V13.2967C28.8798 12.9718 28.6174 12.7084 28.2938 12.7084H19.7061C19.3825 12.7084 19.1202 12.9718 19.1202 13.2967V15.3958H17.5996V12.0833ZM20.292 15.3958V13.8849H27.7079V15.3958H20.292ZM10.1719 18.2424C10.1719 17.3215 10.9181 16.5724 11.8353 16.5724H36.1647C37.0819 16.5724 37.8281 17.3215 37.8281 18.2424V23.698C37.8281 25.5131 36.3572 26.9898 34.5493 26.9898H33.9195V24.4948C33.9195 24.1699 33.6571 23.9066 33.3335 23.9066H29.7664C29.4428 23.9066 29.1805 24.1699 29.1805 24.4948V26.9898H18.8195V24.4948C18.8195 24.1699 18.5572 23.9066 18.2336 23.9066H14.6664C14.3428 23.9066 14.0805 24.1699 14.0805 24.4948V26.9898H13.4507C11.6427 26.9898 10.1719 25.5131 10.1719 23.698V18.2424ZM32.7476 25.0832V29.4848H30.3523V25.0832H32.7476ZM17.6477 25.0832V29.4848H15.2524V25.0832H17.6477ZM37.8281 34.1513C37.8281 35.0734 37.0828 35.8235 36.1668 35.8235H11.8332C10.9171 35.8235 10.1719 35.0733 10.1719 34.1513V26.7165C10.986 27.6072 12.1545 28.1664 13.4507 28.1664H14.0805V30.073C14.0805 30.3979 14.3428 30.6613 14.6664 30.6613H18.2335C18.5571 30.6613 18.8195 30.3979 18.8195 30.073V28.1664H29.1804V30.073C29.1804 30.3979 29.4427 30.6613 29.7663 30.6613H33.3334C33.657 30.6613 33.9193 30.3979 33.9193 30.073V28.1664H34.5492C35.8453 28.1664 37.0138 27.6072 37.828 26.7165L37.8281 34.1513Z" fill="url(#paint0_linear)"/>
<defs>
<linearGradient id="paint0_linear" x1="63.0432" y1="-5.37037" x2="16.065" y2="55.646" gradientUnits="userSpaceOnUse">
<stop stop-color="#FFE66C"/>
<stop offset="0.871768" stop-color="#FE413F"/>
</linearGradient>
</defs>
</svg>
