<svg width="52" height="52" viewBox="0 0 52 52" fill="none" xmlns="http://www.w3.org/2000/svg">
<rect width="52" height="52" rx="26" fill="url(#paint0_linear)"/>
<g clip-path="url(#clip0)">
<path d="M43.3629 20.1734L40.1049 13.753V11.2067C40.1049 10.8329 39.8018 10.5297 39.4278 10.5297H12.7777C12.4039 10.5297 12.1007 10.8329 12.1007 11.2067V13.7533L8.84279 20.1734C8.79465 20.2683 8.76953 20.3733 8.76953 20.4798V22.1455C8.76953 24.1247 10.212 25.7725 12.1007 26.0954V40.3213H11.4078C11.0338 40.3213 10.7307 40.6245 10.7307 40.9984C10.7307 41.3723 11.0338 41.6755 11.4078 41.6755H12.7725C12.7742 41.6755 12.776 41.6758 12.7777 41.6758H31.3028H36.7196H39.4279H40.7979C41.1718 41.6758 41.475 41.3726 41.475 40.9987C41.475 40.6248 41.1718 40.3216 40.7979 40.3216H40.105V26.0954C41.9937 25.7725 43.4362 24.1248 43.4362 22.1455V20.4798C43.4362 20.3733 43.4111 20.2683 43.3629 20.1734ZM13.4548 11.8838H38.7507V13.2382H34.098H28.7679H23.4379H18.1078H13.4548V11.8838ZM30.1077 20.4114L29.5172 14.5924H33.5964L35.4196 20.5805V22.1455C35.4196 23.6089 34.2289 24.7995 32.7654 24.7995C31.3019 24.7995 30.1111 23.6089 30.1111 22.1455V20.4798C30.1111 20.457 30.11 20.4341 30.1077 20.4114ZM28.757 20.514V22.1455H28.7569C28.7569 23.6089 27.5663 24.7995 26.1029 24.7995C24.6394 24.7995 23.4487 23.6089 23.4487 22.1455V20.514L24.0498 14.5924H28.1561L28.757 20.514ZM22.6887 14.5925L22.098 20.4115C22.0957 20.4341 22.0945 20.457 22.0945 20.4798V22.1455C22.0945 23.6089 20.9039 24.7995 19.4404 24.7995C17.9769 24.7995 16.7863 23.6089 16.7863 22.1455V20.5806L18.6096 14.5925H22.6887ZM10.1237 22.1455V20.6417L13.1935 14.5924H17.1939L15.4614 20.2825C15.442 20.3465 15.4321 20.413 15.4321 20.4798V22.1455C15.4321 23.6089 14.2413 24.7995 12.7777 24.7995C11.3143 24.7995 10.1237 23.6089 10.1237 22.1455ZM36.0425 40.3216H31.9799V38.2902V35.5818H32.6571C33.031 35.5818 33.3341 35.2787 33.3341 34.9048C33.3341 34.5309 33.031 34.2277 32.6571 34.2277H31.9799V29.4882H36.0425V40.3216ZM38.7507 40.3216H37.3965V28.8111C37.3965 28.4372 37.0934 28.134 36.7194 28.134H31.3027H15.4862C15.1121 28.134 14.8091 28.4372 14.8091 28.8111V38.2902C14.8091 38.6641 15.1121 38.9673 15.4862 38.9673H30.6257V40.3216H13.4548V26.0954C14.5581 25.9068 15.509 25.2668 16.1091 24.3719C16.829 25.4454 18.0534 26.1537 19.4403 26.1537C20.8273 26.1537 22.0516 25.4454 22.7715 24.3719C23.4915 25.4454 24.7159 26.1537 26.1029 26.1537C27.4897 26.1537 28.7141 25.4455 29.4339 24.3719C30.1539 25.4455 31.3783 26.1537 32.7653 26.1537C34.1522 26.1537 35.3766 25.4454 36.0965 24.3719C36.6966 25.2668 37.6475 25.9068 38.7507 26.0954V40.3216ZM22.7669 29.4882H25.1259L23.8384 30.7755C23.574 31.0398 23.574 31.4685 23.8384 31.733C23.9706 31.8653 24.1439 31.9314 24.3172 31.9314C24.4905 31.9314 24.6637 31.8653 24.7959 31.7331L27.041 29.4882H30.6257V37.6131H16.1632V36.0919L22.7669 29.4882ZM16.1632 34.1768V29.4882H20.8518L16.1632 34.1768ZM42.082 22.1455C42.082 23.6089 40.8914 24.7995 39.4279 24.7995C37.9644 24.7995 36.7737 23.6089 36.7737 22.1455V20.4798C36.7737 20.413 36.7639 20.3465 36.7444 20.2825L35.0119 14.5924H39.0123L42.082 20.6417V22.1455Z" fill="white"/>
<path d="M22.9305 33.3182C23.1031 33.3182 23.2758 33.2526 23.4079 33.1213L23.4192 33.1101C23.6844 32.8465 23.6856 32.4178 23.422 32.1526C23.1583 31.8873 22.7296 31.8861 22.4644 32.1498L22.4531 32.161C22.1879 32.4246 22.1868 32.8534 22.4503 33.1186C22.5826 33.2517 22.7565 33.3182 22.9305 33.3182Z" fill="white"/>
<path d="M9.4626 40.3213H9.44662C9.07266 40.3213 8.76953 40.6245 8.76953 40.9984C8.76953 41.3723 9.07266 41.6755 9.44662 41.6755H9.4626C9.83648 41.6755 10.1397 41.3723 10.1397 40.9984C10.1397 40.6245 9.83655 40.3213 9.4626 40.3213Z" fill="white"/>
<path d="M42.759 40.3216H42.743C42.3691 40.3216 42.0659 40.6248 42.0659 40.9987C42.0659 41.3726 42.3691 41.6758 42.743 41.6758H42.759C43.1329 41.6758 43.4361 41.3726 43.4361 40.9987C43.4361 40.6248 43.1329 40.3216 42.759 40.3216Z" fill="white"/>
</g>
<defs>
<linearGradient id="paint0_linear" x1="93.6749" y1="-29.6022" x2="1.21682" y2="78.4757" gradientUnits="userSpaceOnUse">
<stop stop-color="#FFE66C"/>
<stop offset="0.871768" stop-color="#FE413F"/>
</linearGradient>
<clipPath id="clip0">
<rect width="34.6667" height="34.6667" fill="white" transform="translate(8.76953 8.76941)"/>
</clipPath>
</defs>
</svg>
