<svg width="48" height="48" viewBox="0 0 48 48" fill="none" xmlns="http://www.w3.org/2000/svg">
<rect width="48" height="48" rx="24" fill="white"/>
<rect x="0.584766" y="0.584766" width="46.8305" height="46.8305" rx="23.4152" stroke="black" stroke-opacity="0.04" stroke-width="1.16953"/>
<path d="M38.9365 18.8689L36.1171 13.3127V11.1093C36.1171 10.7857 35.8549 10.5233 35.5312 10.5233H12.4686C12.1451 10.5233 11.8827 10.7857 11.8827 11.1093V13.313L9.0634 18.8689C9.02174 18.951 9 19.0419 9 19.134V20.5755C9 22.2883 10.2483 23.7142 11.8827 23.9937V36.3046H11.2831C10.9595 36.3046 10.6972 36.5669 10.6972 36.8905C10.6972 37.2141 10.9595 37.4764 11.2831 37.4764H12.4641C12.4656 37.4764 12.4671 37.4767 12.4686 37.4767H28.5H33.1875H35.5313H36.7168C37.0404 37.4767 37.3028 37.2143 37.3028 36.8907C37.3028 36.5672 37.0404 36.3048 36.7168 36.3048H36.1172V23.9937C37.7517 23.7142 39 22.2883 39 20.5755V19.134C39 19.0419 38.9783 18.951 38.9365 18.8689ZM13.0546 11.6952H34.9452V12.8673H30.9188H26.3063H21.6938H17.0812H13.0546V11.6952ZM27.4657 19.0748L26.9547 14.0391H30.4848L32.0625 19.2212V20.5755C32.0625 21.8419 31.0322 22.8722 29.7656 22.8722C28.4991 22.8722 27.4687 21.8419 27.4687 20.5755V19.134C27.4687 19.1142 27.4677 19.0945 27.4657 19.0748ZM26.2968 19.1636V20.5755H26.2968C26.2968 21.8419 25.2665 22.8722 24.0001 22.8722C22.7336 22.8722 21.7031 21.8419 21.7031 20.5755V19.1636L22.2233 14.0391H25.7768L26.2968 19.1636ZM21.0455 14.0392L20.5343 19.0749C20.5322 19.0945 20.5312 19.1142 20.5312 19.134V20.5755C20.5312 21.8419 19.5009 22.8722 18.2344 22.8722C16.9679 22.8722 15.9376 21.8419 15.9376 20.5755V19.2212L17.5154 14.0392H21.0455ZM10.1719 20.5755V19.2742L12.8284 14.0391H16.2903L14.7911 18.9633C14.7743 19.0186 14.7656 19.0762 14.7656 19.134V20.5755C14.7656 21.8419 13.7352 22.8722 12.4686 22.8722C11.2022 22.8722 10.1719 21.8419 10.1719 20.5755ZM32.6016 36.3048H29.0859V34.5469V32.2031H29.6719C29.9955 32.2031 30.2578 31.9408 30.2578 31.6172C30.2578 31.2936 29.9955 31.0312 29.6719 31.0312H29.0859V26.9298H32.6016V36.3048ZM34.9452 36.3048H33.7734V26.3438C33.7734 26.0203 33.511 25.7579 33.1874 25.7579H28.4998H14.8125C14.4888 25.7579 14.2265 26.0203 14.2265 26.3438V34.5469C14.2265 34.8705 14.4888 35.1328 14.8125 35.1328H27.914V36.3048H13.0546V23.9937C14.0093 23.8305 14.8323 23.2766 15.3516 22.5022C15.9746 23.4312 17.0341 24.0441 18.2344 24.0441C19.4346 24.0441 20.4941 23.4312 21.1171 22.5022C21.7401 23.4312 22.7998 24.0441 24 24.0441C25.2001 24.0441 26.2597 23.4312 26.8827 22.5022C27.5057 23.4312 28.5653 24.0441 29.7655 24.0441C30.9658 24.0441 32.0254 23.4312 32.6484 22.5022C33.1676 23.2766 33.9906 23.8305 34.9452 23.9937V36.3048ZM21.1131 26.9298H23.1545L22.0404 28.0437C21.8116 28.2725 21.8116 28.6435 22.0403 28.8724C22.1548 28.9868 22.3047 29.0441 22.4547 29.0441C22.6046 29.0441 22.7545 28.9868 22.869 28.8724L24.8119 26.9298H27.914V33.9609H15.3984V32.6445L21.1131 26.9298ZM15.3984 30.9872V26.9298H19.4558L15.3984 30.9872ZM37.8281 20.5755C37.8281 21.8419 36.7977 22.8722 35.5313 22.8722C34.2648 22.8722 33.2344 21.8419 33.2344 20.5755V19.134C33.2344 19.0762 33.2259 19.0186 33.209 18.9633L31.7097 14.0391H35.1716L37.8281 19.2742V20.5755Z" fill="url(#paint0_linear)"/>
<path d="M21.2544 30.2442C21.4038 30.2442 21.5532 30.1874 21.6675 30.0738L21.6773 30.0641C21.9068 29.8359 21.9079 29.4649 21.6798 29.2354C21.4515 29.0059 21.0805 29.0048 20.8511 29.233L20.8413 29.2427C20.6118 29.4708 20.6108 29.8419 20.8388 30.0714C20.9534 30.1866 21.1038 30.2442 21.2544 30.2442Z" fill="url(#paint1_linear)"/>
<path d="M9.59977 36.3046H9.58594C9.26233 36.3046 9 36.5669 9 36.8905C9 37.2141 9.26233 37.4764 9.58594 37.4764H9.59977C9.92332 37.4764 10.1857 37.2141 10.1857 36.8905C10.1857 36.5669 9.92338 36.3046 9.59977 36.3046Z" fill="url(#paint2_linear)"/>
<path d="M38.4142 36.3048H38.4004C38.0768 36.3048 37.8145 36.5672 37.8145 36.8908C37.8145 37.2143 38.0768 37.4767 38.4004 37.4767H38.4142C38.7378 37.4767 39.0002 37.2143 39.0002 36.8908C39.0002 36.5672 38.7378 36.3048 38.4142 36.3048Z" fill="url(#paint3_linear)"/>
<defs>
<linearGradient id="paint0_linear" x1="63.0432" y1="-4.8205" x2="16.1669" y2="56.1688" gradientUnits="userSpaceOnUse">
<stop stop-color="#FFE66C"/>
<stop offset="0.871768" stop-color="#FE413F"/>
</linearGradient>
<linearGradient id="paint1_linear" x1="22.7972" y1="28.3899" x2="20.6962" y2="30.8459" gradientUnits="userSpaceOnUse">
<stop stop-color="#FFE66C"/>
<stop offset="0.871768" stop-color="#FE413F"/>
</linearGradient>
<linearGradient id="paint2_linear" x1="11.136" y1="35.6374" x2="9.05626" y2="38.0972" gradientUnits="userSpaceOnUse">
<stop stop-color="#FFE66C"/>
<stop offset="0.871768" stop-color="#FE413F"/>
</linearGradient>
<linearGradient id="paint3_linear" x1="39.9504" y1="35.6377" x2="37.8707" y2="38.0975" gradientUnits="userSpaceOnUse">
<stop stop-color="#FFE66C"/>
<stop offset="0.871768" stop-color="#FE413F"/>
</linearGradient>
</defs>
</svg>
