<svg width="58" height="52" viewBox="0 0 58 52" fill="none" xmlns="http://www.w3.org/2000/svg">
<circle cx="28.826" cy="25.7391" r="24.9891" stroke="url(#paint0_linear)" stroke-width="1.5"/>
<path d="M56.9131 27.4783L54.1305 24L51 27.4783" stroke="url(#paint1_linear)" stroke-linecap="round"/>
<path d="M1 23.6522L3.78261 27.1304L6.91304 23.6522" stroke="url(#paint2_linear)" stroke-linecap="round"/>
<path d="M37.7344 30.1918C37.7256 30.1942 37.7168 30.1968 37.7082 30.1996L32.4248 31.9037C32.2886 31.1629 31.6417 30.4421 30.5585 30.3983L29.331 30.3486C29.0299 30.3352 28.7746 30.5712 28.7624 30.8729C28.7502 31.1747 28.985 31.4293 29.2868 31.4415L30.5143 31.4911C31.0896 31.5144 31.355 31.8709 31.3582 32.1923C31.359 32.2729 31.3445 32.3471 31.3157 32.414C31.3066 32.4303 31.2982 32.447 31.2907 32.4641C31.1761 32.6654 30.9198 32.7909 30.5577 32.8127L26.5177 33.0569C26.2163 33.0751 25.9867 33.3342 26.0049 33.6357C26.023 33.9372 26.2806 34.1666 26.5837 34.1486L30.6237 33.9045C31.3595 33.8601 31.8598 33.548 32.1485 33.1421L38.0306 31.2449C38.6387 31.0836 39.6846 30.9272 39.9647 31.6493C39.9886 31.7199 39.9367 31.7878 39.8105 31.851L32.5072 35.3622C31.2688 35.8098 28.5267 35.9934 26.3207 36.1411C25.3439 36.2065 24.4214 36.2683 23.7237 36.3455C23.6728 36.3512 23.6231 36.3639 23.5759 36.3833L18.0937 38.637V34.0411H20.3171C20.619 34.0411 20.8639 33.7963 20.8639 33.4943C20.8639 32.8587 21.1284 32.2403 21.5895 31.7975C22.0196 31.3844 22.57 31.1698 23.142 31.1927L24.3691 31.2424C24.6701 31.2556 24.9255 31.0199 24.9377 30.7181C24.9499 30.4163 24.7151 30.1618 24.4133 30.1496L23.1862 30.0999C22.3146 30.0643 21.4788 30.3874 20.8319 31.0086C20.2904 31.5287 19.9341 32.215 19.8146 32.9474H17.5469C17.2449 32.9474 17 33.1922 17 33.4943V39.4531C17 39.6354 17.0909 39.8058 17.2425 39.9074C17.3339 39.9686 17.44 39.9999 17.5469 39.9999C17.6173 39.9999 17.6879 39.9864 17.7549 39.9589L23.9198 37.4244C24.5856 37.3535 25.4648 37.2946 26.3935 37.2324C28.8031 37.0711 31.534 36.8882 32.9096 36.3795C32.9256 36.3735 32.9414 36.3669 32.9568 36.3594L40.2878 32.835C40.2899 32.834 40.292 32.833 40.2941 32.8319C41.0443 32.4594 41.1779 31.7532 40.9845 31.2548C40.5528 30.1414 39.3682 29.7539 37.7344 30.1918Z" fill="url(#paint3_linear)"/>
<path d="M44.7576 12.0925C44.6062 11.9911 44.4141 11.9717 44.2453 12.0411L38.0802 14.5755C37.4145 14.6464 36.5353 14.7053 35.6065 14.7675C33.197 14.9288 30.4661 15.1117 29.0905 15.6204C29.0745 15.6264 29.0587 15.633 29.0433 15.6405L21.7122 19.1649C21.7101 19.1659 21.708 19.1669 21.706 19.1679C20.9557 19.5405 20.8221 20.2466 21.0155 20.745C21.3308 21.5583 22.0477 21.9842 23.0479 21.9842C23.4172 21.9842 23.8251 21.9261 24.2657 21.8081C24.2745 21.8057 24.2833 21.8031 24.2919 21.8003L29.5753 20.0962C29.7115 20.837 30.3584 21.5578 31.4416 21.6016L38.8139 21.9C39.6852 21.9356 40.5213 21.6125 41.1682 20.9913C41.7097 20.4712 42.0659 19.7849 42.1855 19.0525H44.4532C44.7552 19.0525 45.0001 18.8077 45.0001 18.5057V12.5469C45.0001 12.3645 44.9091 12.1941 44.7576 12.0925ZM43.9063 17.9588H41.683C41.381 17.9588 41.1361 18.2036 41.1361 18.5057C41.1361 19.1412 40.8717 19.7596 40.4105 20.2024C39.9804 20.6155 39.4299 20.8301 38.8581 20.8072L31.4858 20.5088C30.9105 20.4855 30.6451 20.129 30.6419 19.8076C30.6411 19.7272 30.6556 19.6531 30.6843 19.5862C30.6935 19.5698 30.7019 19.5529 30.7095 19.5355C30.8243 19.3344 31.0805 19.209 31.4424 19.1871L35.4824 18.943C35.7839 18.9248 36.0135 18.6656 35.9952 18.3641C35.9771 18.0626 35.718 17.833 35.4164 17.8512L31.3764 18.0953C30.6406 18.1398 30.1403 18.4518 29.8516 18.8577L23.9694 20.755C23.3614 20.9163 22.3155 21.0726 22.0354 20.3505C22.0115 20.2799 22.0634 20.2121 22.1896 20.1489L29.4929 16.6377C30.7313 16.19 33.4734 16.0065 35.6794 15.8587C36.6562 15.7933 37.5788 15.7315 38.2765 15.6543C38.3273 15.6487 38.377 15.636 38.4242 15.6166L43.9061 13.363V17.9588H43.9063Z" fill="url(#paint4_linear)"/>
<path d="M30.8587 29.6369C30.9049 29.6493 30.9524 29.6555 30.9998 29.6555C31.0472 29.6555 31.0947 29.6493 31.1409 29.637C32.2123 29.3508 34.5591 27.4463 35.0836 25.4857C35.3379 24.535 35.1282 23.6893 34.477 23.0402C33.5451 22.1113 32.0287 22.1113 31.0967 23.0402C31.0044 23.1322 30.9191 23.0564 30.9029 23.0402C29.971 22.1112 28.4545 22.1113 27.5226 23.0402C26.8715 23.6894 26.6617 24.535 26.916 25.4857C27.4406 27.4463 29.7874 29.3508 30.8587 29.6369ZM28.2948 23.8148C28.548 23.5625 28.8803 23.4364 29.2128 23.4364C29.5452 23.4364 29.8777 23.5626 30.1307 23.8148C30.6181 24.3006 31.3816 24.3006 31.8689 23.8148C32.3751 23.3102 33.1986 23.3102 33.7048 23.8148C34.0784 24.1871 34.1807 24.6282 34.027 25.2029C33.6382 26.6562 31.8058 28.1945 30.9998 28.5308C30.1939 28.1945 28.3615 26.6562 27.9726 25.2029C27.8189 24.6283 27.9213 24.1871 28.2948 23.8148Z" fill="url(#paint5_linear)"/>
<path d="M26.3032 30.7955C26.3032 31.0976 26.5482 31.3424 26.8503 31.3424C27.1523 31.3424 27.3971 31.0976 27.3971 30.7955C27.3971 30.4935 27.1522 30.2487 26.8503 30.2487H26.8499C26.5478 30.2487 26.3032 30.4935 26.3032 30.7955Z" fill="url(#paint6_linear)"/>
<defs>
<linearGradient id="paint0_linear" x1="18.0892" y1="-1.91679e-05" x2="62.5952" y2="0.694417" gradientUnits="userSpaceOnUse">
<stop stop-color="#FE413F"/>
<stop offset="1" stop-color="#FFE568"/>
</linearGradient>
<linearGradient id="paint1_linear" x1="56.9131" y1="25.0137" x2="56.8855" y2="28.0213" gradientUnits="userSpaceOnUse">
<stop stop-color="#FE413F"/>
<stop offset="1" stop-color="#FFE568"/>
</linearGradient>
<linearGradient id="paint2_linear" x1="0.999998" y1="26.1168" x2="1.0276" y2="23.1091" gradientUnits="userSpaceOnUse">
<stop stop-color="#FE413F"/>
<stop offset="1" stop-color="#FFE568"/>
</linearGradient>
<linearGradient id="paint3_linear" x1="60.3498" y1="24.3319" x2="49.0211" y2="56.2491" gradientUnits="userSpaceOnUse">
<stop stop-color="#FFE66C"/>
<stop offset="0.871768" stop-color="#FE413F"/>
</linearGradient>
<linearGradient id="paint4_linear" x1="64.286" y1="6.31626" x2="52.9574" y2="38.2334" gradientUnits="userSpaceOnUse">
<stop stop-color="#FFE66C"/>
<stop offset="0.871768" stop-color="#FE413F"/>
</linearGradient>
<linearGradient id="paint5_linear" x1="41.9027" y1="18.181" x2="29.2853" y2="35.0794" gradientUnits="userSpaceOnUse">
<stop stop-color="#FFE66C"/>
<stop offset="0.871768" stop-color="#FE413F"/>
</linearGradient>
<linearGradient id="paint6_linear" x1="28.2738" y1="29.626" x2="26.3292" y2="31.8996" gradientUnits="userSpaceOnUse">
<stop stop-color="#FFE66C"/>
<stop offset="0.871768" stop-color="#FE413F"/>
</linearGradient>
</defs>
</svg>
