<svg width="40" height="40" viewBox="0 0 40 40" fill="none" xmlns="http://www.w3.org/2000/svg">
<path d="M33.3335 13.3333H28.3335V9.99996C28.3335 8.16663 26.8335 6.66663 25.0002 6.66663H15.0002C13.1668 6.66663 11.6668 8.16663 11.6668 9.99996V13.3333H6.66683C4.8335 13.3333 3.3335 14.8333 3.3335 16.6666V33.3333H36.6668V16.6666C36.6668 14.8333 35.1668 13.3333 33.3335 13.3333ZM15.0002 9.99996H25.0002V13.3333H15.0002V9.99996ZM33.3335 30H6.66683V25H10.0002V26.6666H13.3335V25H26.6668V26.6666H30.0002V25H33.3335V30ZM30.0002 21.6666V20H26.6668V21.6666H13.3335V20H10.0002V21.6666H6.66683V16.6666H11.6668H28.3335H33.3335V21.6666H30.0002Z" fill="url(#paint0_linear)"/>
<defs>
<linearGradient id="paint0_linear" x1="63.3815" y1="-8.51398" x2="18.6442" y2="56.8551" gradientUnits="userSpaceOnUse">
<stop stop-color="#FFE66C"/>
<stop offset="0.871768" stop-color="#FE413F"/>
</linearGradient>
</defs>
</svg>
