<svg width="40" height="33" viewBox="0 0 40 33" fill="none" xmlns="http://www.w3.org/2000/svg">
<path d="M31.1879 16.8861C30.8605 16.8698 30.6968 16.9105 30.5985 16.8495C25.5397 13.5349 20.3826 15.5765 15.2338 16.5485C13.0563 16.9593 14.1491 18.3706 14.1082 19.5703C14.9063 19.615 15.5776 19.6476 16.3839 19.6923C16.3839 20.6847 16.3839 21.6648 16.3839 22.8076C15.8313 22.8564 15.2542 22.9052 14.5216 22.9703C14.6321 23.9342 14.7713 24.7801 14.8245 25.6301C14.9882 28.4119 13.0277 30.7423 10.3591 30.9863C7.78057 31.2222 5.46398 29.3595 5.09562 26.655C4.75591 24.1741 4.64131 21.6607 4.19928 19.2043C3.82273 17.1261 3.30293 15.0316 2.513 13.0753C1.33424 10.1512 1.61256 7.49139 3.45437 5.03087C5.46398 2.34259 8.284 1.28924 11.5583 1.88302C14.497 2.4158 17.4644 3.00958 20.268 3.99785C23.5178 5.14474 26.4811 5.1 29.4239 3.31867C29.825 3.07465 30.2916 2.93637 30.7418 2.77369C30.8523 2.73302 30.9996 2.79403 31.192 2.81436C31.1879 7.47105 31.1879 12.1237 31.1879 16.8861ZM21.4304 11.9529C21.4304 10.7612 21.5041 9.67536 21.3936 8.61387C21.3486 8.19904 20.9556 7.56866 20.6077 7.47919C17.1902 6.60479 13.7849 5.55957 10.3018 5.09187C6.56088 4.59163 3.65492 8.79689 5.64817 11.9C7.08478 14.1328 7.12161 16.455 7.4736 18.8098C7.81331 21.0792 8.04252 23.3689 8.27172 25.6545C8.39451 26.8665 8.77924 27.9036 10.2036 27.6839C11.6197 27.4643 11.6402 26.3052 11.4847 25.1421C11.1818 22.8646 10.8994 20.5871 10.6497 18.3014C10.3632 15.6497 11.5051 14.088 14.1696 13.4902C16.5476 12.9574 18.9378 12.4775 21.4304 11.9529ZM27.8481 12.1643C27.8481 10.6392 27.8481 9.19545 27.8481 7.6744C26.7348 7.93062 25.7648 8.15837 24.8112 8.37799C24.8112 9.45981 24.8112 10.4481 24.8112 11.4242C25.8876 11.6885 26.8658 11.9244 27.8481 12.1643Z" fill="url(#paint0_linear)"/>
<path d="M37.6382 8.21119C36.5945 8.21119 35.7145 8.21119 34.6831 8.21119C34.6831 7.21071 34.6831 6.2387 34.6831 5.12842C35.6081 5.12842 36.5863 5.12842 37.6382 5.12842C37.6382 6.15736 37.6382 7.17411 37.6382 8.21119Z" fill="url(#paint1_linear)"/>
<path d="M37.6382 14.7184C36.5945 14.7184 35.7145 14.7184 34.6831 14.7184C34.6831 13.7179 34.6831 12.7459 34.6831 11.6356C35.6081 11.6356 36.5863 11.6356 37.6382 11.6356C37.6382 12.6646 37.6382 13.6813 37.6382 14.7184Z" fill="url(#paint2_linear)"/>
<path d="M21.4304 11.9528C18.9419 12.4775 16.5476 12.9574 14.1696 13.4901C11.5051 14.088 10.3632 15.6497 10.6497 18.3014C10.8953 20.583 11.1818 22.8645 11.4847 25.142C11.6402 26.3052 11.6197 27.4643 10.2036 27.6839C8.77925 27.9035 8.39451 26.8664 8.27172 25.6545C8.04252 23.3688 7.81332 21.0791 7.47361 18.8097C7.12162 16.455 7.08069 14.1327 5.64817 11.9C3.65493 8.79685 6.56498 4.59159 10.3018 5.09183C13.7849 5.55953 17.1902 6.60474 20.6077 7.47914C20.9556 7.56862 21.3486 8.199 21.3936 8.61383C21.5041 9.67531 21.4304 10.7571 21.4304 11.9528ZM10.0562 12.1114C10.7602 11.0947 11.587 10.4074 11.4765 9.92747C11.3332 9.29302 10.4614 8.81718 9.9048 8.27221C9.38909 8.86192 8.56232 9.40283 8.46818 10.0535C8.39861 10.5375 9.27858 11.1598 10.0562 12.1114Z" fill="white"/>
<path d="M27.848 12.1644C26.8616 11.9244 25.8875 11.6845 24.811 11.4242C24.811 10.4481 24.811 9.45984 24.811 8.37803C25.7647 8.15841 26.7347 7.93066 27.848 7.67444C27.848 9.19955 27.848 10.6393 27.848 12.1644Z" fill="white"/>
<path d="M10.0563 12.1114C9.27863 11.1598 8.39865 10.5375 8.46823 10.0536C8.56237 9.40284 9.39323 8.86193 9.90484 8.27222C10.4615 8.81719 11.3374 9.29303 11.4765 9.92748C11.5829 10.4074 10.7603 11.0947 10.0563 12.1114Z" fill="url(#paint3_linear)"/>
<defs>
<linearGradient id="paint0_linear" x1="54.7442" y1="-14.9482" x2="2.70471" y2="46.0974" gradientUnits="userSpaceOnUse">
<stop stop-color="#FFE66C"/>
<stop offset="0.871768" stop-color="#FE413F"/>
</linearGradient>
<linearGradient id="paint1_linear" x1="40.0065" y1="3.37348" x2="34.494" y2="9.55033" gradientUnits="userSpaceOnUse">
<stop stop-color="#FFE66C"/>
<stop offset="0.871768" stop-color="#FE413F"/>
</linearGradient>
<linearGradient id="paint2_linear" x1="40.0065" y1="9.88068" x2="34.494" y2="16.0575" gradientUnits="userSpaceOnUse">
<stop stop-color="#FFE66C"/>
<stop offset="0.871768" stop-color="#FE413F"/>
</linearGradient>
<linearGradient id="paint3_linear" x1="13.9074" y1="6.08665" x2="7.02177" y2="12.4212" gradientUnits="userSpaceOnUse">
<stop stop-color="#FFE66C"/>
<stop offset="0.871768" stop-color="#FE413F"/>
</linearGradient>
</defs>
</svg>
