<svg width="32" height="32" viewBox="0 0 32 32" fill="none" xmlns="http://www.w3.org/2000/svg">
<ellipse cx="15.9998" cy="16" rx="13.3333" ry="13.3333" fill="white"/>
<path d="M16 9.44143C18.1361 9.44143 18.3891 9.44959 19.2327 9.48808C20.0127 9.52365 20.4363 9.65398 20.7182 9.76353C21.0916 9.90866 21.3581 10.082 21.638 10.3619C21.918 10.6419 22.0913 10.9084 22.2365 11.2818C22.346 11.5637 22.4763 11.9873 22.5119 12.7673C22.5504 13.6109 22.5586 13.8639 22.5586 16C22.5586 18.1361 22.5504 18.3891 22.5119 19.2326C22.4763 20.0126 22.346 20.4362 22.2365 20.7181C22.0913 21.0915 21.918 21.358 21.638 21.638C21.3581 21.9179 21.0916 22.0913 20.7182 22.2364C20.4363 22.346 20.0127 22.4763 19.2327 22.5119C18.3892 22.5503 18.1362 22.5585 16 22.5585C13.8638 22.5585 13.6108 22.5503 12.7673 22.5119C11.9873 22.4763 11.5637 22.346 11.2818 22.2364C10.9084 22.0913 10.6419 21.9179 10.362 21.638C10.0821 21.358 9.90867 21.0915 9.76354 20.7181C9.65398 20.4362 9.52366 20.0126 9.48809 19.2326C9.4496 18.3891 9.44144 18.1361 9.44144 16C9.44144 13.8639 9.4496 13.6109 9.48809 12.7673C9.52366 11.9873 9.65398 11.5637 9.76354 11.2818C9.90867 10.9084 10.082 10.6419 10.362 10.362C10.6419 10.082 10.9084 9.90866 11.2818 9.76353C11.5637 9.65398 11.9873 9.52365 12.7673 9.48808C13.6109 9.44959 13.8639 9.44143 16 9.44143ZM16 8C13.8273 8 13.5549 8.00921 12.7016 8.04814C11.8501 8.08698 11.2686 8.22223 10.7597 8.41997C10.2336 8.62442 9.78748 8.89796 9.34271 9.3427C8.89797 9.78748 8.62442 10.2336 8.42001 10.7597C8.22223 11.2685 8.08698 11.8501 8.04814 12.7016C8.00921 13.5549 8 13.8273 8 16C8 18.1726 8.00921 18.4451 8.04814 19.2984C8.08698 20.1499 8.22223 20.7314 8.42001 21.2403C8.62442 21.7663 8.89797 22.2125 9.34271 22.6572C9.78748 23.102 10.2336 23.3755 10.7597 23.5799C11.2686 23.7777 11.8501 23.913 12.7016 23.9518C13.5549 23.9907 13.8273 23.9999 16 23.9999C18.1727 23.9999 18.4451 23.9907 19.2984 23.9518C20.1499 23.913 20.7314 23.7777 21.2403 23.5799C21.7664 23.3755 22.2125 23.102 22.6573 22.6572C23.102 22.2125 23.3756 21.7663 23.58 21.2403C23.7778 20.7314 23.913 20.1499 23.9519 19.2984C23.9908 18.4451 24 18.1726 24 16C24 13.8273 23.9908 13.5549 23.9519 12.7016C23.913 11.8501 23.7778 11.2685 23.58 10.7597C23.3756 10.2336 23.102 9.78748 22.6573 9.3427C22.2125 8.89796 21.7664 8.62442 21.2403 8.41997C20.7314 8.22223 20.1499 8.08698 19.2984 8.04814C18.4451 8.00921 18.1727 8 16 8Z" fill="#838383" fill-opacity="0.9"/>
<path d="M16.0036 11.8956C13.7348 11.8956 11.8955 13.7349 11.8955 16.0037C11.8955 18.2726 13.7348 20.1118 16.0036 20.1118C18.2725 20.1118 20.1117 18.2726 20.1117 16.0037C20.1117 13.7349 18.2725 11.8956 16.0036 11.8956ZM16.0036 18.6704C14.5308 18.6704 13.3369 17.4765 13.3369 16.0037C13.3369 14.531 14.5308 13.3371 16.0036 13.3371C17.4764 13.3371 18.6703 14.531 18.6703 16.0037C18.6703 17.4765 17.4764 18.6704 16.0036 18.6704Z" fill="#838383" fill-opacity="0.9"/>
<path d="M21.234 11.7308C21.234 12.2609 20.8041 12.6907 20.274 12.6907C19.7438 12.6907 19.314 12.2609 19.314 11.7308C19.314 11.2006 19.7438 10.7708 20.274 10.7708C20.8041 10.7708 21.234 11.2006 21.234 11.7308Z" fill="#838383" fill-opacity="0.9"/>
</svg>
