<svg width="38" height="38" viewBox="0 0 38 38" fill="none" xmlns="http://www.w3.org/2000/svg">
<ellipse cx="18.9998" cy="19" rx="15.8333" ry="15.8333" fill="white"/>
<path d="M19 11.2117C21.5366 11.2117 21.8371 11.2214 22.8388 11.2671C23.7651 11.3093 24.2681 11.4641 24.6028 11.5942C25.0463 11.7665 25.3627 11.9724 25.6951 12.3048C26.0276 12.6373 26.2335 12.9537 26.4058 13.3972C26.5359 13.7319 26.6907 14.2349 26.7329 15.1612C26.7786 16.1629 26.7883 16.4634 26.7883 18.9999C26.7883 21.5366 26.7786 21.837 26.7329 22.8388C26.6907 23.765 26.5359 24.268 26.4058 24.6028C26.2335 25.0462 26.0276 25.3627 25.6952 25.6951C25.3627 26.0275 25.0463 26.2334 24.6028 26.4057C24.2681 26.5358 23.7651 26.6906 22.8388 26.7328C21.8372 26.7785 21.5368 26.7882 19 26.7882C16.4632 26.7882 16.1628 26.7785 15.1612 26.7328C14.2349 26.6906 13.7319 26.5358 13.3972 26.4057C12.9537 26.2334 12.6373 26.0275 12.3049 25.6951C11.9724 25.3627 11.7665 25.0462 11.5942 24.6028C11.4641 24.268 11.3093 23.765 11.2671 22.8388C11.2214 21.837 11.2117 21.5366 11.2117 18.9999C11.2117 16.4634 11.2214 16.1629 11.2671 15.1612C11.3093 14.2349 11.4641 13.7319 11.5942 13.3972C11.7665 12.9537 11.9724 12.6373 12.3049 12.3048C12.6373 11.9724 12.9537 11.7665 13.3972 11.5942C13.7319 11.4641 14.2349 11.3093 15.1612 11.2671C16.1629 11.2214 16.4634 11.2117 19 11.2117ZM19 9.5C16.42 9.5 16.0964 9.51094 15.0832 9.55717C14.072 9.60329 13.3814 9.7639 12.7771 9.99872C12.1524 10.2415 11.6226 10.5663 11.0945 11.0945C10.5663 11.6226 10.2415 12.1524 9.99876 12.7771C9.7639 13.3814 9.60329 14.072 9.55717 15.0831C9.51094 16.0964 9.5 16.4199 9.5 18.9999C9.5 21.58 9.51094 21.9035 9.55717 22.9168C9.60329 23.928 9.7639 24.6185 9.99876 25.2228C10.2415 25.8475 10.5663 26.3773 11.0945 26.9055C11.6226 27.4336 12.1524 27.7584 12.7771 28.0012C13.3814 28.236 14.072 28.3966 15.0832 28.4428C16.0964 28.489 16.42 28.4999 19 28.4999C21.58 28.4999 21.9036 28.489 22.9168 28.4428C23.928 28.3966 24.6186 28.236 25.2229 28.0012C25.8476 27.7584 26.3774 27.4336 26.9055 26.9055C27.4337 26.3773 27.7585 25.8475 28.0013 25.2228C28.2361 24.6185 28.3967 23.928 28.4428 22.9168C28.4891 21.9035 28.5 21.58 28.5 18.9999C28.5 16.4199 28.4891 16.0964 28.4428 15.0831C28.3967 14.072 28.2361 13.3814 28.0013 12.7771C27.7585 12.1524 27.4337 11.6226 26.9055 11.0945C26.3774 10.5663 25.8476 10.2415 25.2229 9.99872C24.6186 9.7639 23.928 9.60329 22.9168 9.55717C21.9036 9.51094 21.58 9.5 19 9.5Z" fill="#838383" fill-opacity="0.9"/>
<path d="M19.0044 14.1261C16.3101 14.1261 14.126 16.3102 14.126 19.0044C14.126 21.6987 16.3101 23.8828 19.0044 23.8828C21.6986 23.8828 23.8827 21.6987 23.8827 19.0044C23.8827 16.3102 21.6986 14.1261 19.0044 14.1261ZM19.0044 22.1711C17.2554 22.1711 15.8377 20.7534 15.8377 19.0044C15.8377 17.2556 17.2554 15.8378 19.0044 15.8378C20.7533 15.8378 22.171 17.2556 22.171 19.0044C22.171 20.7534 20.7533 22.1711 19.0044 22.1711Z" fill="#838383" fill-opacity="0.9"/>
<path d="M25.2151 13.9303C25.2151 14.5599 24.7047 15.0703 24.075 15.0703C23.4455 15.0703 22.9351 14.5599 22.9351 13.9303C22.9351 13.3007 23.4455 12.7903 24.075 12.7903C24.7047 12.7903 25.2151 13.3007 25.2151 13.9303Z" fill="#838383" fill-opacity="0.9"/>
</svg>
