<svg width="38" height="38" viewBox="0 0 38 38" fill="none" xmlns="http://www.w3.org/2000/svg">
<ellipse cx="18.9998" cy="19" rx="15.8333" ry="15.8333" fill="white"/>
<path fill-rule="evenodd" clip-rule="evenodd" d="M14.8635 11.3081C14.8635 12.2938 14.113 13.0915 12.9393 13.0915C11.8113 13.0915 11.0608 12.2938 11.084 11.3081C11.0608 10.2745 11.8113 9.5 12.9618 9.5C14.113 9.5 14.841 10.2745 14.8635 11.3081ZM11.1784 25.9818V14.5003H14.7466V25.981H11.1784V25.9818Z" fill="#838383" fill-opacity="0.9"/>
<path fill-rule="evenodd" clip-rule="evenodd" d="M17.6066 18.1646C17.6066 16.7325 17.5594 15.5116 17.5122 14.502H20.6116L20.7763 16.0749H20.8467C21.3164 15.3469 22.4901 14.2443 24.3918 14.2443C26.7392 14.2443 28.5001 15.794 28.5001 19.1735V25.9834H24.9318V19.6207C24.9318 18.1407 24.4157 17.1317 23.1245 17.1317C22.138 17.1317 21.5515 17.8126 21.3171 18.4695C21.2227 18.7046 21.1763 19.0327 21.1763 19.3622V25.9834H17.608V18.1646H17.6066Z" fill="#838383" fill-opacity="0.9"/>
</svg>
