<svg width="32" height="32" viewBox="0 0 32 32" fill="none" xmlns="http://www.w3.org/2000/svg">
<ellipse cx="15.9998" cy="16" rx="13.3333" ry="13.3333" fill="white"/>
<path fill-rule="evenodd" clip-rule="evenodd" d="M12.5167 9.52259C12.5167 10.3527 11.8846 11.0244 10.8963 11.0244C9.9464 11.0244 9.31438 10.3527 9.33394 9.52259C9.31438 8.65219 9.94638 8 10.9152 8C11.8846 8 12.4977 8.65219 12.5167 9.52259ZM9.4134 21.8794V12.2108H12.4182V21.8788H9.4134V21.8794Z" fill="#838383" fill-opacity="0.9"/>
<path fill-rule="evenodd" clip-rule="evenodd" d="M14.8265 15.2965C14.8265 14.0906 14.7868 13.0625 14.7471 12.2122H17.3571L17.4958 13.5368H17.5551C17.9506 12.9237 18.9389 11.9952 20.5404 11.9952C22.5171 11.9952 24 13.3002 24 16.1462V21.8808H20.9952V16.5227C20.9952 15.2764 20.5606 14.4267 19.4732 14.4267C18.6425 14.4267 18.1486 15.0001 17.9512 15.5533C17.8717 15.7513 17.8326 16.0276 17.8326 16.3051V21.8808H14.8277V15.2965H14.8265Z" fill="#838383" fill-opacity="0.9"/>
</svg>
