<svg width="40" height="40" viewBox="0 0 40 40" fill="none" xmlns="http://www.w3.org/2000/svg">
<path d="M36.6668 16.6666V9.99996C36.6668 8.16663 35.1668 6.66663 33.3335 6.66663H6.66683C4.8335 6.66663 3.35016 8.16663 3.35016 9.99996V16.6666C5.1835 16.6666 6.66683 18.1666 6.66683 20C6.66683 21.8333 5.1835 23.3333 3.3335 23.3333V30C3.3335 31.8333 4.8335 33.3333 6.66683 33.3333H33.3335C35.1668 33.3333 36.6668 31.8333 36.6668 30V23.3333C34.8335 23.3333 33.3335 21.8333 33.3335 20C33.3335 18.1666 34.8335 16.6666 36.6668 16.6666ZM33.3335 14.2333C31.3502 15.3833 30.0002 17.55 30.0002 20C30.0002 22.45 31.3502 24.6166 33.3335 25.7666V30H6.66683V25.7666C8.65016 24.6166 10.0002 22.45 10.0002 20C10.0002 17.5333 8.66683 15.3833 6.6835 14.2333L6.66683 9.99996H33.3335V14.2333ZM15.1168 26.6666L20.0002 23.5333L24.8835 26.6666L23.4002 21.0666L27.8835 17.4L22.1002 17.05L20.0002 11.6666L17.8835 17.0333L12.1002 17.3833L16.5835 21.05L15.1168 26.6666Z" fill="#FE413F" fill-opacity="0.31"/>
</svg>
