<svg width="42" height="42" viewBox="0 0 42 42" fill="none" xmlns="http://www.w3.org/2000/svg">
<path fill-rule="evenodd" clip-rule="evenodd" d="M21 42C32.598 42 42 32.598 42 21C42 9.40202 32.598 0 21 0C9.40202 0 0 9.40202 0 21C0 32.598 9.40202 42 21 42Z" fill="#FE413F"/>
<path d="M22.3125 28.2187C19.7502 28.2187 17.535 26.7691 16.4325 24.6458H22.3125V22.6041H15.7587C15.7077 22.2673 15.6771 21.9304 15.6771 21.5833C15.6771 21.2362 15.7077 20.8994 15.7587 20.5625H22.3125V18.5208H16.4325C17.535 16.3975 19.7604 14.9479 22.3125 14.9479C23.956 14.9479 25.4669 15.5502 26.6306 16.5506L28.4375 14.7437C26.8144 13.2839 24.6604 12.3958 22.3125 12.3958C18.3108 12.3958 14.9217 14.9581 13.6558 18.5208H10.0625V20.5625H13.1862C13.1454 20.8994 13.125 21.2362 13.125 21.5833C13.125 21.9304 13.1454 22.2673 13.1862 22.6041H10.0625V24.6458H13.6558C14.9217 28.2085 18.3108 30.7708 22.3125 30.7708C24.6706 30.7708 26.8144 29.8827 28.4375 28.4229L26.6204 26.616C25.4669 27.6164 23.9663 28.2187 22.3125 28.2187Z" fill="white"/>
</svg>
