<svg width="55" height="55" viewBox="0 0 55 55" fill="none" xmlns="http://www.w3.org/2000/svg">
<path fill-rule="evenodd" clip-rule="evenodd" d="M27.5 55C42.6878 55 55 42.6878 55 27.5C55 12.3122 42.6878 0 27.5 0C12.3122 0 0 12.3122 0 27.5C0 42.6878 12.3122 55 27.5 55Z" fill="#FE413F"/>
<path d="M29.2184 36.9532C25.863 36.9532 22.9622 35.0549 21.5184 32.2744H29.2184V29.6008H20.6361C20.5693 29.1596 20.5292 28.7185 20.5292 28.264C20.5292 27.8095 20.5693 27.3683 20.6361 26.9272H29.2184V24.2536H21.5184C22.9622 21.473 25.8764 19.5747 29.2184 19.5747C31.3707 19.5747 33.3492 20.3635 34.8731 21.6735L37.2393 19.3074C35.1137 17.3957 32.2931 16.2327 29.2184 16.2327C23.9781 16.2327 19.54 19.5881 17.8823 24.2536H13.1768V26.9272H17.2674C17.2139 27.3683 17.1872 27.8095 17.1872 28.264C17.1872 28.7185 17.2139 29.1596 17.2674 29.6008H13.1768V32.2744H17.8823C19.54 36.9398 23.9781 40.2952 29.2184 40.2952C32.3064 40.2952 35.1137 39.1322 37.2393 37.2206L34.8597 34.8544C33.3492 36.1645 31.3841 36.9532 29.2184 36.9532Z" fill="white"/>
</svg>
