<svg width="39" height="39" viewBox="0 0 39 39" fill="none" xmlns="http://www.w3.org/2000/svg">
<path d="M7.3125 19.0125C9.55616 19.0125 11.375 17.2391 11.375 15.0515C11.375 12.8639 9.55616 11.0906 7.3125 11.0906C5.06884 11.0906 3.25 12.8639 3.25 15.0515C3.25 17.2391 5.06884 19.0125 7.3125 19.0125Z" fill="#FE413F" fill-opacity="0.31"/>
<path d="M14.625 12.675C16.8687 12.675 18.6875 10.9017 18.6875 8.71411C18.6875 6.52655 16.8687 4.75317 14.625 4.75317C12.3813 4.75317 10.5625 6.52655 10.5625 8.71411C10.5625 10.9017 12.3813 12.675 14.625 12.675Z" fill="#FE413F" fill-opacity="0.31"/>
<path d="M24.375 12.675C26.6187 12.675 28.4375 10.9017 28.4375 8.71411C28.4375 6.52655 26.6187 4.75317 24.375 4.75317C22.1313 4.75317 20.3125 6.52655 20.3125 8.71411C20.3125 10.9017 22.1313 12.675 24.375 12.675Z" fill="#FE413F" fill-opacity="0.31"/>
<path d="M31.6875 19.0125C33.9312 19.0125 35.75 17.2391 35.75 15.0515C35.75 12.8639 33.9312 11.0906 31.6875 11.0906C29.4438 11.0906 27.625 12.8639 27.625 15.0515C27.625 17.2391 29.4438 19.0125 31.6875 19.0125Z" fill="#FE413F" fill-opacity="0.31"/>
<path d="M28.1773 23.5439C26.7636 21.9278 25.5773 20.5494 24.1473 18.9333C23.3998 18.0778 22.4411 17.2222 21.3036 16.842C21.1248 16.7786 20.9461 16.731 20.7673 16.6994C20.3611 16.636 19.9223 16.636 19.4998 16.636C19.0773 16.636 18.6386 16.636 18.2161 16.7152C18.0373 16.7469 17.8586 16.7944 17.6798 16.8578C16.5423 17.238 15.5998 18.0936 14.8361 18.9492C13.4223 20.5652 12.2361 21.9436 10.8061 23.5597C8.67731 25.6352 6.06106 27.9326 6.54856 31.1489C7.01981 32.7649 8.20606 34.3651 10.3348 34.8246C11.5211 35.0623 15.3073 34.1275 19.3373 34.1275H19.6298C23.6598 34.1275 27.4461 35.0464 28.6323 34.8246C30.7611 34.3651 31.9473 32.7491 32.4186 31.1489C32.9223 27.9167 30.3061 25.6194 28.1773 23.5439Z" fill="#FE413F" fill-opacity="0.31"/>
</svg>
