<svg width="40" height="40" viewBox="0 0 40 40" fill="none" xmlns="http://www.w3.org/2000/svg">
<path d="M31.6335 28.3334H3.3335V31.6667H36.6668V28.3334H31.6335ZM35.0002 26.6667C34.5502 19.8834 29.5835 14.3334 23.0668 12.9834C23.2335 12.5834 23.3335 12.1334 23.3335 11.6667C23.3335 9.83337 21.8335 8.33337 20.0002 8.33337C18.1668 8.33337 16.6668 9.83337 16.6668 11.6667C16.6668 12.1334 16.7668 12.5834 16.9335 12.9834C10.4168 14.3334 5.45016 19.8834 5.00016 26.6667H35.0002ZM20.0002 15.9667C24.9168 15.9667 29.1168 19.0167 30.8335 23.3167H9.16683C10.8835 19.0167 15.0835 15.9667 20.0002 15.9667Z" fill="#FE413F" fill-opacity="0.31"/>
</svg>
