<svg width="40" height="40" viewBox="0 0 40 40" fill="none" xmlns="http://www.w3.org/2000/svg">
<path d="M32.5336 4.15001C28.6336 0.250011 21.5002 1.03334 16.6169 5.91668C13.9502 8.58334 12.4169 12.3667 12.3836 15.0167C12.3502 17.65 12.8169 21.5 10.1336 24.1833L3.06689 31.25L5.43356 33.6167L12.5002 26.55C15.1836 23.8667 19.0336 24.3333 21.6669 24.3C24.3002 24.2667 28.1002 22.7333 30.7669 20.0667C35.6336 15.1833 36.4336 8.05001 32.5336 4.15001ZM17.2002 19.4667C14.6502 16.9167 15.4502 11.7833 18.9669 8.26668C22.4836 4.75001 27.6002 3.95001 30.1669 6.50001C32.7169 9.05001 31.9169 14.1833 28.4002 17.7C24.8836 21.2167 19.7669 22.0167 17.2002 19.4667Z" fill="url(#paint0_linear)"/>
<path d="M30.0002 28.3333C30.8835 28.3333 31.7335 28.6833 32.3502 29.3167C33.6502 30.6167 33.6502 32.7333 32.3502 34.0333C31.7335 34.65 30.8835 35 30.0002 35C29.1168 35 28.2668 34.65 27.6502 34.0167C26.3502 32.7167 26.3502 30.6 27.6502 29.3C28.2668 28.6833 29.1168 28.3333 30.0002 28.3333ZM30.0002 25C28.3002 25 26.5835 25.65 25.2835 26.95C22.6835 29.55 22.6835 33.7667 25.2835 36.3833C26.5835 37.6833 28.3002 38.3333 30.0002 38.3333C31.7002 38.3333 33.4168 37.6833 34.7168 36.3833C37.3168 33.7833 37.3168 29.5667 34.7168 26.95C33.4168 25.65 31.7002 25 30.0002 25Z" fill="url(#paint1_linear)"/>
<defs>
<linearGradient id="paint0_linear" x1="60.6068" y1="-16.5157" x2="3.80358" y2="49.8729" gradientUnits="userSpaceOnUse">
<stop stop-color="#FFE66C"/>
<stop offset="0.871768" stop-color="#FE413F"/>
</linearGradient>
<linearGradient id="paint1_linear" x1="47.3527" y1="17.4097" x2="23.6455" y2="45.122" gradientUnits="userSpaceOnUse">
<stop stop-color="#FFE66C"/>
<stop offset="0.871768" stop-color="#FE413F"/>
</linearGradient>
</defs>
</svg>
