<svg width="32" height="32" viewBox="0 0 32 32" fill="none" xmlns="http://www.w3.org/2000/svg">
<ellipse cx="15.9998" cy="16" rx="13.3333" ry="13.3333" fill="white"/>
<path fill-rule="evenodd" clip-rule="evenodd" d="M24 10.8725C23.4118 11.1338 22.7787 11.3098 22.1148 11.3892C22.7926 10.9829 23.3131 10.3397 23.5579 9.57336C22.9243 9.94986 22.2209 10.2224 21.4738 10.3701C20.8749 9.73228 20.0211 9.33337 19.0777 9.33337C17.265 9.33337 15.7952 10.8031 15.7952 12.6158C15.7952 12.8729 15.8245 13.1235 15.8805 13.364C13.1522 13.2275 10.7337 11.9204 9.11459 9.9344C8.83194 10.4192 8.67036 10.9829 8.67036 11.5844C8.67036 12.723 9.24898 13.7278 10.1305 14.3165C9.59189 14.2994 9.08633 14.1517 8.64316 13.9059V13.9469C8.64316 15.5378 9.77535 16.8641 11.276 17.1665C11.0009 17.2411 10.7108 17.2816 10.4116 17.2816C10.1999 17.2816 9.994 17.2608 9.79348 17.2224C10.2111 18.5264 11.4238 19.4756 12.8599 19.5023C11.7368 20.3822 10.3214 20.9075 8.78341 20.9075C8.51783 20.9075 8.25652 20.8921 8 20.8611C9.4527 21.7923 11.1779 22.3362 13.0317 22.3362C19.0691 22.3362 22.3708 17.3344 22.3708 12.9971C22.3708 12.8547 22.3681 12.7129 22.3612 12.5726C23.0033 12.1087 23.56 11.5306 24 10.8725Z" fill="#838383" fill-opacity="0.9"/>
</svg>
