<svg width="38" height="38" viewBox="0 0 38 38" fill="none" xmlns="http://www.w3.org/2000/svg">
<ellipse cx="18.9998" cy="19" rx="15.8333" ry="15.8333" fill="white"/>
<path fill-rule="evenodd" clip-rule="evenodd" d="M28.5 12.9111C27.8015 13.2214 27.0498 13.4303 26.2613 13.5247C27.0662 13.0421 27.6843 12.2784 27.975 11.3684C27.2227 11.8155 26.3873 12.1391 25.5001 12.3145C24.7889 11.5571 23.775 11.0834 22.6547 11.0834C20.5022 11.0834 18.7568 12.8287 18.7568 14.9813C18.7568 15.2865 18.7916 15.5842 18.8581 15.8698C15.6182 15.7077 12.7463 14.1555 10.8236 11.7971C10.4879 12.3728 10.296 13.0421 10.296 13.7565C10.296 15.1086 10.9832 16.3017 12.03 17.0009C11.3904 16.9806 10.79 16.8052 10.2637 16.5132V16.562C10.2637 18.4511 11.6082 20.0261 13.3903 20.3852C13.0635 20.4738 12.719 20.5219 12.3637 20.5219C12.1123 20.5219 11.8679 20.4972 11.6298 20.4516C12.1256 22 13.5657 23.1273 15.2712 23.159C13.9375 24.2039 12.2567 24.8277 10.4303 24.8277C10.1149 24.8277 9.80461 24.8093 9.5 24.7726C11.2251 25.8783 13.2738 26.5243 15.4751 26.5243C22.6446 26.5243 26.5653 20.5846 26.5653 15.4341C26.5653 15.265 26.5621 15.0965 26.5539 14.93C27.3164 14.379 27.9775 13.6925 28.5 12.9111Z" fill="#838383" fill-opacity="0.9"/>
</svg>
