<svg width="20" height="21" viewBox="0 0 20 21" fill="none" xmlns="http://www.w3.org/2000/svg">
<path fill-rule="evenodd" clip-rule="evenodd" d="M17.0582 0.1C16.9812 -0.0333333 16.7888 -0.0333334 16.7118 0.1L14.0271 4.75C13.9501 4.88333 14.0463 5.05 14.2003 5.05H15.385V20.6C15.385 20.7105 15.4745 20.8 15.585 20.8H18.185C18.2954 20.8 18.385 20.7105 18.385 20.6V5.05H19.5697C19.7236 5.05 19.8198 4.88333 19.7429 4.75L17.0582 0.1ZM10.0582 4.1C9.9812 3.96667 9.78875 3.96667 9.71177 4.1L7.02709 8.75C6.95011 8.88333 7.04634 9.05 7.2003 9.05H8.38498V20.6C8.38498 20.7105 8.47452 20.8 8.58498 20.8H11.185C11.2954 20.8 11.385 20.7105 11.385 20.6V9.05H12.5697C12.7236 9.05 12.8198 8.88333 12.7429 8.75L10.0582 4.1ZM3.05818 9.1C2.9812 8.96667 2.78875 8.96667 2.71177 9.1L0.0270933 13.75C-0.0498867 13.8833 0.0463383 14.05 0.200298 14.05H1.38498V20.6C1.38498 20.7105 1.47452 20.8 1.58498 20.8H4.18498C4.29543 20.8 4.38498 20.7105 4.38498 20.6V14.05H5.56966C5.72362 14.05 5.81984 13.8833 5.74286 13.75L3.05818 9.1Z" fill="white"/>
</svg>
