<svg width="37" height="25" viewBox="0 0 37 25" fill="none" xmlns="http://www.w3.org/2000/svg">
<path d="M32.375 7.70833V4.625C32.375 2.08125 30.2938 0 27.75 0H9.25C6.70625 0 4.625 2.08125 4.625 4.625V7.70833C2.08125 7.70833 0 9.78958 0 12.3333V20.0417C0 22.5854 2.08125 24.6667 4.625 24.6667H32.375C34.9188 24.6667 37 22.5854 37 20.0417V12.3333C37 9.78958 34.9188 7.70833 32.375 7.70833ZM7.70833 4.625C7.70833 3.77708 8.40208 3.08333 9.25 3.08333H27.75C28.5979 3.08333 29.2917 3.77708 29.2917 4.625V8.91083C28.3512 9.75875 27.75 10.9767 27.75 12.3333V15.4167H9.25V12.3333C9.25 10.9767 8.64875 9.75875 7.70833 8.91083V4.625ZM33.9167 20.0417C33.9167 20.8896 33.2229 21.5833 32.375 21.5833H4.625C3.77708 21.5833 3.08333 20.8896 3.08333 20.0417V12.3333C3.08333 11.4854 3.77708 10.7917 4.625 10.7917C5.47292 10.7917 6.16667 11.4854 6.16667 12.3333V18.5H30.8333V12.3333C30.8333 11.4854 31.5271 10.7917 32.375 10.7917C33.2229 10.7917 33.9167 11.4854 33.9167 12.3333V20.0417Z" fill="url(#paint0_linear)"/>
<defs>
<linearGradient id="paint0_linear" x1="66.6533" y1="-14.0421" x2="28.4442" y2="52.9541" gradientUnits="userSpaceOnUse">
<stop stop-color="#FFE66C"/>
<stop offset="0.871768" stop-color="#FE413F"/>
</linearGradient>
</defs>
</svg>
