<svg width="318" height="266" viewBox="0 0 318 266" fill="none" xmlns="http://www.w3.org/2000/svg">
<rect width="318" height="266" fill="white"/>
<path opacity="0.5" d="M74.0643 173.052C55.51 166.019 34.2954 160.065 16.9603 170.172C14.7632 171.453 12.5983 173.066 11.4146 175.466C8.28787 181.779 13.2578 189.967 10.8355 196.64C8.41332 203.313 -0.702995 206.673 0.0432954 213.801C0.239518 215.665 1.15951 217.352 2.24356 218.806C9.03416 227.907 21.4831 228.828 32.0051 226.569C42.5271 224.311 52.8176 219.628 63.5294 220.217C73.8231 220.799 83.2932 226.216 92.7248 230.776C108.625 238.483 127.196 244.013 143.083 236.267C150.363 232.717 156.381 226.672 163.349 222.451C172.739 216.815 183.532 214.643 194.133 216.254C201.21 217.348 207.966 220.101 214.891 221.999C230.621 226.308 247.04 226.167 263.249 225.998C266.266 225.966 269.332 225.927 272.224 224.981C276.505 223.57 280.037 220.319 283.437 217.14C287.905 212.965 292.612 208.377 294.053 202.135C295.754 194.724 292.232 186.847 287.008 181.811C281.784 176.775 275.106 174.022 268.589 171.369C266.98 170.719 265.263 170.059 263.616 170.55C262.535 170.875 261.624 171.665 260.817 172.516C256.191 177.4 252.283 185.661 245.975 184.334C243.723 183.861 241.88 182.143 240.098 180.555C230.583 172.085 217.783 165.546 206.299 170.225C197.9 173.648 191.972 182.439 183.46 185.541C177.406 187.75 170.828 186.794 164.459 187.225C155.194 187.846 146.178 191.438 136.901 191.219C113.245 190.662 93.5354 165.846 69.9758 168.21C68.1294 168.394 66.1157 168.86 64.9834 170.462" fill="#FE413F" fill-opacity="0.5"/>
<path d="M230.108 56H60.1126C55.5782 56 51.9023 59.6759 51.9023 64.2103V163.563C51.9023 168.098 55.5782 171.774 60.1126 171.774H230.108C234.642 171.774 238.318 168.098 238.318 163.563V64.2103C238.318 59.6759 234.642 56 230.108 56Z" fill="#535461"/>
<path d="M234.001 72.8759H55.8271V167.457H234.001V72.8759Z" fill="white"/>
<path d="M144.916 66.2045C145.784 66.2045 146.487 65.5013 146.487 64.6337C146.487 63.7662 145.784 63.063 144.916 63.063C144.049 63.063 143.346 63.7662 143.346 64.6337C143.346 65.5013 144.049 66.2045 144.916 66.2045Z" fill="white"/>
<path d="M172.424 167.651L166.303 173.93H123.148L117.617 167.651H29.7282C29.2077 167.651 28.7085 167.858 28.3405 168.226C27.9724 168.594 27.7656 169.093 27.7656 169.613V171.195C27.7656 174.106 28.9222 176.898 30.9809 178.957C33.0396 181.016 35.8318 182.172 38.7433 182.172H250.693C252.135 182.172 253.563 181.888 254.894 181.337C256.226 180.785 257.436 179.976 258.456 178.957C259.475 177.938 260.284 176.728 260.835 175.396C261.387 174.064 261.671 172.636 261.671 171.195V169.613C261.671 169.093 261.464 168.594 261.096 168.226C260.728 167.858 260.229 167.651 259.709 167.651H172.424Z" fill="#535461"/>
<path d="M78.5908 78.7635V159.215H211.629" stroke="#535461" stroke-width="2" stroke-miterlimit="10"/>
<path opacity="0.5" d="M104.098 134.884H90.3633V156.077H104.098V134.884Z" fill="#FE413F"/>
<path opacity="0.7" d="M127.645 116.045H113.91V156.077H127.645V116.045Z" fill="#FE413F"/>
<path opacity="0.5" d="M151.192 127.425H137.458V156.073H151.192V127.425Z" fill="#FE413F"/>
<path opacity="0.8" d="M174.739 109.766H161.005V156.077H174.739V109.766Z" fill="#FE413F"/>
<path d="M198.286 93.2816H184.552V156.073H198.286V93.2816Z" fill="#FE413F"/>
<path d="M97.0342 121.933L120.973 100.348L144.521 120.754L167.676 96.0315L191.223 86.2186" stroke="#535461" stroke-width="2" stroke-miterlimit="10"/>
<path d="M97.0343 124.679C98.5509 124.679 99.7804 123.45 99.7804 121.933C99.7804 120.416 98.5509 119.187 97.0343 119.187C95.5176 119.187 94.2881 120.416 94.2881 121.933C94.2881 123.45 95.5176 124.679 97.0343 124.679Z" fill="#FE413F"/>
<path d="M144.129 123.109C145.646 123.109 146.875 121.879 146.875 120.362C146.875 118.846 145.646 117.616 144.129 117.616C142.612 117.616 141.383 118.846 141.383 120.362C141.383 121.879 142.612 123.109 144.129 123.109Z" fill="#FE413F"/>
<path d="M168.068 98.7775C169.585 98.7775 170.815 97.548 170.815 96.0313C170.815 94.5147 169.585 93.2852 168.068 93.2852C166.552 93.2852 165.322 94.5147 165.322 96.0313C165.322 97.548 166.552 98.7775 168.068 98.7775Z" fill="#FE413F"/>
<path d="M120.974 102.699C122.49 102.699 123.72 101.47 123.72 99.953C123.72 98.4364 122.49 97.2068 120.974 97.2068C119.457 97.2068 118.228 98.4364 118.228 99.953C118.228 101.47 119.457 102.699 120.974 102.699Z" fill="#FE413F"/>
<path d="M191.224 88.9647C192.74 88.9647 193.97 87.7351 193.97 86.2185C193.97 84.7018 192.74 83.4723 191.224 83.4723C189.707 83.4723 188.478 84.7018 188.478 86.2185C188.478 87.7351 189.707 88.9647 191.224 88.9647Z" fill="#FE413F"/>
<path d="M113.556 169.848L76.3027 177.699C75.2261 177.925 74.1039 177.714 73.1824 177.114C72.2609 176.513 71.6153 175.571 71.3873 174.496L64.9946 144.17C64.769 143.094 64.9795 141.972 65.5802 141.05C66.1809 140.129 67.1225 139.483 68.1986 139.255L105.452 131.404C106.529 131.178 107.651 131.389 108.572 131.989C109.494 132.59 110.139 133.531 110.368 134.607L116.76 164.933C116.986 166.009 116.775 167.131 116.175 168.053C115.574 168.974 114.632 169.62 113.556 169.848Z" fill="white"/>
<path d="M113.556 169.848L76.3027 177.699C75.2261 177.925 74.1039 177.714 73.1824 177.114C72.2609 176.513 71.6153 175.571 71.3873 174.496L64.9946 144.17C64.769 143.094 64.9795 141.972 65.5802 141.05C66.1809 140.129 67.1225 139.483 68.1986 139.255L105.452 131.404C106.529 131.178 107.651 131.389 108.572 131.989C109.494 132.59 110.139 133.531 110.368 134.607L116.76 164.933C116.986 166.009 116.775 167.131 116.175 168.053C115.574 168.974 114.632 169.62 113.556 169.848ZM68.2993 139.733C67.3498 139.934 66.5189 140.504 65.9889 141.317C65.4589 142.13 65.2731 143.12 65.4722 144.07L71.8649 174.395C72.0661 175.344 72.6358 176.175 73.4489 176.705C74.2619 177.235 75.2521 177.421 76.202 177.222L113.456 169.37C114.405 169.169 115.236 168.599 115.766 167.786C116.296 166.973 116.482 165.983 116.283 165.033L109.89 134.708C109.689 133.759 109.119 132.928 108.306 132.398C107.493 131.868 106.503 131.682 105.553 131.881L68.2993 139.733Z" fill="#3F3D56"/>
<path d="M103.138 141.403L84.3363 145.366C84.1718 145.404 83.9989 145.378 83.8526 145.294C83.7063 145.209 83.5975 145.073 83.5482 144.911C83.5256 144.827 83.5205 144.739 83.5331 144.652C83.5456 144.566 83.5757 144.483 83.6213 144.409C83.667 144.335 83.7273 144.271 83.7985 144.22C83.8698 144.17 83.9506 144.135 84.0359 144.117L103.175 140.083C103.922 140.504 103.686 141.288 103.137 141.403L103.138 141.403Z" fill="#CCCCCC"/>
<path d="M103.833 144.701L85.0316 148.663C84.8671 148.701 84.6942 148.676 84.5479 148.591C84.4016 148.507 84.2928 148.37 84.2435 148.209C84.221 148.124 84.2158 148.036 84.2284 147.95C84.241 147.864 84.271 147.781 84.3166 147.707C84.3623 147.632 84.4226 147.568 84.4939 147.518C84.5651 147.468 84.6459 147.432 84.7313 147.414L103.87 143.381C104.617 143.802 104.381 144.585 103.833 144.701L103.833 144.701Z" fill="#CCCCCC"/>
<path d="M81.3624 151.397L75.6244 152.607C75.437 152.646 75.2417 152.609 75.0813 152.505C74.9209 152.4 74.8085 152.236 74.7688 152.049L73.3416 145.278C73.3023 145.091 73.3389 144.896 73.4435 144.735C73.548 144.575 73.7119 144.463 73.8993 144.423L79.6372 143.214C79.8246 143.174 80.0199 143.211 80.1803 143.315C80.3407 143.42 80.4531 143.584 80.4928 143.771L81.9201 150.542C81.9594 150.729 81.9227 150.924 81.8182 151.085C81.7136 151.245 81.5497 151.358 81.3624 151.397V151.397Z" fill="#CCCCCC"/>
<path d="M105.202 151.464L76.5072 157.512C76.3427 157.55 76.1698 157.524 76.0235 157.44C75.8772 157.355 75.7684 157.218 75.7191 157.057C75.6965 156.973 75.6914 156.885 75.704 156.798C75.7165 156.712 75.7466 156.629 75.7922 156.555C75.8378 156.481 75.8982 156.417 75.9694 156.366C76.0407 156.316 76.1215 156.281 76.2069 156.263L105.239 150.144C105.986 150.565 105.75 151.348 105.202 151.464Z" fill="#CCCCCC"/>
<path d="M105.897 154.762L77.2025 160.81C77.038 160.848 76.8651 160.823 76.7188 160.738C76.5725 160.654 76.4637 160.517 76.4144 160.356C76.3919 160.271 76.3867 160.183 76.3993 160.097C76.4119 160.011 76.4419 159.928 76.4875 159.854C76.5332 159.779 76.5935 159.715 76.6648 159.665C76.736 159.615 76.8168 159.579 76.9022 159.561L105.934 153.443C106.681 153.864 106.445 154.647 105.897 154.762Z" fill="#CCCCCC"/>
<path d="M106.591 158.059L77.8968 164.106C77.7323 164.145 77.5594 164.119 77.4131 164.035C77.2668 163.95 77.158 163.813 77.1087 163.652C77.0862 163.568 77.081 163.48 77.0936 163.393C77.1062 163.307 77.1362 163.224 77.1819 163.15C77.2275 163.076 77.2878 163.011 77.3591 162.961C77.4304 162.911 77.5112 162.876 77.5965 162.858L106.628 156.739C107.376 157.16 107.139 157.943 106.591 158.059Z" fill="#CCCCCC"/>
<path d="M107.287 161.357L78.5922 167.405C78.4276 167.443 78.2547 167.417 78.1084 167.333C77.9621 167.248 77.8534 167.112 77.8041 166.95C77.7815 166.866 77.7764 166.778 77.7889 166.692C77.8015 166.605 77.8315 166.522 77.8772 166.448C77.9228 166.374 77.9831 166.31 78.0544 166.259C78.1257 166.209 78.2065 166.174 78.2918 166.156L107.324 160.037C108.071 160.458 107.835 161.241 107.287 161.357Z" fill="#CCCCCC"/>
<path d="M107.982 164.654L79.2875 170.701C79.1229 170.739 78.9501 170.714 78.8038 170.629C78.6575 170.545 78.5487 170.408 78.4994 170.247C78.4768 170.162 78.4717 170.074 78.4842 169.988C78.4968 169.902 78.5268 169.819 78.5725 169.745C78.6181 169.67 78.6784 169.606 78.7497 169.556C78.821 169.506 78.9018 169.471 78.9871 169.453L108.019 163.334C108.766 163.755 108.53 164.538 107.982 164.654Z" fill="#CCCCCC"/>
<path d="M113.047 149.557C112.982 149.675 112.926 149.798 112.88 149.925L101.133 152.84L99.0898 150.726L95.4961 153.393L98.7501 157.487C99.013 157.817 99.3761 158.054 99.7848 158.161C100.194 158.268 100.626 158.239 101.017 158.079L113.764 152.871C114.183 153.179 114.686 153.353 115.206 153.368C115.726 153.384 116.238 153.241 116.675 152.958C117.111 152.676 117.452 152.267 117.65 151.786C117.849 151.305 117.896 150.775 117.786 150.267C117.677 149.758 117.414 149.295 117.035 148.94C116.655 148.584 116.177 148.352 115.662 148.275C115.148 148.198 114.622 148.279 114.155 148.508C113.688 148.737 113.301 149.103 113.047 149.557L113.047 149.557Z" fill="#FFB8B8"/>
<path d="M72.9496 175.495C73.3158 175.382 73.6528 175.19 73.9368 174.932C74.2208 174.675 74.4448 174.358 74.5933 174.005C74.7417 173.652 74.8108 173.27 74.7957 172.887C74.7807 172.504 74.6819 172.129 74.5062 171.789L82.5903 149.321L76.9762 148.327L70.7952 170.724C70.2424 171.057 69.831 171.581 69.639 172.197C69.4469 172.813 69.4875 173.478 69.7531 174.066C70.0187 174.654 70.4907 175.124 71.0799 175.388C71.669 175.651 72.3343 175.689 72.9496 175.495Z" fill="#FFB8B8"/>
<path d="M81.564 153.31L76.0209 151.183C75.8632 151.122 75.7204 151.028 75.6022 150.908C75.484 150.787 75.3932 150.642 75.336 150.483C75.2788 150.324 75.2566 150.155 75.2707 149.986C75.2849 149.818 75.3352 149.655 75.4182 149.508L78.3261 144.352C78.6404 143.548 79.2611 142.9 80.0522 142.552C80.8432 142.204 81.74 142.184 82.546 142.496C83.3519 142.808 84.0013 143.426 84.3517 144.216C84.7021 145.006 84.7249 145.903 84.4152 146.71L83.1325 152.468C83.0958 152.633 83.0239 152.788 82.9218 152.923C82.8197 153.057 82.6898 153.168 82.541 153.248C82.3921 153.328 82.2278 153.375 82.0592 153.385C81.8906 153.396 81.7217 153.37 81.564 153.31V153.31Z" fill="#FE413F"/>
<path d="M94.0757 217.676L97.0678 217.676L98.4911 206.136L94.0752 206.136L94.0757 217.676Z" fill="#FFB8B8"/>
<path d="M93.3115 216.699L99.2039 216.699H99.2041C99.6972 216.699 100.186 216.796 100.641 216.985C101.097 217.173 101.511 217.45 101.859 217.798C102.208 218.147 102.485 218.561 102.673 219.017C102.862 219.472 102.959 219.96 102.959 220.453V220.575L93.3117 220.576L93.3115 216.699Z" fill="#2F2E41"/>
<path d="M77.2358 217.676L80.2279 217.676L81.6512 206.136L77.2354 206.136L77.2358 217.676Z" fill="#FFB8B8"/>
<path d="M76.4727 216.699L82.365 216.699H82.3652C82.8584 216.699 83.3467 216.796 83.8023 216.985C84.2579 217.173 84.6718 217.45 85.0205 217.798C85.3692 218.147 85.6458 218.561 85.8345 219.017C86.0232 219.472 86.1204 219.96 86.1203 220.453V220.575L76.4728 220.576L76.4727 216.699Z" fill="#2F2E41"/>
<path d="M80.3719 213.031H76.5855C76.4369 213.031 76.2899 213.001 76.1532 212.943C76.0166 212.884 75.8933 212.799 75.7908 212.691C75.6882 212.583 75.6085 212.456 75.5566 212.317C75.5046 212.178 75.4815 212.029 75.4885 211.881L77.2871 173.244L77.4004 173.24L95.6846 172.764L99.2625 211.423C99.2762 211.568 99.261 211.715 99.2178 211.854C99.1745 211.993 99.104 212.122 99.0104 212.233C98.9169 212.345 98.802 212.436 98.6726 212.503C98.5433 212.57 98.4019 212.61 98.2568 212.622L94.0039 212.962C93.7367 212.983 93.4709 212.906 93.2567 212.745C93.0424 212.584 92.8944 212.35 92.8404 212.088L87.4004 184.567C87.3856 184.484 87.3413 184.408 87.2755 184.354C87.2097 184.301 87.1268 184.272 87.0419 184.275H87.0404C86.9552 184.273 86.8722 184.302 86.8065 184.356C86.7408 184.41 86.6968 184.486 86.6826 184.57L81.4495 212.145C81.3999 212.395 81.2655 212.619 81.069 212.781C80.8726 212.942 80.6262 213.031 80.3719 213.031Z" fill="#2F2E41"/>
<path d="M87.3076 138.783C90.6181 138.783 93.3018 136.1 93.3018 132.79C93.3018 129.48 90.6181 126.796 87.3076 126.796C83.9972 126.796 81.3135 129.48 81.3135 132.79C81.3135 136.1 83.9972 138.783 87.3076 138.783Z" fill="#FFB8B8"/>
<path d="M85.2978 177.771C82.4409 177.771 79.5064 177.02 77.0737 174.8C76.9443 174.683 76.8443 174.537 76.782 174.373C76.7197 174.21 76.6968 174.034 76.7151 173.861C76.9755 171.521 78.2385 159.443 77.5272 151.375C77.3884 149.868 77.6018 148.349 78.1505 146.939C78.6992 145.529 79.5683 144.265 80.6891 143.248C81.7902 142.233 83.1122 141.488 84.5506 141.072C85.989 140.655 87.5045 140.579 88.9776 140.848H88.9777C89.0523 140.861 89.1269 140.875 89.2016 140.89C94.0006 141.818 97.3349 146.259 96.9576 151.22C96.4071 158.458 95.9135 168.248 96.6885 173.784C96.7206 174.011 96.681 174.242 96.5753 174.445C96.4697 174.648 96.3032 174.812 96.0991 174.916C94.3359 175.807 89.9182 177.771 85.2978 177.771Z" fill="#FE413F"/>
<path d="M93.1196 153.741C92.979 153.647 92.8602 153.525 92.7713 153.381C92.6825 153.237 92.6257 153.076 92.6048 152.908L91.8745 147.054C91.6427 146.222 91.7505 145.331 92.1743 144.578C92.5981 143.825 93.3032 143.27 94.1352 143.036C94.9672 142.802 95.858 142.907 96.6125 143.329C97.3669 143.751 97.9234 144.454 98.1599 145.286L100.565 150.693C100.634 150.848 100.669 151.015 100.667 151.184C100.665 151.353 100.627 151.519 100.555 151.672C100.482 151.825 100.378 151.961 100.249 152.069C100.12 152.178 99.9691 152.258 99.8063 152.303L94.0864 153.895C93.9237 153.94 93.753 153.95 93.5862 153.924C93.4193 153.897 93.2602 153.835 93.1196 153.741Z" fill="#FE413F"/>
<path d="M85.2159 138.699C84.6486 138.709 84.0847 138.607 83.557 138.399C83.3248 138.309 83.0838 138.236 82.8521 138.146C80.8053 137.355 79.457 135.176 79.4087 132.982C79.3604 130.789 80.4965 128.66 82.1834 127.257C83.8703 125.854 86.0553 125.134 88.2432 124.967C90.5999 124.788 93.2536 125.385 94.5705 127.348C94.9211 127.87 95.1662 128.504 94.9585 129.135C94.8963 129.325 94.7852 129.496 94.6363 129.629C94.0482 130.153 93.4618 129.759 92.8623 129.724C92.0383 129.677 91.2981 130.344 91.0321 131.125C90.7661 131.906 90.8832 132.766 91.098 133.563C91.2616 134.043 91.3648 134.541 91.4051 135.046C91.4224 135.299 91.3748 135.553 91.2667 135.783C91.1586 136.012 90.9936 136.21 90.7874 136.359C90.2724 136.67 89.5962 136.49 89.081 136.179C88.5657 135.868 88.1205 135.436 87.564 135.208C87.0075 134.979 86.2597 135.03 85.9358 135.537C85.8329 135.721 85.7632 135.922 85.73 136.131C85.4396 137.454 85.5063 137.376 85.2159 138.699V138.699Z" fill="#2F2E41"/>
<path d="M111.682 220.905H65.3124C65.2477 220.905 65.1856 220.88 65.1398 220.834C65.0941 220.788 65.0684 220.726 65.0684 220.661C65.0684 220.597 65.0941 220.535 65.1398 220.489C65.1856 220.443 65.2477 220.417 65.3124 220.417H111.682C111.747 220.417 111.809 220.443 111.855 220.489C111.901 220.535 111.926 220.597 111.926 220.661C111.926 220.726 111.901 220.788 111.855 220.834C111.809 220.88 111.747 220.905 111.682 220.905Z" fill="#CCCCCC"/>
<path d="M230.375 170.545L197.17 189.169C196.21 189.706 195.076 189.84 194.017 189.542C192.958 189.244 192.061 188.539 191.522 187.58L176.359 160.55C175.822 159.59 175.687 158.457 175.985 157.398C176.283 156.339 176.989 155.442 177.948 154.903L211.153 136.279C212.113 135.742 213.246 135.608 214.305 135.906C215.364 136.203 216.262 136.909 216.801 137.868L231.964 164.897C232.501 165.857 232.635 166.991 232.337 168.05C232.04 169.109 231.334 170.006 230.375 170.545Z" fill="white"/>
<path d="M230.375 170.545L197.17 189.169C196.21 189.706 195.076 189.84 194.017 189.542C192.958 189.244 192.061 188.539 191.522 187.58L176.359 160.55C175.822 159.59 175.687 158.457 175.985 157.398C176.283 156.339 176.989 155.442 177.948 154.903L211.153 136.279C212.113 135.742 213.246 135.608 214.305 135.906C215.364 136.203 216.262 136.909 216.801 137.868L231.964 164.897C232.501 165.857 232.635 166.991 232.337 168.05C232.04 169.109 231.334 170.006 230.375 170.545ZM178.186 155.328C177.34 155.804 176.718 156.596 176.455 157.53C176.192 158.464 176.311 159.465 176.784 160.312L191.947 187.341C192.423 188.187 193.215 188.81 194.149 189.073C195.084 189.335 196.084 189.217 196.931 188.743L230.136 170.119C230.982 169.644 231.605 168.852 231.868 167.918C232.131 166.984 232.012 165.983 231.538 165.136L216.375 138.107C215.899 137.261 215.108 136.638 214.173 136.375C213.239 136.112 212.239 136.231 211.392 136.705L178.186 155.328Z" fill="#3F3D56"/>
<path d="M211.932 146.513L195.174 155.912C195.029 155.997 194.856 156.024 194.691 155.988C194.526 155.951 194.382 155.853 194.286 155.713C194.24 155.64 194.208 155.557 194.195 155.471C194.181 155.385 194.185 155.297 194.206 155.213C194.227 155.128 194.266 155.049 194.319 154.979C194.372 154.91 194.438 154.852 194.514 154.81L211.573 145.242C212.412 145.421 212.421 146.239 211.932 146.513L211.932 146.513Z" fill="#CCCCCC"/>
<path d="M213.581 149.452L196.823 158.851C196.677 158.937 196.504 158.964 196.34 158.927C196.175 158.89 196.03 158.792 195.935 158.653C195.888 158.579 195.857 158.497 195.843 158.411C195.829 158.325 195.833 158.237 195.855 158.152C195.876 158.068 195.914 157.988 195.967 157.919C196.02 157.85 196.087 157.792 196.163 157.749L213.222 148.182C214.061 148.36 214.069 149.178 213.581 149.452L213.581 149.452Z" fill="#CCCCCC"/>
<path d="M194.139 162.557L189.024 165.425C188.857 165.519 188.66 165.542 188.475 165.49C188.291 165.438 188.135 165.315 188.041 165.149L184.656 159.114C184.562 158.947 184.539 158.749 184.59 158.565C184.642 158.381 184.765 158.224 184.932 158.131L190.047 155.262C190.214 155.169 190.411 155.145 190.595 155.197C190.78 155.249 190.936 155.372 191.03 155.539L194.415 161.574C194.509 161.741 194.532 161.938 194.48 162.122C194.428 162.307 194.305 162.463 194.139 162.557L194.139 162.557Z" fill="#CCCCCC"/>
<path d="M216.909 155.497L191.332 169.842C191.187 169.928 191.014 169.955 190.849 169.918C190.685 169.881 190.54 169.783 190.444 169.644C190.398 169.57 190.367 169.488 190.353 169.402C190.339 169.316 190.343 169.228 190.364 169.143C190.386 169.058 190.424 168.979 190.477 168.91C190.53 168.841 190.597 168.783 190.673 168.74L216.55 154.227C217.389 154.405 217.397 155.223 216.909 155.497Z" fill="#CCCCCC"/>
<path d="M218.557 158.437L192.981 172.782C192.835 172.868 192.663 172.895 192.498 172.858C192.333 172.821 192.188 172.723 192.093 172.584C192.046 172.51 192.015 172.428 192.001 172.341C191.987 172.255 191.991 172.167 192.013 172.083C192.034 171.998 192.072 171.919 192.125 171.85C192.178 171.78 192.245 171.723 192.321 171.68L218.198 157.167C219.037 157.345 219.046 158.163 218.557 158.437V158.437Z" fill="#CCCCCC"/>
<path d="M220.205 161.376L194.629 175.72C194.484 175.806 194.311 175.833 194.146 175.796C193.981 175.759 193.837 175.661 193.741 175.522C193.695 175.448 193.663 175.366 193.65 175.28C193.636 175.194 193.64 175.106 193.661 175.021C193.682 174.936 193.721 174.857 193.774 174.788C193.827 174.719 193.893 174.661 193.97 174.618L219.846 160.105C220.685 160.283 220.694 161.101 220.205 161.376Z" fill="#CCCCCC"/>
<path d="M221.855 164.315L196.279 178.66C196.133 178.746 195.96 178.773 195.796 178.736C195.631 178.699 195.486 178.601 195.391 178.462C195.344 178.388 195.313 178.306 195.299 178.22C195.285 178.133 195.289 178.045 195.311 177.961C195.332 177.876 195.37 177.797 195.423 177.728C195.476 177.659 195.543 177.601 195.619 177.558L221.496 163.045C222.335 163.223 222.343 164.041 221.855 164.315H221.855Z" fill="#CCCCCC"/>
<path d="M223.503 167.254L197.927 181.599C197.782 181.684 197.609 181.711 197.444 181.675C197.279 181.638 197.135 181.54 197.039 181.4C196.993 181.327 196.961 181.244 196.948 181.158C196.934 181.072 196.938 180.984 196.959 180.899C196.98 180.815 197.019 180.736 197.072 180.666C197.125 180.597 197.191 180.539 197.267 180.497L223.144 165.983C223.983 166.162 223.992 166.98 223.503 167.254V167.254Z" fill="#CCCCCC"/>
<path d="M219.041 178.265C219.18 177.958 219.251 177.624 219.247 177.287C219.243 176.95 219.165 176.617 219.019 176.313C218.873 176.009 218.662 175.741 218.401 175.528C218.14 175.314 217.835 175.16 217.508 175.077L216.813 166.908L213.468 169.547L214.641 176.899C214.538 177.458 214.643 178.035 214.937 178.521C215.23 179.007 215.692 179.368 216.234 179.537C216.777 179.705 217.362 179.668 217.879 179.434C218.397 179.2 218.81 178.784 219.041 178.265Z" fill="#FFB8B8"/>
<path d="M216.876 174.221L214.098 174.553C213.956 174.569 213.813 174.557 213.677 174.516C213.541 174.475 213.415 174.406 213.307 174.314C213.198 174.222 213.11 174.109 213.048 173.981C212.985 173.853 212.95 173.714 212.944 173.572L212.539 164.201L207.273 149.816C207.062 149.37 206.965 148.878 206.993 148.385C207.02 147.892 207.17 147.414 207.429 146.994C207.558 146.791 207.706 146.6 207.871 146.424C208.195 146.075 208.598 145.81 209.047 145.651C209.496 145.491 209.977 145.443 210.448 145.509C210.934 145.574 211.398 145.753 211.8 146.033C212.203 146.313 212.533 146.684 212.763 147.117L216.197 154.313C217.633 157.322 218.311 160.638 218.172 163.97L217.785 173.24C217.775 173.482 217.68 173.714 217.516 173.893C217.352 174.072 217.13 174.188 216.889 174.22L216.876 174.221Z" fill="url(#paint0_linear)"/>
<path d="M226.742 214.723L224.166 215.853L218.58 206.457L222.381 204.789L226.742 214.723Z" fill="#FFB8B8"/>
<path d="M228.495 216.931L220.19 220.576L220.143 220.471C219.957 220.046 219.856 219.589 219.846 219.126C219.837 218.662 219.918 218.202 220.087 217.77C220.255 217.338 220.507 216.943 220.828 216.609C221.149 216.274 221.532 216.006 221.957 215.82L221.957 215.82L227.03 213.593L228.495 216.931Z" fill="#2F2E41"/>
<path d="M192.163 217.849H189.35L188.012 207L192.163 207.001L192.163 217.849Z" fill="#FFB8B8"/>
<path d="M192.88 220.576L183.811 220.576V220.461C183.811 219.997 183.902 219.538 184.079 219.11C184.257 218.682 184.517 218.293 184.845 217.965C185.172 217.637 185.562 217.377 185.99 217.2C186.418 217.022 186.877 216.931 187.341 216.931H187.341L192.881 216.931L192.88 220.576Z" fill="#2F2E41"/>
<path d="M219.549 214.141L203.879 179.175C203.851 179.11 203.803 179.055 203.742 179.018C203.681 178.981 203.61 178.963 203.539 178.968C203.468 178.974 203.4 179.001 203.345 179.046C203.29 179.091 203.25 179.153 203.231 179.221L193.684 212.994C193.621 213.23 193.475 213.436 193.274 213.575C193.072 213.713 192.828 213.776 192.585 213.75L187.37 213.229C187.102 213.201 186.855 213.069 186.682 212.861C186.508 212.654 186.423 212.387 186.443 212.118C188.102 191.492 190.716 172.025 198.549 159.281L198.59 159.213L210.438 161.536L226.254 211.897C226.332 212.156 226.306 212.436 226.18 212.676C226.055 212.916 225.84 213.098 225.583 213.182L220.813 214.715C220.569 214.794 220.304 214.779 220.07 214.673C219.836 214.567 219.65 214.377 219.549 214.141Z" fill="#2F2E41"/>
<path d="M204.317 141.37C207.429 141.37 209.952 138.847 209.952 135.735C209.952 132.623 207.429 130.101 204.317 130.101C201.205 130.101 198.682 132.623 198.682 135.735C198.682 138.847 201.205 141.37 204.317 141.37Z" fill="#FFB8B8"/>
<path d="M197.821 160.256L197.749 160.241L197.732 160.17C196.972 156.965 196.954 153.467 197.678 149.773C198.045 147.886 199.066 146.188 200.562 144.979C202.058 143.771 203.933 143.129 205.856 143.166C207.942 143.209 209.933 144.047 211.422 145.509C212.911 146.971 213.785 148.946 213.865 151.032C214.107 157.384 211.51 162.891 211.484 162.946L211.445 163.027L197.821 160.256Z" fill="url(#paint1_linear)"/>
<path d="M182.714 170.976C183.047 170.927 183.366 170.805 183.648 170.619C183.929 170.433 184.167 170.188 184.343 169.901C184.519 169.613 184.631 169.291 184.669 168.955C184.707 168.62 184.671 168.281 184.564 167.961L191.055 162.952L187.025 161.57L181.479 166.538C180.954 166.754 180.526 167.155 180.276 167.665C180.026 168.175 179.973 168.759 180.125 169.306C180.277 169.853 180.625 170.325 181.102 170.633C181.579 170.941 182.153 171.063 182.714 170.976V170.976Z" fill="#FFB8B8"/>
<path d="M186.259 167.199C186.048 167.324 185.799 167.369 185.557 167.326C185.315 167.284 185.097 167.156 184.941 166.966L183.158 164.811C183.067 164.701 183 164.574 182.961 164.438C182.922 164.301 182.911 164.158 182.93 164.017C182.949 163.876 182.996 163.74 183.07 163.619C183.143 163.497 183.241 163.392 183.357 163.31L191.016 157.894L200.257 145.677C200.518 145.258 200.88 144.91 201.309 144.666C201.738 144.422 202.222 144.289 202.716 144.28C202.956 144.278 203.196 144.299 203.433 144.342C203.902 144.425 204.344 144.621 204.721 144.912C205.098 145.203 205.399 145.581 205.599 146.013C205.807 146.457 205.907 146.943 205.89 147.433C205.873 147.923 205.739 148.402 205.5 148.829L198.657 159.91L198.642 159.934L186.259 167.199Z" fill="url(#paint2_linear)"/>
<path d="M205.325 135.386C204.909 134.703 203.993 134.51 203.197 134.587C202.401 134.665 201.627 134.945 200.828 134.939C198.608 134.922 196.894 132.216 197.827 130.202C198.593 128.55 200.505 127.825 202.234 127.255C205.86 126.062 210.026 124.915 213.316 126.85C214.365 127.485 215.225 128.389 215.807 129.467C216.39 130.546 216.674 131.76 216.63 132.985C216.556 134.508 215.973 136.073 216.466 137.516C217.036 139.18 218.84 140.074 220.546 140.506C223.536 141.263 226.688 141.141 229.696 141.82C232.705 142.499 235.788 144.303 236.599 147.279C237.131 149.233 236.576 151.337 235.655 153.141C234.716 154.982 233.411 156.612 231.82 157.931C230.229 159.25 228.385 160.231 226.402 160.812C224.418 161.394 222.337 161.565 220.285 161.314C218.234 161.063 216.255 160.397 214.47 159.355C210.833 157.231 208.207 153.642 206.642 149.733C205.754 147.452 205.129 145.078 204.779 142.656C204.429 140.389 204.726 138.097 205.361 135.893C205.391 135.811 205.404 135.723 205.397 135.635C205.391 135.548 205.366 135.463 205.325 135.386Z" fill="#2F2E41"/>
<path d="M225.654 220.905H179.284C179.219 220.905 179.157 220.88 179.112 220.834C179.066 220.788 179.04 220.726 179.04 220.661C179.04 220.597 179.066 220.535 179.112 220.489C179.157 220.443 179.219 220.417 179.284 220.417H225.654C225.719 220.417 225.781 220.443 225.827 220.489C225.872 220.535 225.898 220.597 225.898 220.661C225.898 220.726 225.872 220.788 225.827 220.834C225.781 220.88 225.719 220.905 225.654 220.905Z" fill="#CCCCCC"/>
<defs>
<linearGradient id="paint0_linear" x1="227.168" y1="128.926" x2="187.981" y2="146.571" gradientUnits="userSpaceOnUse">
<stop stop-color="#FFE66C"/>
<stop offset="0.871768" stop-color="#FE413F"/>
</linearGradient>
<linearGradient id="paint1_linear" x1="227.291" y1="131.858" x2="191.548" y2="167.055" gradientUnits="userSpaceOnUse">
<stop stop-color="#FFE66C"/>
<stop offset="0.871768" stop-color="#FE413F"/>
</linearGradient>
<linearGradient id="paint2_linear" x1="224.302" y1="131.151" x2="183.271" y2="178.923" gradientUnits="userSpaceOnUse">
<stop stop-color="#FFE66C"/>
<stop offset="0.871768" stop-color="#FE413F"/>
</linearGradient>
</defs>
</svg>
