<svg width="765" height="482" viewBox="0 0 765 482" fill="none" xmlns="http://www.w3.org/2000/svg">
<rect width="765" height="482" fill="white"/>
<path opacity="0.5" d="M220.293 324.454C176.63 307.902 126.706 293.892 85.912 317.677C80.7417 320.692 75.6472 324.487 72.8615 330.134C65.5035 344.991 77.199 364.258 71.4989 379.962C65.7987 395.666 44.3457 403.572 46.1019 420.347C46.5636 424.732 48.7286 428.702 51.2797 432.123C67.2597 453.541 96.5552 455.709 121.316 450.394C146.077 445.079 170.294 434.058 195.501 435.445C219.725 436.816 242.011 449.563 264.206 460.293C301.624 478.43 345.325 491.444 382.712 473.215C399.843 464.86 414.006 450.635 430.403 440.702C452.499 427.44 477.898 422.327 502.847 426.119C519.5 428.694 535.397 435.171 551.695 439.639C588.712 449.779 627.349 449.447 665.493 449.048C672.594 448.974 679.808 448.882 686.613 446.657C696.689 443.335 705.001 435.686 713.002 428.204C723.516 418.379 734.591 407.583 737.983 392.892C741.987 375.452 733.698 356.916 721.404 345.066C709.111 333.215 693.396 326.737 678.059 320.492C674.274 318.964 670.232 317.411 666.356 318.566C663.813 319.33 661.67 321.19 659.77 323.191C648.885 334.685 639.688 354.126 624.843 351.004C619.544 349.891 615.206 345.846 611.013 342.109C588.621 322.178 558.5 306.789 531.476 317.801C511.711 325.857 497.76 346.544 477.73 353.844C463.483 359.042 448.003 356.792 433.014 357.805C411.213 359.267 389.995 367.721 368.163 367.206C312.494 365.894 266.113 307.495 210.671 313.06C206.326 313.491 201.588 314.588 198.923 318.358" fill="#FE413F" fill-opacity="0.5"/>
<path d="M587.503 49H187.461C176.79 49 168.14 57.6503 168.14 68.321V302.125C168.14 312.796 176.79 321.446 187.461 321.446H587.503C598.174 321.446 606.824 312.796 606.824 302.125V68.321C606.824 57.6503 598.174 49 587.503 49Z" fill="#535461"/>
<path d="M596.666 88.7134H177.377V311.287H596.666V88.7134Z" fill="white"/>
<path d="M387.025 73.0139C389.066 73.0139 390.721 71.359 390.721 69.3175C390.721 67.276 389.066 65.6211 387.025 65.6211C384.983 65.6211 383.328 67.276 383.328 69.3175C383.328 71.359 384.983 73.0139 387.025 73.0139Z" fill="white"/>
<path d="M451.758 311.744L437.355 326.521H335.799L322.783 311.744H115.958C114.733 311.744 113.559 312.23 112.693 313.096C111.826 313.962 111.34 315.137 111.34 316.362V320.083C111.34 326.935 114.062 333.506 118.906 338.35C123.751 343.195 130.322 345.917 137.173 345.917H635.947C639.34 345.917 642.699 345.249 645.833 343.95C648.967 342.652 651.815 340.749 654.214 338.35C656.613 335.951 658.516 333.104 659.814 329.969C661.112 326.835 661.78 323.476 661.78 320.083V316.362C661.78 315.137 661.294 313.962 660.428 313.096C659.562 312.23 658.387 311.744 657.162 311.744H451.758Z" fill="#535461"/>
<path d="M230.945 102.569V291.891H544.018" stroke="#535461" stroke-width="2" stroke-miterlimit="10"/>
<path opacity="0.5" d="M290.968 234.634H258.647V284.506H290.968V234.634Z" fill="#FE413F"/>
<path opacity="0.7" d="M346.381 190.302H314.061V284.507H346.381V190.302Z" fill="#FE413F"/>
<path opacity="0.5" d="M401.794 217.083H369.474V284.498H401.794V217.083Z" fill="#FE413F"/>
<path opacity="0.8" d="M457.207 175.525H424.887V284.507H457.207V175.525Z" fill="#FE413F"/>
<path d="M512.62 136.733H480.299V284.498H512.62V136.733Z" fill="#FE413F"/>
<path d="M274.347 204.158L330.682 153.363L386.094 201.383L440.585 143.204L495.998 120.112" stroke="#535461" stroke-width="2" stroke-miterlimit="10"/>
<path d="M274.347 210.62C277.916 210.62 280.81 207.727 280.81 204.158C280.81 200.588 277.916 197.695 274.347 197.695C270.778 197.695 267.885 200.588 267.885 204.158C267.885 207.727 270.778 210.62 274.347 210.62Z" fill="#FE413F"/>
<path d="M385.172 206.924C388.742 206.924 391.635 204.03 391.635 200.461C391.635 196.892 388.742 193.999 385.172 193.999C381.603 193.999 378.71 196.892 378.71 200.461C378.71 204.03 381.603 206.924 385.172 206.924Z" fill="#FE413F"/>
<path d="M441.507 149.667C445.077 149.667 447.97 146.773 447.97 143.204C447.97 139.635 445.077 136.742 441.507 136.742C437.938 136.742 435.045 139.635 435.045 143.204C435.045 146.773 437.938 149.667 441.507 149.667Z" fill="#FE413F"/>
<path d="M330.682 158.895C334.251 158.895 337.145 156.002 337.145 152.433C337.145 148.864 334.251 145.97 330.682 145.97C327.113 145.97 324.22 148.864 324.22 152.433C324.22 156.002 327.113 158.895 330.682 158.895Z" fill="#FE413F"/>
<path d="M495.999 126.575C499.568 126.575 502.461 123.681 502.461 120.112C502.461 116.543 499.568 113.65 495.999 113.65C492.429 113.65 489.536 116.543 489.536 120.112C489.536 123.681 492.429 126.575 495.999 126.575Z" fill="#FE413F"/>
<path d="M313.227 316.913L225.56 335.39C223.026 335.921 220.386 335.426 218.217 334.012C216.049 332.599 214.529 330.383 213.993 327.851L198.949 256.488C198.418 253.955 198.914 251.314 200.327 249.146C201.741 246.978 203.957 245.458 206.489 244.922L294.156 226.445C296.69 225.914 299.33 226.409 301.499 227.823C303.667 229.236 305.187 231.452 305.723 233.984L320.767 305.347C321.298 307.88 320.802 310.521 319.389 312.689C317.975 314.857 315.76 316.377 313.227 316.913Z" fill="white"/>
<path d="M313.227 316.913L225.56 335.39C223.026 335.921 220.386 335.426 218.217 334.012C216.049 332.599 214.529 330.383 213.993 327.851L198.949 256.488C198.418 253.955 198.914 251.314 200.327 249.146C201.741 246.978 203.957 245.458 206.489 244.922L294.156 226.445C296.69 225.914 299.33 226.409 301.499 227.823C303.667 229.236 305.187 231.452 305.723 233.984L320.767 305.347C321.298 307.88 320.802 310.521 319.389 312.689C317.975 314.857 315.76 316.377 313.227 316.913ZM206.726 246.046C204.491 246.519 202.536 247.86 201.289 249.773C200.042 251.686 199.605 254.016 200.073 256.251L215.117 327.614C215.59 329.848 216.931 331.803 218.844 333.051C220.758 334.298 223.088 334.735 225.323 334.266L312.99 315.789C315.225 315.316 317.18 313.975 318.427 312.062C319.674 310.149 320.112 307.819 319.643 305.584L304.6 234.221C304.126 231.987 302.785 230.032 300.872 228.785C298.959 227.537 296.629 227.1 294.393 227.569L206.726 246.046Z" fill="#3F3D56"/>
<path d="M288.709 249.975L244.465 259.3C244.077 259.39 243.671 259.33 243.326 259.131C242.982 258.933 242.726 258.611 242.61 258.23C242.557 258.032 242.545 257.825 242.574 257.622C242.604 257.419 242.675 257.224 242.782 257.049C242.889 256.874 243.031 256.723 243.199 256.605C243.367 256.487 243.557 256.404 243.758 256.362L288.796 246.869C290.555 247.86 289.999 249.704 288.709 249.975L288.709 249.975Z" fill="#CCCCCC"/>
<path d="M290.345 257.736L246.1 267.061C245.713 267.15 245.306 267.09 244.962 266.891C244.618 266.693 244.362 266.371 244.246 265.991C244.193 265.792 244.181 265.586 244.21 265.382C244.24 265.179 244.31 264.984 244.418 264.81C244.525 264.635 244.667 264.484 244.835 264.365C245.003 264.247 245.193 264.164 245.394 264.122L290.432 254.63C292.19 255.621 291.634 257.464 290.344 257.736L290.345 257.736Z" fill="#CCCCCC"/>
<path d="M237.467 273.495L223.964 276.341C223.523 276.433 223.063 276.347 222.686 276.101C222.308 275.855 222.044 275.469 221.951 275.028L218.592 259.095C218.499 258.654 218.586 258.195 218.832 257.817C219.078 257.44 219.463 257.176 219.904 257.082L233.407 254.236C233.848 254.144 234.308 254.23 234.685 254.476C235.063 254.722 235.327 255.108 235.421 255.548L238.779 271.482C238.872 271.923 238.786 272.382 238.54 272.76C238.294 273.137 237.908 273.401 237.467 273.495V273.495Z" fill="#CCCCCC"/>
<path d="M293.566 273.651L226.041 287.883C225.654 287.973 225.247 287.913 224.902 287.714C224.558 287.515 224.302 287.194 224.186 286.813C224.133 286.615 224.121 286.408 224.151 286.205C224.18 286.002 224.251 285.807 224.358 285.632C224.466 285.457 224.608 285.306 224.775 285.188C224.943 285.07 225.133 284.987 225.334 284.945L293.653 270.545C295.412 271.536 294.856 273.38 293.566 273.651Z" fill="#CCCCCC"/>
<path d="M295.202 281.414L227.677 295.646C227.289 295.735 226.882 295.675 226.538 295.476C226.194 295.278 225.938 294.956 225.822 294.576C225.769 294.377 225.757 294.17 225.786 293.967C225.816 293.764 225.887 293.569 225.994 293.394C226.101 293.22 226.243 293.068 226.411 292.95C226.579 292.832 226.769 292.749 226.97 292.707L295.289 278.308C297.048 279.299 296.492 281.142 295.202 281.414Z" fill="#CCCCCC"/>
<path d="M296.838 289.171L229.312 303.403C228.925 303.493 228.518 303.432 228.174 303.234C227.83 303.035 227.574 302.713 227.458 302.333C227.405 302.135 227.392 301.928 227.422 301.725C227.452 301.522 227.522 301.327 227.63 301.152C227.737 300.977 227.879 300.826 228.047 300.708C228.215 300.589 228.405 300.507 228.605 300.464L296.925 286.065C298.683 287.056 298.128 288.899 296.838 289.171Z" fill="#CCCCCC"/>
<path d="M298.473 296.932L230.948 311.164C230.561 311.254 230.154 311.194 229.81 310.995C229.465 310.796 229.209 310.474 229.093 310.094C229.04 309.896 229.028 309.689 229.058 309.486C229.087 309.283 229.158 309.088 229.265 308.913C229.373 308.738 229.515 308.587 229.682 308.469C229.85 308.351 230.04 308.268 230.241 308.226L298.561 293.826C300.319 294.817 299.763 296.661 298.473 296.932Z" fill="#CCCCCC"/>
<path d="M300.109 304.69L232.584 318.922C232.197 319.012 231.79 318.951 231.445 318.753C231.101 318.554 230.845 318.232 230.729 317.852C230.676 317.654 230.664 317.447 230.694 317.244C230.723 317.041 230.794 316.846 230.901 316.671C231.009 316.496 231.15 316.345 231.318 316.227C231.486 316.109 231.676 316.026 231.877 315.983L300.196 301.584C301.955 302.575 301.399 304.418 300.109 304.69Z" fill="#CCCCCC"/>
<path d="M312.029 269.163C311.875 269.441 311.744 269.731 311.636 270.03L283.992 276.889L279.183 271.914L270.727 278.19L278.384 287.824C279.003 288.602 279.857 289.159 280.819 289.41C281.781 289.662 282.799 289.594 283.719 289.218L313.715 276.962C314.701 277.688 315.885 278.096 317.108 278.133C318.332 278.17 319.538 277.833 320.566 277.168C321.593 276.502 322.394 275.54 322.861 274.409C323.329 273.277 323.44 272.03 323.182 270.834C322.923 269.637 322.306 268.548 321.413 267.711C320.52 266.873 319.393 266.327 318.182 266.146C316.972 265.965 315.734 266.156 314.635 266.695C313.536 267.234 312.627 268.095 312.029 269.163L312.029 269.163Z" fill="#FFB8B8"/>
<path d="M217.67 330.202C218.532 329.936 219.325 329.484 219.994 328.878C220.662 328.273 221.189 327.528 221.538 326.696C221.888 325.865 222.05 324.967 222.015 324.066C221.98 323.164 221.747 322.282 221.334 321.48L240.357 268.61L227.146 266.269L212.601 318.975C211.3 319.759 210.332 320.992 209.88 322.442C209.428 323.891 209.523 325.456 210.148 326.84C210.773 328.224 211.884 329.331 213.271 329.95C214.657 330.57 216.222 330.66 217.67 330.202Z" fill="#FFB8B8"/>
<path d="M237.941 277.995L224.897 272.989C224.526 272.847 224.19 272.626 223.912 272.342C223.634 272.058 223.42 271.717 223.285 271.343C223.151 270.969 223.098 270.571 223.132 270.175C223.165 269.778 223.284 269.394 223.479 269.048L230.322 256.916C231.061 255.022 232.522 253.498 234.384 252.679C236.245 251.86 238.356 251.812 240.252 252.546C242.149 253.281 243.677 254.737 244.502 256.596C245.326 258.455 245.38 260.565 244.651 262.463L241.633 276.015C241.546 276.403 241.377 276.767 241.137 277.084C240.897 277.401 240.591 277.662 240.241 277.85C239.89 278.038 239.504 278.148 239.107 278.173C238.71 278.198 238.313 278.137 237.941 277.995V277.995Z" fill="#FE413F"/>
<path d="M267.384 429.465L274.425 429.465L277.775 402.309L267.383 402.31L267.384 429.465Z" fill="#FFB8B8"/>
<path d="M265.587 427.167L279.453 427.166H279.454C280.614 427.166 281.763 427.395 282.835 427.839C283.908 428.283 284.882 428.934 285.702 429.754C286.523 430.574 287.174 431.549 287.618 432.621C288.062 433.693 288.29 434.842 288.29 436.002V436.289L265.587 436.29L265.587 427.167Z" fill="#2F2E41"/>
<path d="M227.756 429.465L234.797 429.465L238.147 402.309L227.755 402.31L227.756 429.465Z" fill="#FFB8B8"/>
<path d="M225.959 427.167L239.825 427.166H239.826C240.986 427.166 242.135 427.395 243.207 427.839C244.28 428.283 245.254 428.934 246.074 429.754C246.895 430.574 247.546 431.549 247.99 432.621C248.434 433.693 248.663 434.842 248.663 436.002V436.289L225.959 436.29L225.959 427.167Z" fill="#2F2E41"/>
<path d="M235.137 418.535H226.227C225.877 418.535 225.531 418.464 225.21 418.327C224.888 418.189 224.598 417.988 224.357 417.735C224.115 417.481 223.928 417.182 223.806 416.854C223.683 416.527 223.629 416.178 223.645 415.828L227.878 324.904L228.145 324.897L271.172 323.775L279.592 414.752C279.624 415.093 279.588 415.437 279.487 415.764C279.385 416.091 279.219 416.395 278.999 416.657C278.778 416.92 278.508 417.136 278.204 417.293C277.899 417.45 277.567 417.545 277.225 417.572L267.217 418.372C266.588 418.422 265.963 418.241 265.459 417.862C264.954 417.483 264.606 416.933 264.479 416.315L251.677 351.552C251.642 351.355 251.538 351.178 251.383 351.051C251.228 350.925 251.033 350.858 250.834 350.863H250.83C250.63 350.859 250.434 350.927 250.28 351.054C250.125 351.182 250.022 351.361 249.988 351.559L237.673 416.45C237.556 417.037 237.24 417.566 236.778 417.946C236.316 418.326 235.736 418.534 235.137 418.535Z" fill="#2F2E41"/>
<path d="M251.458 243.811C259.249 243.811 265.564 237.496 265.564 229.707C265.564 221.917 259.249 215.602 251.458 215.602C243.668 215.602 237.353 221.917 237.353 229.707C237.353 237.496 243.668 243.811 251.458 243.811Z" fill="#FFB8B8"/>
<path d="M246.729 335.559C240.006 335.559 233.101 333.792 227.376 328.568C227.071 328.292 226.836 327.948 226.689 327.563C226.543 327.179 226.489 326.766 226.532 326.357C227.145 320.852 230.117 292.429 228.443 273.443C228.116 269.896 228.619 266.322 229.91 263.003C231.201 259.684 233.246 256.71 235.884 254.317C238.475 251.929 241.586 250.176 244.971 249.196C248.356 248.216 251.922 248.035 255.389 248.67H255.389C255.565 248.701 255.74 248.734 255.916 248.768C267.209 250.953 275.056 261.404 274.168 273.077C272.872 290.11 271.711 313.149 273.535 326.178C273.61 326.711 273.517 327.254 273.268 327.731C273.02 328.209 272.628 328.597 272.148 328.84C267.998 330.937 257.602 335.559 246.729 335.559Z" fill="#FE413F"/>
<path d="M265.135 279.01C264.804 278.79 264.525 278.501 264.316 278.163C264.107 277.824 263.973 277.445 263.924 277.051L262.205 263.274C261.66 261.315 261.914 259.22 262.911 257.447C263.908 255.675 265.567 254.37 267.525 253.819C269.483 253.268 271.58 253.516 273.355 254.508C275.13 255.5 276.44 257.156 276.996 259.112L282.657 271.838C282.819 272.202 282.9 272.595 282.896 272.993C282.891 273.39 282.801 273.782 282.632 274.142C282.462 274.501 282.217 274.82 281.913 275.076C281.609 275.333 281.254 275.521 280.871 275.627L267.411 279.373C267.028 279.479 266.626 279.502 266.233 279.44C265.841 279.377 265.466 279.23 265.135 279.01Z" fill="#FE413F"/>
<path d="M246.535 243.612C245.199 243.637 243.873 243.397 242.631 242.906C242.084 242.695 241.517 242.522 240.972 242.312C236.155 240.451 232.982 235.322 232.869 230.16C232.755 224.998 235.428 219.988 239.398 216.686C243.368 213.385 248.51 211.69 253.658 211.298C259.204 210.875 265.449 212.282 268.548 216.9C269.373 218.129 269.95 219.621 269.461 221.105C269.315 221.553 269.054 221.954 268.703 222.269C267.319 223.501 265.939 222.575 264.529 222.493C262.589 222.381 260.848 223.95 260.222 225.789C259.596 227.627 259.871 229.652 260.377 231.527C260.762 232.655 261.004 233.828 261.099 235.016C261.14 235.612 261.028 236.209 260.774 236.749C260.519 237.29 260.131 237.756 259.646 238.105C258.434 238.837 256.843 238.413 255.63 237.682C254.418 236.951 253.37 235.934 252.06 235.396C250.751 234.858 248.991 234.977 248.229 236.171C247.986 236.605 247.822 237.078 247.744 237.569C247.061 240.682 247.218 240.499 246.535 243.612V243.612Z" fill="#2F2E41"/>
<path d="M308.817 437.065H199.696C199.544 437.065 199.398 437.004 199.29 436.897C199.183 436.789 199.122 436.643 199.122 436.491C199.122 436.338 199.183 436.192 199.29 436.085C199.398 435.977 199.544 435.916 199.696 435.916H308.817C308.969 435.916 309.115 435.977 309.223 436.085C309.331 436.192 309.391 436.338 309.391 436.491C309.391 436.643 309.331 436.789 309.223 436.897C309.115 437.004 308.969 437.065 308.817 437.065Z" fill="#CCCCCC"/>
<path d="M588.133 318.554L509.993 362.38C507.734 363.644 505.066 363.96 502.574 363.259C500.082 362.559 497.97 360.898 496.701 358.642L461.019 295.034C459.755 292.775 459.439 290.107 460.14 287.616C460.841 285.124 462.501 283.012 464.757 281.744L542.898 237.917C545.157 236.654 547.825 236.338 550.317 237.038C552.809 237.739 554.921 239.4 556.189 241.656L591.872 305.264C593.136 307.523 593.452 310.191 592.751 312.682C592.05 315.174 590.389 317.286 588.133 318.554Z" fill="white"/>
<path d="M588.133 318.554L509.993 362.38C507.734 363.644 505.066 363.96 502.574 363.259C500.082 362.559 497.97 360.898 496.701 358.642L461.019 295.034C459.755 292.775 459.439 290.107 460.14 287.616C460.841 285.124 462.501 283.012 464.757 281.744L542.898 237.917C545.157 236.654 547.825 236.338 550.317 237.038C552.809 237.739 554.921 239.4 556.189 241.656L591.872 305.264C593.136 307.523 593.452 310.191 592.751 312.682C592.05 315.174 590.389 317.286 588.133 318.554ZM465.319 282.745C463.329 283.865 461.863 285.728 461.245 287.927C460.626 290.125 460.905 292.479 462.02 294.472L497.703 358.08C498.822 360.071 500.686 361.536 502.885 362.154C505.083 362.773 507.438 362.494 509.431 361.379L587.571 317.553C589.562 316.433 591.027 314.57 591.646 312.371C592.264 310.173 591.985 307.819 590.87 305.826L555.188 242.218C554.068 240.227 552.205 238.762 550.006 238.144C547.807 237.525 545.453 237.804 543.46 238.919L465.319 282.745Z" fill="#3F3D56"/>
<path d="M544.731 262L505.295 284.118C504.952 284.32 504.546 284.384 504.158 284.297C503.77 284.21 503.43 283.98 503.205 283.652C503.096 283.478 503.022 283.284 502.99 283.082C502.957 282.879 502.966 282.672 503.017 282.473C503.067 282.274 503.157 282.087 503.282 281.924C503.407 281.762 503.563 281.626 503.742 281.525L543.886 259.01C545.861 259.43 545.881 261.355 544.731 262L544.731 262Z" fill="#CCCCCC"/>
<path d="M548.611 268.917L509.175 291.035C508.832 291.237 508.426 291.301 508.038 291.214C507.65 291.127 507.31 290.897 507.085 290.569C506.975 290.395 506.902 290.201 506.87 289.999C506.837 289.796 506.846 289.589 506.897 289.39C506.947 289.191 507.037 289.004 507.162 288.841C507.287 288.679 507.443 288.543 507.622 288.442L547.766 265.927C549.74 266.347 549.761 268.272 548.611 268.917L548.611 268.917Z" fill="#CCCCCC"/>
<path d="M502.859 299.755L490.823 306.505C490.43 306.725 489.965 306.78 489.532 306.658C489.098 306.536 488.73 306.247 488.51 305.855L480.543 291.653C480.323 291.26 480.268 290.796 480.39 290.362C480.512 289.928 480.801 289.561 481.194 289.34L493.229 282.589C493.622 282.37 494.087 282.315 494.521 282.437C494.954 282.559 495.322 282.847 495.543 283.24L503.51 297.442C503.73 297.835 503.785 298.299 503.663 298.733C503.541 299.167 503.252 299.534 502.859 299.755L502.859 299.755Z" fill="#CCCCCC"/>
<path d="M556.441 283.143L496.254 316.9C495.911 317.102 495.505 317.166 495.117 317.079C494.729 316.992 494.389 316.761 494.164 316.433C494.055 316.26 493.981 316.066 493.949 315.864C493.916 315.661 493.925 315.454 493.976 315.255C494.026 315.056 494.116 314.869 494.241 314.706C494.366 314.543 494.522 314.408 494.701 314.307L555.596 280.153C557.571 280.573 557.591 282.498 556.441 283.143Z" fill="#CCCCCC"/>
<path d="M560.322 290.062L500.135 323.819C499.792 324.02 499.386 324.084 498.998 323.997C498.61 323.911 498.27 323.68 498.045 323.352C497.935 323.179 497.862 322.985 497.83 322.782C497.797 322.58 497.806 322.372 497.857 322.173C497.907 321.974 497.997 321.788 498.122 321.625C498.247 321.462 498.403 321.326 498.582 321.226L559.477 287.072C561.452 287.492 561.472 289.417 560.322 290.062V290.062Z" fill="#CCCCCC"/>
<path d="M564.201 296.976L504.014 330.733C503.671 330.934 503.265 330.998 502.877 330.912C502.489 330.825 502.149 330.594 501.924 330.266C501.814 330.093 501.741 329.899 501.708 329.696C501.676 329.494 501.685 329.287 501.735 329.088C501.786 328.889 501.876 328.702 502.001 328.539C502.125 328.376 502.282 328.24 502.461 328.14L563.356 293.986C565.331 294.406 565.351 296.331 564.201 296.976Z" fill="#CCCCCC"/>
<path d="M568.082 303.894L507.895 337.651C507.552 337.853 507.146 337.916 506.758 337.83C506.37 337.743 506.029 337.512 505.805 337.184C505.695 337.011 505.622 336.817 505.589 336.614C505.557 336.412 505.566 336.205 505.616 336.006C505.667 335.807 505.757 335.62 505.882 335.457C506.006 335.294 506.163 335.158 506.342 335.058L567.237 300.904C569.211 301.324 569.232 303.249 568.082 303.894H568.082Z" fill="#CCCCCC"/>
<path d="M571.961 310.809L511.774 344.566C511.431 344.768 511.025 344.831 510.637 344.745C510.249 344.658 509.908 344.427 509.684 344.099C509.574 343.926 509.501 343.732 509.468 343.529C509.436 343.327 509.445 343.12 509.495 342.921C509.545 342.722 509.636 342.535 509.76 342.372C509.885 342.209 510.042 342.073 510.221 341.973L571.116 307.819C573.09 308.239 573.111 310.164 571.961 310.809V310.809Z" fill="#CCCCCC"/>
<path d="M561.461 336.722C561.789 335.999 561.954 335.213 561.945 334.419C561.936 333.626 561.753 332.844 561.41 332.128C561.066 331.413 560.569 330.782 559.955 330.279C559.341 329.776 558.624 329.415 557.854 329.219L556.218 309.996L548.346 316.205L551.107 333.508C550.864 334.822 551.111 336.179 551.802 337.323C552.493 338.467 553.58 339.317 554.856 339.713C556.133 340.11 557.51 340.024 558.727 339.472C559.945 338.921 560.917 337.942 561.461 336.722Z" fill="#FFB8B8"/>
<path d="M556.366 327.206L549.829 327.985C549.497 328.025 549.16 327.995 548.84 327.899C548.519 327.802 548.223 327.641 547.968 327.424C547.713 327.207 547.505 326.94 547.359 326.64C547.212 326.34 547.128 326.012 547.114 325.678L546.16 303.625L533.768 269.774C533.271 268.724 533.045 267.566 533.109 266.406C533.174 265.246 533.527 264.121 534.136 263.132C534.44 262.654 534.788 262.205 535.175 261.792C535.938 260.971 536.887 260.346 537.944 259.971C539 259.596 540.131 259.482 541.241 259.638C542.384 259.79 543.475 260.213 544.422 260.871C545.369 261.529 546.146 262.404 546.687 263.422L554.769 280.355C558.149 287.438 559.745 295.24 559.418 303.081L558.506 324.896C558.482 325.467 558.258 326.011 557.872 326.432C557.487 326.854 556.965 327.126 556.399 327.201L556.366 327.206Z" fill="url(#paint0_linear)"/>
<path d="M579.583 422.516L573.522 425.176L560.376 403.065L569.322 399.139L579.583 422.516Z" fill="#FFB8B8"/>
<path d="M583.709 427.712L564.165 436.29L564.056 436.043C563.618 435.044 563.38 433.968 563.357 432.878C563.334 431.787 563.527 430.703 563.923 429.686C564.319 428.67 564.912 427.742 565.667 426.954C566.422 426.167 567.325 425.536 568.324 425.097L568.324 425.097L580.261 419.858L583.709 427.712Z" fill="#2F2E41"/>
<path d="M498.209 429.873H491.589L488.44 404.343L498.21 404.344L498.209 429.873Z" fill="#FFB8B8"/>
<path d="M499.897 436.29L478.553 436.289V436.019C478.553 434.928 478.768 433.848 479.185 432.84C479.603 431.833 480.215 430.917 480.986 430.145C481.757 429.374 482.673 428.762 483.681 428.345C484.689 427.927 485.769 427.712 486.86 427.713H486.861L499.897 427.713L499.897 436.29Z" fill="#2F2E41"/>
<path d="M562.657 421.146L525.782 338.864C525.715 338.71 525.602 338.58 525.459 338.493C525.315 338.405 525.148 338.365 524.981 338.377C524.813 338.389 524.653 338.452 524.523 338.559C524.394 338.666 524.3 338.81 524.256 338.972L501.788 418.447C501.64 419.003 501.298 419.488 500.824 419.814C500.35 420.141 499.775 420.287 499.202 420.227L486.931 419C486.299 418.934 485.718 418.624 485.311 418.136C484.903 417.648 484.702 417.02 484.75 416.386C488.653 367.847 494.806 322.036 513.237 292.047L513.335 291.887L541.215 297.354L578.435 415.866C578.619 416.477 578.557 417.135 578.261 417.7C577.966 418.265 577.461 418.692 576.855 418.89L565.631 422.497C565.056 422.684 564.432 422.649 563.882 422.399C563.331 422.149 562.894 421.702 562.657 421.146Z" fill="#2F2E41"/>
<path d="M526.81 249.898C534.134 249.898 540.072 243.961 540.072 236.638C540.072 229.315 534.134 223.378 526.81 223.378C519.486 223.378 513.549 229.315 513.549 236.638C513.549 243.961 519.486 249.898 526.81 249.898Z" fill="#FFB8B8"/>
<path d="M511.523 294.343L511.354 294.308L511.314 294.14C509.527 286.597 509.485 278.365 511.187 269.673C512.051 265.231 514.455 261.236 517.975 258.392C521.495 255.548 525.906 254.037 530.431 254.126C535.341 254.225 540.028 256.197 543.531 259.638C547.035 263.078 549.091 267.728 549.28 272.634C549.848 287.583 543.738 300.544 543.677 300.673L543.586 300.863L511.523 294.343Z" fill="url(#paint1_linear)"/>
<path d="M475.974 319.569C476.759 319.453 477.509 319.166 478.171 318.729C478.834 318.292 479.392 317.714 479.807 317.038C480.223 316.362 480.484 315.602 480.574 314.814C480.664 314.025 480.58 313.226 480.328 312.474L495.603 300.687L486.119 297.433L473.068 309.125C471.831 309.633 470.824 310.576 470.237 311.776C469.65 312.976 469.523 314.35 469.881 315.638C470.24 316.925 471.058 318.036 472.18 318.761C473.303 319.486 474.653 319.773 475.974 319.569V319.569Z" fill="#FFB8B8"/>
<path d="M484.317 310.68C483.819 310.974 483.233 311.08 482.664 310.98C482.095 310.88 481.581 310.579 481.214 310.133L477.018 305.06C476.805 304.802 476.647 304.503 476.555 304.182C476.463 303.86 476.438 303.523 476.482 303.192C476.526 302.86 476.638 302.541 476.811 302.255C476.984 301.969 477.215 301.721 477.488 301.528L495.512 288.783L517.258 260.033C517.873 259.046 518.723 258.229 519.733 257.655C520.744 257.08 521.881 256.768 523.043 256.745C523.609 256.741 524.174 256.79 524.731 256.892C525.835 257.088 526.874 257.548 527.762 258.233C528.649 258.917 529.358 259.807 529.827 260.824C530.319 261.868 530.554 263.013 530.514 264.166C530.473 265.318 530.159 266.445 529.596 267.451L513.493 293.527L513.458 293.584L484.317 310.68Z" fill="url(#paint2_linear)"/>
<path d="M529.182 235.815C528.204 234.207 526.047 233.753 524.175 233.937C522.302 234.12 520.481 234.778 518.599 234.764C513.375 234.723 509.342 228.356 511.539 223.616C513.34 219.729 517.839 218.022 521.909 216.682C530.442 213.873 540.244 211.174 547.988 215.729C550.455 217.223 552.479 219.349 553.85 221.887C555.221 224.425 555.89 227.283 555.787 230.166C555.613 233.75 554.24 237.432 555.401 240.828C556.741 244.745 560.988 246.847 565.001 247.863C572.037 249.646 579.455 249.359 586.535 250.957C593.614 252.556 600.869 256.8 602.778 263.802C604.031 268.401 602.723 273.352 600.557 277.599C598.347 281.931 595.276 285.767 591.531 288.871C587.787 291.975 583.448 294.282 578.781 295.651C574.114 297.02 569.216 297.421 564.388 296.832C559.56 296.242 554.904 294.672 550.703 292.22C542.144 287.223 535.965 278.777 532.281 269.577C530.193 264.21 528.722 258.623 527.898 252.924C527.073 247.588 527.773 242.197 529.268 237.009C529.338 236.815 529.367 236.608 529.352 236.403C529.338 236.197 529.279 235.997 529.182 235.815Z" fill="#2F2E41"/>
<path d="M577.023 437.065H467.902C467.75 437.065 467.604 437.004 467.496 436.897C467.389 436.789 467.328 436.643 467.328 436.491C467.328 436.338 467.389 436.192 467.496 436.085C467.604 435.977 467.75 435.916 467.902 435.916H577.023C577.175 435.916 577.321 435.977 577.429 436.085C577.537 436.192 577.597 436.338 577.597 436.491C577.597 436.643 577.537 436.789 577.429 436.897C577.321 437.004 577.175 437.065 577.023 437.065Z" fill="#CCCCCC"/>
<defs>
<linearGradient id="paint0_linear" x1="580.586" y1="220.614" x2="488.369" y2="262.138" gradientUnits="userSpaceOnUse">
<stop stop-color="#FFE66C"/>
<stop offset="0.871768" stop-color="#FE413F"/>
</linearGradient>
<linearGradient id="paint1_linear" x1="580.874" y1="227.513" x2="496.762" y2="310.342" gradientUnits="userSpaceOnUse">
<stop stop-color="#FFE66C"/>
<stop offset="0.871768" stop-color="#FE413F"/>
</linearGradient>
<linearGradient id="paint2_linear" x1="573.841" y1="225.849" x2="477.285" y2="338.27" gradientUnits="userSpaceOnUse">
<stop stop-color="#FFE66C"/>
<stop offset="0.871768" stop-color="#FE413F"/>
</linearGradient>
</defs>
</svg>
