<svg width="579" height="500" viewBox="0 0 579 500" fill="none" xmlns="http://www.w3.org/2000/svg">
<rect width="579" height="500" fill="white"/>
<path d="M537.707 37.2361H121.178V304H537.707V37.2361Z" fill="#E6E6E6"/>
<path d="M525.797 70.695H133.089V288.218H525.797V70.695Z" fill="white"/>
<path d="M537.529 37H121V54.6957H537.529V37Z" fill="#FE413F"/>
<path d="M134.15 49.3267C135.961 49.3267 137.43 47.8583 137.43 46.047C137.43 44.2356 135.961 42.7672 134.15 42.7672C132.339 42.7672 130.87 44.2356 130.87 46.047C130.87 47.8583 132.339 49.3267 134.15 49.3267Z" fill="white"/>
<path d="M146.599 49.3267C148.41 49.3267 149.879 47.8583 149.879 46.047C149.879 44.2356 148.41 42.7672 146.599 42.7672C144.788 42.7672 143.319 44.2356 143.319 46.047C143.319 47.8583 144.788 49.3267 146.599 49.3267Z" fill="white"/>
<path d="M159.048 49.3267C160.86 49.3267 162.328 47.8583 162.328 46.047C162.328 44.2356 160.86 42.7672 159.048 42.7672C157.237 42.7672 155.769 44.2356 155.769 46.047C155.769 47.8583 157.237 49.3267 159.048 49.3267Z" fill="white"/>
<path d="M258.215 88.5862H181.407V171.916H258.215V88.5862Z" fill="#E6E6E6"/>
<path d="M367.846 88.5862H291.038V171.916H367.846V88.5862Z" fill="#E6E6E6"/>
<path d="M477.477 88.5862H400.669V171.916H477.477V88.5862Z" fill="#E6E6E6"/>
<path d="M258.215 186.999H181.407V270.329H258.215V186.999Z" fill="#E6E6E6"/>
<path d="M367.846 186.999H291.038V270.329H367.846V186.999Z" fill="#E6E6E6"/>
<path d="M477.477 186.999H400.669V270.329H477.477V186.999Z" fill="#E6E6E6"/>
<path d="M309.602 208.415L323.636 202.867L325.268 230.608C325.268 230.608 328.205 239.093 327.226 242.357C327.226 242.357 327.879 247.905 326.247 248.232C324.615 248.558 320.046 249.211 319.72 248.884C319.393 248.558 319.393 247.579 319.393 247.579C319.393 247.579 316.13 249.863 315.803 252.474C315.803 252.474 302.096 256.717 301.77 252.801C301.443 248.884 308.623 245.621 308.623 245.621L314.171 237.135L309.602 208.415Z" fill="white"/>
<path d="M339.302 208.415L353.335 202.867L354.967 230.608C354.967 230.608 357.904 239.093 356.925 242.357C356.925 242.357 357.578 247.905 355.946 248.232C354.314 248.558 349.745 249.211 349.419 248.884C349.092 248.558 349.092 247.579 349.092 247.579C349.092 247.579 345.829 249.863 345.502 252.474C345.502 252.474 331.795 256.717 331.469 252.801C331.142 248.884 338.322 245.621 338.322 245.621L343.871 237.135L339.302 208.415Z" fill="white"/>
<path d="M340.674 101.289C340.674 101.289 337.686 109.639 341.148 113.404L338.262 123.323C338.262 123.323 348.517 154.089 345.587 158.386C345.587 158.386 334.648 163.856 312.77 156.433L321.658 121.955L320.388 107.402L322.146 100.565L326.053 100.175C326.053 100.175 323.709 108.965 328.006 110.332C332.304 111.7 336.496 100.394 336.496 100.394L340.674 101.289Z" fill="#3F3D56"/>
<path d="M202.676 155.19L206.447 156.733L224.444 133.079L230.101 160.847L233.872 160.161C236.291 136.222 238.263 111.804 235.843 100.255L221.873 99.6551L215.531 119.881L212.446 133.593L202.676 155.19Z" fill="white"/>
<path d="M431.546 100.063C431.546 100.063 426.399 107.218 426.65 110.105C426.902 112.992 430.165 160.062 430.165 160.062L437.822 160.439L435.562 126.548L437.445 117.385L442.09 160.062L451.504 160.313L443.094 104.959L441.462 100.063L431.546 100.063Z" fill="white"/>
<path d="M460.632 215.323C459.266 213.684 456.917 212.797 454.661 212.318C454.729 212.113 447.801 210.682 447.685 210.977L445.074 208.897L437.054 213.062L432.546 209.994L430.452 210.737C430.537 210.368 423.952 211.508 423.952 211.508C422.694 211.553 421.087 211.632 419.289 211.77C412.99 212.255 412.506 228.566 412.506 228.566C415.404 227.381 418.494 226.734 421.624 226.657L423.326 246.17C432.082 245.419 441.265 246.293 450.781 248.431L455.244 233.093L465.639 229.051C465.639 229.051 463.862 219.199 460.632 215.323Z" fill="#3F3D56"/>
<path d="M237.575 206.033C236.449 204.682 234.514 203.952 232.655 203.557C232.711 203.388 227.003 202.209 226.907 202.452L224.756 200.739L218.147 204.171L214.433 201.642L212.708 202.255C212.778 201.95 207.352 202.89 207.352 202.89C206.316 202.927 204.992 202.992 203.51 203.106C198.32 203.505 197.921 216.945 197.921 216.945C200.309 215.968 202.855 215.435 205.434 215.372L206.836 254.726C214.051 254.107 221.617 254.827 229.458 256.589L233.136 220.675L241.7 217.344C241.7 217.344 240.237 209.227 237.575 206.033Z" fill="white"/>
<path d="M410.929 449.049L330.507 465.51L328.674 465.323L258 458.19V368.627L344.516 354L407.275 361.319L407.298 361.716V361.903L410.929 449.049Z" fill="#E6E6E6"/>
<path opacity="0.1" d="M410.929 449.049L330.507 465.51L328.674 465.323V373.507L407.298 361.716L410.929 449.049Z" fill="black"/>
<path opacity="0.05" d="M407.298 361.903L407.275 361.926L328.674 373.507L258 368.627L344.516 354L407.275 361.319L407.298 361.716V361.903Z" fill="black"/>
<path d="M316.626 403.076L267.73 399.885L266.233 422.836L315.129 426.027L316.626 403.076Z" fill="white"/>
<path d="M304.662 409.811L278.717 408.118L278.196 416.101L304.141 417.794L304.662 409.811Z" fill="#FE413F"/>
<path d="M519.929 449.049L439.507 465.51L437.674 465.323L367 458.19V368.627L453.516 354L516.275 361.319L516.298 361.716V361.903L519.929 449.049Z" fill="#FE413F"/>
<path opacity="0.1" d="M519.929 449.049L439.507 465.51L437.674 465.323V373.507L516.298 361.716L519.929 449.049Z" fill="black"/>
<path opacity="0.05" d="M516.298 361.903L516.275 361.926L437.674 373.507L367 368.627L453.516 354L516.275 361.319L516.298 361.716V361.903Z" fill="black"/>
<path d="M425.626 403.076L376.73 399.885L375.233 422.836L424.129 426.027L425.626 403.076Z" fill="white"/>
<path d="M413.662 409.811L387.717 408.118L387.196 416.101L413.141 417.794L413.662 409.811Z" fill="#FE413F"/>
<path d="M51.6528 258.948C51.6528 258.948 47.044 314.475 46.0544 326.373C45.3759 333.831 43.7121 341.167 41.1066 348.186C41.1066 348.186 39.1275 352.153 39.1275 356.119V406.686C39.1275 406.686 35.1693 406.686 36.1588 410.653C37.1484 414.619 38.1379 421.559 38.1379 421.559H52.9813C52.9813 421.559 51.9918 418.585 54.9605 417.593C57.9291 416.602 54.9605 408.67 54.9605 408.67L70.7934 349.178L94.5429 299.602C94.5429 299.602 108.397 344.22 111.365 349.178C111.365 349.178 122.251 404.703 124.23 409.661C126.209 414.619 127.198 414.619 126.209 416.602C125.219 418.585 125.219 420.568 126.209 421.559C127.198 422.551 146 421.559 146 421.559L141.052 351.161L132.146 266.881L86.6264 253L51.6528 258.948Z" fill="#2F2E41"/>
<path d="M49.0883 413.448C49.0883 413.448 44.1766 395.222 36.3178 409.398C28.4591 423.574 28.4591 428.637 28.4591 428.637C28.4591 428.637 15.6886 447.876 33.3708 445.851C51.053 443.826 47.1236 434.712 47.1236 434.712C47.1236 434.712 54 430.662 54 427.624C54 424.587 49.0883 413.448 49.0883 413.448Z" fill="#2F2E41"/>
<path d="M129.075 411.448C129.075 411.448 134.151 393.222 142.272 407.398C150.392 421.574 150.392 426.637 150.392 426.637C150.392 426.637 163.588 445.876 145.317 443.851C127.045 441.826 131.106 432.712 131.106 432.712C131.106 432.712 124 428.662 124 425.624C124 422.587 129.075 411.448 129.075 411.448Z" fill="#2F2E41"/>
<path d="M83.1344 125C83.1344 125 85.1248 138 79.1536 141C73.1824 144 92.0912 155 97.0672 155C102.043 155 111 145 111 145C111 145 106.024 130 107.019 127L83.1344 125Z" fill="#F89D9D"/>
<path d="M93.5 135C104.822 135 114 125.598 114 114C114 102.402 104.822 93 93.5 93C82.1782 93 73 102.402 73 114C73 125.598 82.1782 135 93.5 135Z" fill="#FFB8B8"/>
<path d="M134 156.799L109.405 141.832C109.405 141.832 95.4109 157.787 80.2711 140L54.309 146.917L58.2444 214.114C58.2444 214.114 52.3414 240.795 54.309 245.736C56.2767 250.676 49.3898 252.653 51.3575 253.641C53.3252 254.629 51.3575 261.547 51.3575 261.547C51.3575 261.547 89.7273 281.31 132.032 266.487L128.097 253.641C128.633 251.962 128.733 250.173 128.389 248.444C128.044 246.715 127.267 245.102 126.129 243.759C126.129 243.759 130.065 237.83 125.145 232.889C125.145 232.889 127.113 223.996 122.194 220.043L121.21 206.208L124.162 199.291L134 156.799Z" fill="#CFCCE0"/>
<path d="M83.268 104.112C83.268 104.112 80.7908 109.433 90.6998 107.305C90.6998 107.305 94.4157 109.433 94.4157 106.241C94.4157 106.241 99.3702 111.562 100.609 108.369C101.847 105.177 104.325 109.433 104.325 109.433L106.802 104.112L109.279 107.305H117.949C117.949 107.305 120.427 86.0212 90.6997 88.1496C60.9728 90.278 75.5969 124 75.5969 124C75.5969 124 75.8363 117.947 78.3135 121.139C80.7908 124.332 83.268 104.112 83.268 104.112Z" fill="#2F2E41"/>
<path d="M143.075 196L144.038 216.994C144.038 216.994 147.887 255.982 140.188 272.977V281.975C140.188 281.975 138.263 304.968 128.639 303.968C119.015 302.969 131.526 270.978 131.526 270.978L129.601 226.991L127.676 201.998L143.075 196Z" fill="#FFB8B8"/>
<path d="M123 157.601L132.976 156C140.161 162.82 145.056 171.652 147 181.307C150 197.11 151 200.074 151 200.074L127 206L114 181.307L123 157.601Z" fill="#CFCCE0"/>
<path d="M237 146H81V224H237V146Z" fill="white"/>
<path d="M97.9922 151.197C93.8662 148.723 88.8913 148.912 87 149.101C87.7202 150.854 89.8813 155.326 94.0072 157.801C98.1432 160.282 103.112 160.087 105 159.899C104.28 158.147 102.119 153.673 97.9922 151.197Z" fill="url(#paint0_linear)"/>
<path d="M116.41 199H91.5904C90.8565 198.999 90.1297 199.141 89.4515 199.417C88.7733 199.693 88.1569 200.098 87.6377 200.609C87.1186 201.12 86.7067 201.726 86.4257 202.394C86.1446 203.062 86 203.777 86 204.5C86 205.223 86.1446 205.938 86.4257 206.606C86.7067 207.274 87.1186 207.88 87.6377 208.391C88.1569 208.902 88.7733 209.307 89.4515 209.583C90.1297 209.859 90.8565 210.001 91.5904 210H116.41C117.143 210.001 117.87 209.859 118.548 209.583C119.227 209.307 119.843 208.902 120.362 208.391C120.881 207.88 121.293 207.274 121.574 206.606C121.855 205.938 122 205.223 122 204.5C122 203.777 121.855 203.062 121.574 202.394C121.293 201.726 120.881 201.12 120.362 200.609C119.843 200.098 119.227 199.693 118.548 199.417C117.87 199.141 117.143 198.999 116.41 199Z" fill="url(#paint1_linear)"/>
<path d="M230.508 139H89.4916C87.8512 139 86.2268 139.324 84.7113 139.954C83.1957 140.584 81.8186 141.507 80.6587 142.671C79.4987 143.835 78.5786 145.216 77.9509 146.737C77.3231 148.257 77 149.887 77 151.533V220.467C77 223.791 78.3161 226.979 80.6587 229.329C83.0013 231.68 86.1786 233 89.4916 233H230.508C233.821 233 236.999 231.68 239.341 229.329C241.684 226.979 243 223.791 243 220.467V151.533C243 149.887 242.677 148.257 242.049 146.737C241.421 145.216 240.501 143.835 239.341 142.671C238.181 141.507 236.804 140.584 235.289 139.954C233.773 139.324 232.149 139 230.508 139ZM86.0026 147.549C86.281 147.499 92.8843 146.371 98.3521 149.672C103.82 152.973 105.92 159.355 106.007 159.625L106.228 160.313L105.518 160.439C104.506 160.598 103.483 160.673 102.458 160.665C99.2083 160.727 96.0008 159.916 93.1686 158.316C87.7011 155.016 85.6007 148.634 85.5141 148.364L85.293 147.676L86.0026 147.549ZM231.053 210.289C231.047 212.295 230.25 214.217 228.837 215.635C227.423 217.054 225.507 217.853 223.508 217.859H204.644C202.645 217.853 200.729 217.054 199.315 215.635C197.901 214.217 197.104 212.295 197.098 210.289V198.933C197.104 196.927 197.901 195.005 199.315 193.586C200.729 192.168 202.645 191.368 204.644 191.362H223.508C225.507 191.368 227.423 192.168 228.837 193.586C230.25 195.005 231.047 196.927 231.053 198.933V210.289Z" fill="url(#paint2_linear)"/>
<path d="M210.725 208H202.275C201.672 208 201.093 208.263 200.666 208.732C200.24 209.201 200 209.837 200 210.5C200 211.163 200.24 211.799 200.666 212.268C201.093 212.737 201.672 213 202.275 213H210.725C211.328 213 211.907 212.737 212.334 212.268C212.76 211.799 213 211.163 213 210.5C213 209.837 212.76 209.201 212.334 208.732C211.907 208.263 211.328 208 210.725 208ZM210.725 211.571H202.275C202.147 211.572 202.02 211.544 201.901 211.491C201.782 211.437 201.675 211.358 201.584 211.259C201.493 211.159 201.421 211.041 201.372 210.911C201.323 210.78 201.297 210.641 201.297 210.5C201.297 210.359 201.323 210.219 201.372 210.089C201.421 209.959 201.493 209.841 201.584 209.741C201.675 209.642 201.782 209.563 201.901 209.509C202.02 209.456 202.147 209.428 202.275 209.429H210.725C210.983 209.429 211.23 209.543 211.413 209.743C211.595 209.944 211.697 210.216 211.697 210.5C211.697 210.784 211.595 211.056 211.413 211.257C211.23 211.457 210.983 211.571 210.725 211.571Z" fill="url(#paint3_linear)"/>
<path d="M225.725 208H217.275C216.672 208 216.093 208.263 215.666 208.732C215.24 209.201 215 209.837 215 210.5C215 211.163 215.24 211.799 215.666 212.268C216.093 212.737 216.672 213 217.275 213H225.725C226.328 213 226.907 212.737 227.334 212.268C227.76 211.799 228 211.163 228 210.5C228 209.837 227.76 209.201 227.334 208.732C226.907 208.263 226.328 208 225.725 208ZM225.725 211.571H217.275C217.147 211.572 217.02 211.544 216.901 211.491C216.782 211.437 216.675 211.358 216.584 211.259C216.493 211.159 216.421 211.041 216.372 210.911C216.323 210.78 216.297 210.641 216.297 210.5C216.297 210.359 216.323 210.219 216.372 210.089C216.421 209.959 216.493 209.841 216.584 209.741C216.675 209.642 216.782 209.563 216.901 209.509C217.02 209.456 217.147 209.428 217.275 209.429H225.725C225.983 209.429 226.23 209.543 226.413 209.743C226.595 209.944 226.697 210.216 226.697 210.5C226.697 210.784 226.595 211.056 226.413 211.257C226.23 211.457 225.983 211.571 225.725 211.571Z" fill="url(#paint4_linear)"/>
<path d="M210.725 202H202.275C201.672 202 201.093 202.263 200.666 202.732C200.24 203.201 200 203.837 200 204.5C200 205.163 200.24 205.799 200.666 206.268C201.093 206.737 201.672 207 202.275 207H210.725C211.328 207 211.907 206.737 212.334 206.268C212.76 205.799 213 205.163 213 204.5C213 203.837 212.76 203.201 212.334 202.732C211.907 202.263 211.328 202 210.725 202ZM210.725 205.571H202.275C202.147 205.571 202.02 205.544 201.902 205.49C201.784 205.436 201.676 205.357 201.586 205.258C201.495 205.158 201.423 205.04 201.374 204.91C201.325 204.78 201.3 204.641 201.3 204.5C201.3 204.359 201.325 204.22 201.374 204.09C201.423 203.96 201.495 203.842 201.586 203.742C201.676 203.643 201.784 203.564 201.902 203.51C202.02 203.456 202.147 203.429 202.275 203.429H210.725C210.853 203.429 210.98 203.456 211.098 203.51C211.216 203.564 211.324 203.643 211.414 203.742C211.505 203.842 211.577 203.96 211.626 204.09C211.675 204.22 211.7 204.359 211.7 204.5C211.7 204.641 211.675 204.78 211.626 204.91C211.577 205.04 211.505 205.158 211.414 205.258C211.324 205.357 211.216 205.436 211.098 205.49C210.98 205.544 210.853 205.571 210.725 205.571Z" fill="url(#paint5_linear)"/>
<path d="M225.725 202H217.275C216.672 202 216.093 202.263 215.666 202.732C215.24 203.201 215 203.837 215 204.5C215 205.163 215.24 205.799 215.666 206.268C216.093 206.737 216.672 207 217.275 207H225.725C226.328 207 226.907 206.737 227.334 206.268C227.76 205.799 228 205.163 228 204.5C228 203.837 227.76 203.201 227.334 202.732C226.907 202.263 226.328 202 225.725 202ZM225.725 205.571H217.275C217.147 205.571 217.02 205.544 216.902 205.49C216.784 205.436 216.676 205.357 216.586 205.258C216.495 205.158 216.423 205.04 216.374 204.91C216.325 204.78 216.3 204.641 216.3 204.5C216.3 204.359 216.325 204.22 216.374 204.09C216.423 203.96 216.495 203.842 216.586 203.742C216.676 203.643 216.784 203.564 216.902 203.51C217.02 203.456 217.147 203.429 217.275 203.429H225.725C225.853 203.429 225.98 203.456 226.098 203.51C226.216 203.564 226.324 203.643 226.414 203.742C226.505 203.842 226.577 203.96 226.626 204.09C226.675 204.22 226.7 204.359 226.7 204.5C226.7 204.641 226.675 204.78 226.626 204.91C226.577 205.04 226.505 205.158 226.414 205.258C226.324 205.357 226.216 205.436 226.098 205.49C225.98 205.544 225.853 205.571 225.725 205.571Z" fill="url(#paint6_linear)"/>
<path d="M210.725 197H202.275C201.672 197 201.093 197.211 200.666 197.586C200.24 197.961 200 198.47 200 199C200 199.53 200.24 200.039 200.666 200.414C201.093 200.789 201.672 201 202.275 201H210.725C211.328 201 211.907 200.789 212.334 200.414C212.76 200.039 213 199.53 213 199C213 198.47 212.76 197.961 212.334 197.586C211.907 197.211 211.328 197 210.725 197ZM210.725 199.857H202.275C202.147 199.857 202.02 199.836 201.901 199.793C201.782 199.75 201.675 199.687 201.584 199.607C201.493 199.527 201.421 199.433 201.372 199.329C201.323 199.224 201.297 199.113 201.297 199C201.297 198.887 201.323 198.776 201.372 198.671C201.421 198.567 201.493 198.473 201.584 198.393C201.675 198.313 201.782 198.25 201.901 198.207C202.02 198.164 202.147 198.143 202.275 198.143H210.725C210.983 198.143 211.23 198.234 211.413 198.395C211.595 198.555 211.697 198.773 211.697 199C211.697 199.227 211.595 199.445 211.413 199.605C211.23 199.766 210.983 199.857 210.725 199.857Z" fill="url(#paint7_linear)"/>
<path d="M225.725 197H217.275C216.672 197 216.093 197.211 215.666 197.586C215.24 197.961 215 198.47 215 199C215 199.53 215.24 200.039 215.666 200.414C216.093 200.789 216.672 201 217.275 201H225.725C226.328 201 226.907 200.789 227.334 200.414C227.76 200.039 228 199.53 228 199C228 198.47 227.76 197.961 227.334 197.586C226.907 197.211 226.328 197 225.725 197ZM225.725 199.857H217.275C217.147 199.857 217.02 199.836 216.901 199.793C216.782 199.75 216.675 199.687 216.584 199.607C216.493 199.527 216.421 199.433 216.372 199.329C216.323 199.224 216.297 199.113 216.297 199C216.297 198.887 216.323 198.776 216.372 198.671C216.421 198.567 216.493 198.473 216.584 198.393C216.675 198.313 216.782 198.25 216.901 198.207C217.02 198.164 217.147 198.143 217.275 198.143H225.725C225.983 198.143 226.23 198.234 226.413 198.395C226.595 198.555 226.697 198.773 226.697 199C226.697 199.227 226.595 199.445 226.413 199.605C226.23 199.766 225.983 199.857 225.725 199.857Z" fill="url(#paint8_linear)"/>
<path d="M39.4048 184.087C39.4048 184.087 30.5671 222 41.3687 222C52.1703 222 77.7013 179.098 77.7013 179.098C77.7013 179.098 104.214 165.131 93.4127 160.142C82.6111 155.153 68.8637 168.124 68.8637 168.124L53.001 190.5L52.1702 179.098L39.4048 184.087Z" fill="#FFB8B8"/>
<path d="M60 152.933L54 147C54 147 42 153.921 41 160.843C40 167.764 35 189.517 35 189.517L53.5 191L59.5 182.101L60 152.933Z" fill="#CFCCE0"/>
<path d="M127.865 205.621C131.213 205.621 133.928 202.955 133.928 199.666C133.928 196.377 131.213 193.71 127.865 193.71C124.516 193.71 121.802 196.377 121.802 199.666C121.802 202.955 124.516 205.621 127.865 205.621Z" fill="#FF4040"/>
<path d="M123.776 201.788V197.168C123.776 197.112 123.786 197.055 123.807 197.003C123.829 196.95 123.86 196.902 123.9 196.862C123.94 196.822 123.987 196.79 124.039 196.769C124.092 196.748 124.148 196.737 124.204 196.738H126.746C126.859 196.739 126.967 196.784 127.047 196.865C127.127 196.946 127.172 197.055 127.173 197.168C127.173 197.283 127.128 197.393 127.048 197.475C126.968 197.557 126.86 197.604 126.746 197.607H124.639V199.04H126.452C126.564 199.043 126.671 199.09 126.749 199.171C126.828 199.253 126.872 199.361 126.872 199.475C126.872 199.588 126.828 199.697 126.749 199.778C126.671 199.859 126.564 199.906 126.452 199.909H124.639V201.349H126.746C126.858 201.352 126.965 201.399 127.043 201.481C127.122 201.562 127.166 201.671 127.166 201.784C127.166 201.897 127.122 202.006 127.043 202.087C126.965 202.168 126.858 202.215 126.746 202.218H124.227C124.212 202.218 124.212 202.211 124.212 202.211L124.204 202.218C124.148 202.219 124.092 202.208 124.04 202.186C123.988 202.164 123.941 202.133 123.901 202.093C123.862 202.053 123.83 202.005 123.809 201.953C123.787 201.9 123.776 201.844 123.776 201.788Z" fill="white"/>
<path d="M128.215 200.856C128.283 200.774 128.381 200.722 128.488 200.711C128.594 200.701 128.7 200.733 128.782 200.801C129.124 201.084 129.715 201.412 130.267 201.404C130.656 201.404 131.006 201.287 131.239 201.114C131.472 200.942 131.573 200.746 131.573 200.551C131.575 200.461 131.551 200.374 131.503 200.299C131.444 200.204 131.364 200.123 131.27 200.064C131.044 199.915 130.664 199.78 130.205 199.696H130.189C129.824 199.625 129.482 199.531 129.186 199.39C128.891 199.25 128.635 199.054 128.464 198.779C128.345 198.587 128.283 198.364 128.285 198.137C128.285 197.667 128.549 197.26 128.907 196.994C129.272 196.728 129.746 196.579 130.251 196.579C130.997 196.579 131.549 196.947 131.945 197.205C132.032 197.265 132.093 197.357 132.113 197.461C132.133 197.565 132.112 197.673 132.054 197.762C132.026 197.806 131.989 197.845 131.946 197.876C131.903 197.906 131.854 197.927 131.803 197.938C131.751 197.949 131.698 197.949 131.646 197.939C131.595 197.929 131.546 197.909 131.502 197.879C131.106 197.613 130.725 197.378 130.252 197.378C129.902 197.378 129.591 197.487 129.381 197.644C129.171 197.8 129.086 197.973 129.086 198.137C129.082 198.215 129.101 198.292 129.141 198.358C129.197 198.439 129.268 198.508 129.351 198.562C129.553 198.703 129.902 198.828 130.322 198.906H130.338C130.734 198.984 131.1 199.086 131.411 199.235C131.729 199.392 132.009 199.595 132.188 199.885C132.31 200.085 132.375 200.315 132.375 200.551C132.375 201.052 132.094 201.482 131.707 201.764C131.326 202.046 130.821 202.211 130.269 202.211C129.43 202.203 128.722 201.78 128.279 201.428C128.198 201.359 128.145 201.261 128.133 201.155C128.122 201.048 128.151 200.941 128.215 200.856Z" fill="white"/>
<path d="M110.351 200.999C110.351 200.606 110.152 200.359 109.914 200.182C109.727 200.051 109.517 199.96 109.295 199.912C109.271 199.905 109.263 199.897 109.256 199.897H107.957V202.031C107.957 202.081 107.937 202.13 107.902 202.165C107.867 202.2 107.819 202.22 107.77 202.22C107.72 202.22 107.672 202.2 107.637 202.165C107.602 202.13 107.582 202.081 107.582 202.031V197.007C107.583 196.961 107.601 196.917 107.632 196.883C107.662 196.849 107.704 196.827 107.75 196.822H109.281C109.628 196.824 109.965 196.945 110.235 197.164C110.505 197.384 110.693 197.69 110.767 198.031C110.842 198.373 110.799 198.73 110.646 199.044C110.493 199.358 110.238 199.609 109.924 199.758C109.948 199.772 109.974 199.785 110 199.797C110.352 199.997 110.719 200.39 110.719 200.999C110.719 201.314 110.75 201.507 110.788 201.623C110.801 201.673 110.827 201.718 110.864 201.754C110.907 201.749 110.951 201.759 110.988 201.781C111.025 201.803 111.054 201.837 111.071 201.877C111.083 201.926 111.078 201.978 111.055 202.024C111.033 202.069 110.995 202.105 110.948 202.124C110.918 202.128 110.887 202.131 110.856 202.132H110.841C110.742 202.132 110.581 202.054 110.497 201.885C110.406 201.708 110.351 201.453 110.351 200.999ZM109.281 197.2H107.957V199.527H109.312C109.61 199.511 109.89 199.379 110.094 199.159C110.298 198.94 110.409 198.649 110.405 198.349C110.401 198.048 110.282 197.761 110.072 197.547C109.863 197.332 109.579 197.208 109.281 197.2Z" fill="white"/>
<path d="M112.211 197.007C112.212 196.958 112.232 196.912 112.266 196.877C112.3 196.843 112.346 196.823 112.394 196.822H115.148C115.172 196.822 115.196 196.826 115.219 196.836C115.241 196.845 115.262 196.858 115.279 196.876C115.296 196.893 115.309 196.913 115.318 196.936C115.328 196.958 115.332 196.983 115.332 197.007C115.333 197.032 115.329 197.057 115.32 197.08C115.312 197.104 115.298 197.125 115.281 197.143C115.264 197.161 115.243 197.175 115.22 197.185C115.197 197.195 115.173 197.2 115.148 197.2H112.586V199.334H114.827C114.877 199.334 114.924 199.354 114.959 199.39C114.995 199.425 115.014 199.473 115.014 199.523C115.014 199.573 114.995 199.621 114.959 199.657C114.924 199.692 114.877 199.712 114.827 199.712H112.586V201.839H115.148C115.173 201.839 115.197 201.844 115.22 201.854C115.243 201.863 115.264 201.878 115.281 201.896C115.298 201.914 115.312 201.935 115.32 201.958C115.329 201.982 115.333 202.007 115.332 202.032C115.332 202.056 115.328 202.08 115.318 202.103C115.309 202.125 115.296 202.146 115.279 202.163C115.262 202.18 115.241 202.194 115.219 202.203C115.196 202.212 115.172 202.217 115.148 202.217H112.379C112.333 202.213 112.29 202.191 112.259 202.157C112.228 202.123 112.211 202.078 112.211 202.032V197.007Z" fill="white"/>
<path d="M116.945 202.216H116.914C116.868 202.212 116.825 202.191 116.794 202.157C116.763 202.123 116.746 202.078 116.746 202.031V197.007C116.747 196.958 116.767 196.912 116.801 196.877C116.835 196.843 116.881 196.823 116.93 196.822H117.932C119.408 196.822 120.609 198.04 120.609 199.527C120.608 200.241 120.325 200.926 119.823 201.43C119.321 201.934 118.641 202.217 117.932 202.216H116.945ZM117.932 201.838C118.543 201.838 119.129 201.594 119.56 201.159C119.992 200.724 120.235 200.134 120.235 199.519C120.235 198.904 119.992 198.314 119.56 197.879C119.129 197.444 118.543 197.199 117.932 197.199H117.12V201.839L117.932 201.838Z" fill="white"/>
<path d="M101.579 206.536C101.58 206.487 101.6 206.441 101.634 206.407C101.668 206.372 101.714 206.352 101.763 206.351H102.956C103.233 206.351 103.503 206.438 103.729 206.6C103.955 206.762 104.125 206.991 104.215 207.255C104.305 207.519 104.311 207.805 104.232 208.072C104.153 208.34 103.993 208.576 103.774 208.748C104.379 208.956 104.822 209.526 104.822 210.204C104.822 210.613 104.661 211.005 104.374 211.293C104.087 211.582 103.698 211.744 103.293 211.744H101.755C101.731 211.744 101.708 211.739 101.687 211.729C101.665 211.72 101.645 211.706 101.629 211.689C101.613 211.672 101.6 211.651 101.591 211.629C101.583 211.607 101.579 211.583 101.579 211.56V206.536ZM102.956 208.655C103.083 208.657 103.209 208.634 103.327 208.587C103.445 208.54 103.553 208.469 103.643 208.379C103.734 208.29 103.806 208.183 103.855 208.065C103.904 207.947 103.93 207.82 103.93 207.692C103.93 207.564 103.904 207.437 103.855 207.319C103.806 207.201 103.734 207.094 103.643 207.005C103.553 206.915 103.445 206.844 103.327 206.797C103.209 206.75 103.083 206.726 102.956 206.729H101.954V208.655H102.956ZM103.293 211.367C103.599 211.366 103.893 211.243 104.109 211.025C104.326 210.806 104.448 210.511 104.449 210.202C104.441 209.562 103.929 209.037 103.293 209.037H101.954V211.367H103.293Z" fill="white"/>
<path d="M105.862 206.536C105.863 206.487 105.883 206.441 105.917 206.406C105.952 206.372 105.998 206.352 106.046 206.351H108.8C108.824 206.351 108.848 206.356 108.87 206.365C108.893 206.374 108.913 206.388 108.93 206.405C108.947 206.422 108.961 206.442 108.97 206.465C108.979 206.488 108.984 206.512 108.983 206.536C108.984 206.561 108.98 206.586 108.972 206.609C108.963 206.633 108.95 206.654 108.932 206.672C108.915 206.69 108.895 206.704 108.872 206.714C108.849 206.724 108.825 206.729 108.8 206.729H106.237V208.863H108.479C108.528 208.864 108.575 208.885 108.61 208.921C108.644 208.957 108.663 209.006 108.662 209.056C108.661 209.105 108.641 209.151 108.607 209.186C108.573 209.22 108.527 209.24 108.479 209.241H106.237V211.367H108.8C108.825 211.367 108.849 211.372 108.872 211.381C108.895 211.391 108.915 211.405 108.932 211.423C108.95 211.441 108.963 211.463 108.972 211.486C108.98 211.509 108.984 211.534 108.983 211.559C108.984 211.584 108.979 211.608 108.97 211.63C108.961 211.653 108.947 211.674 108.93 211.691C108.913 211.708 108.893 211.722 108.87 211.731C108.848 211.74 108.824 211.745 108.8 211.744H106.031C105.985 211.741 105.942 211.719 105.911 211.685C105.88 211.651 105.862 211.606 105.863 211.56L105.862 206.536Z" fill="white"/>
<path d="M110.789 207.145V211.561C110.787 211.608 110.767 211.653 110.733 211.686C110.698 211.72 110.653 211.738 110.605 211.738C110.558 211.738 110.512 211.72 110.478 211.686C110.444 211.653 110.424 211.608 110.422 211.561V206.613C110.41 206.575 110.41 206.535 110.423 206.498C110.435 206.46 110.459 206.428 110.49 206.405C110.575 206.351 110.697 206.366 110.75 206.451L113.994 210.983V206.59C113.994 206.54 114.014 206.492 114.049 206.456C114.084 206.421 114.132 206.401 114.181 206.401C114.231 206.401 114.279 206.421 114.314 206.456C114.349 206.492 114.369 206.54 114.369 206.59V211.561C114.368 211.611 114.347 211.658 114.311 211.693C114.275 211.727 114.227 211.746 114.178 211.745C114.15 211.746 114.122 211.74 114.097 211.728C114.072 211.716 114.049 211.698 114.032 211.676C114.025 211.668 114.01 211.661 114.001 211.645L110.789 207.145Z" fill="white"/>
<path d="M115.799 206.536C115.8 206.487 115.82 206.441 115.854 206.406C115.888 206.372 115.934 206.352 115.983 206.351H118.736C118.76 206.351 118.784 206.356 118.807 206.365C118.829 206.374 118.85 206.388 118.867 206.405C118.884 206.422 118.897 206.442 118.906 206.465C118.916 206.488 118.92 206.512 118.92 206.536C118.921 206.561 118.917 206.586 118.908 206.609C118.899 206.633 118.886 206.654 118.869 206.672C118.852 206.69 118.831 206.704 118.808 206.714C118.786 206.724 118.761 206.729 118.736 206.729H116.174V208.863H118.415C118.465 208.864 118.512 208.885 118.546 208.921C118.581 208.957 118.6 209.006 118.599 209.056C118.598 209.105 118.578 209.151 118.544 209.186C118.51 209.22 118.463 209.24 118.415 209.241H116.174V211.367H118.736C118.761 211.367 118.786 211.372 118.808 211.381C118.831 211.391 118.852 211.405 118.869 211.423C118.886 211.441 118.899 211.463 118.908 211.486C118.917 211.509 118.921 211.534 118.92 211.559C118.92 211.584 118.916 211.608 118.906 211.63C118.897 211.653 118.884 211.673 118.867 211.691C118.85 211.708 118.829 211.721 118.807 211.731C118.784 211.74 118.76 211.744 118.736 211.744H115.969C115.923 211.74 115.88 211.719 115.848 211.685C115.817 211.651 115.8 211.606 115.8 211.559L115.799 206.536Z" fill="white"/>
<path d="M120.335 206.536C120.335 206.488 120.354 206.443 120.386 206.408C120.419 206.374 120.464 206.353 120.511 206.351H123.281C123.331 206.351 123.379 206.371 123.414 206.407C123.449 206.442 123.469 206.49 123.469 206.54C123.469 206.59 123.449 206.638 123.414 206.674C123.379 206.709 123.331 206.729 123.281 206.729H120.71V208.864H122.96C123.01 208.864 123.057 208.883 123.093 208.919C123.128 208.954 123.147 209.002 123.147 209.052C123.147 209.103 123.128 209.151 123.093 209.186C123.057 209.221 123.01 209.241 122.96 209.241H120.71V211.561C120.71 211.611 120.69 211.659 120.655 211.694C120.62 211.73 120.572 211.75 120.522 211.75C120.473 211.75 120.425 211.73 120.39 211.694C120.355 211.659 120.335 211.611 120.335 211.561V206.536Z" fill="white"/>
<path d="M125.017 206.536C125.017 206.486 125.036 206.438 125.072 206.403C125.107 206.367 125.154 206.347 125.204 206.347C125.254 206.347 125.302 206.367 125.337 206.403C125.372 206.438 125.392 206.486 125.392 206.536V211.561C125.392 211.611 125.372 211.659 125.337 211.694C125.302 211.73 125.254 211.749 125.204 211.749C125.154 211.749 125.107 211.73 125.072 211.694C125.036 211.659 125.017 211.611 125.017 211.561V206.536Z" fill="white"/>
<path d="M129.844 206.274C130.469 206.275 131.077 206.483 131.573 206.868C131.657 206.937 131.672 207.068 131.604 207.137C131.59 207.158 131.572 207.175 131.551 207.188C131.53 207.202 131.507 207.21 131.482 207.214C131.458 207.218 131.433 207.216 131.409 207.21C131.385 207.203 131.363 207.191 131.344 207.176C130.916 206.837 130.388 206.653 129.844 206.652C128.506 206.652 127.435 207.708 127.435 209.025C127.435 210.312 128.506 211.368 129.844 211.368C130.41 211.368 130.93 211.183 131.328 210.844C131.42 210.781 131.542 210.797 131.596 210.89C131.672 210.959 131.658 211.098 131.573 211.16C131.076 211.541 130.468 211.747 129.844 211.744C128.306 211.744 127.06 210.527 127.06 209.024C127.059 207.492 128.306 206.282 129.844 206.274Z" fill="white"/>
<path d="M133.247 206.536C133.247 206.486 133.267 206.438 133.302 206.403C133.337 206.367 133.385 206.347 133.435 206.347C133.484 206.347 133.532 206.367 133.567 206.403C133.602 206.438 133.622 206.486 133.622 206.536V211.561C133.622 211.611 133.602 211.659 133.567 211.694C133.532 211.73 133.484 211.749 133.435 211.749C133.385 211.749 133.337 211.73 133.302 211.694C133.267 211.659 133.247 211.611 133.247 211.561V206.536Z" fill="white"/>
<path d="M137.875 206.274C139.306 206.274 140.43 207.499 140.438 209.01C140.43 210.521 139.306 211.745 137.875 211.745C136.43 211.745 135.298 210.52 135.29 209.01C135.298 207.499 136.43 206.274 137.875 206.274ZM137.875 211.368C139.053 211.368 140.048 210.329 140.055 209.01C140.048 207.677 139.053 206.66 137.875 206.66C136.659 206.66 135.665 207.677 135.665 209.01C135.665 210.328 136.659 211.367 137.875 211.367V211.368Z" fill="white"/>
<path d="M127.865 193.703C129.278 193.702 130.644 194.215 131.711 195.147C132.779 196.079 133.476 197.369 133.675 198.778L133.421 198.471L133.122 198.723L133.919 199.683L134.593 198.709L134.274 198.485L134.068 198.782C133.862 197.223 133.085 195.798 131.89 194.786C130.694 193.775 129.167 193.25 127.607 193.315C126.047 193.38 124.568 194.03 123.459 195.137C122.351 196.245 121.693 197.729 121.615 199.3L122.004 199.319C122.077 197.804 122.727 196.375 123.818 195.329C124.91 194.283 126.359 193.701 127.865 193.703Z" fill="white"/>
<path d="M131.932 204.011C130.833 204.989 129.389 205.527 127.866 205.527C126.343 205.527 124.893 204.986 123.793 204.004C122.836 203.15 122.227 202.039 122.047 200.834L122.266 201.11L122.57 200.867L121.797 199.887L121.153 200.915L121.482 201.124L121.656 200.846C121.841 202.159 122.496 203.37 123.535 204.297C124.706 205.342 126.244 205.918 127.866 205.918C129.488 205.918 131.02 205.345 132.19 204.304C133.36 203.263 134.046 201.861 134.123 200.357L133.735 200.337C133.664 201.735 133.024 203.039 131.932 204.011Z" fill="white"/>
<defs>
<linearGradient id="paint0_linear" x1="92.2457" y1="149" x2="107.801" y2="149.397" gradientUnits="userSpaceOnUse">
<stop stop-color="#FE413F"/>
<stop offset="1" stop-color="#FFE568"/>
</linearGradient>
<linearGradient id="paint1_linear" x1="96.4914" y1="199" x2="127.542" y2="200.586" gradientUnits="userSpaceOnUse">
<stop stop-color="#FE413F"/>
<stop offset="1" stop-color="#FFE568"/>
</linearGradient>
<linearGradient id="paint2_linear" x1="125.377" y1="139" x2="268.82" y2="142.952" gradientUnits="userSpaceOnUse">
<stop stop-color="#FE413F"/>
<stop offset="1" stop-color="#FFE568"/>
</linearGradient>
<linearGradient id="paint3_linear" x1="203.789" y1="208" x2="215.012" y2="208.455" gradientUnits="userSpaceOnUse">
<stop stop-color="#FE413F"/>
<stop offset="1" stop-color="#FFE568"/>
</linearGradient>
<linearGradient id="paint4_linear" x1="218.789" y1="208" x2="230.012" y2="208.455" gradientUnits="userSpaceOnUse">
<stop stop-color="#FE413F"/>
<stop offset="1" stop-color="#FFE568"/>
</linearGradient>
<linearGradient id="paint5_linear" x1="203.789" y1="202" x2="215.012" y2="202.455" gradientUnits="userSpaceOnUse">
<stop stop-color="#FE413F"/>
<stop offset="1" stop-color="#FFE568"/>
</linearGradient>
<linearGradient id="paint6_linear" x1="218.789" y1="202" x2="230.012" y2="202.455" gradientUnits="userSpaceOnUse">
<stop stop-color="#FE413F"/>
<stop offset="1" stop-color="#FFE568"/>
</linearGradient>
<linearGradient id="paint7_linear" x1="203.789" y1="197" x2="215.002" y2="197.569" gradientUnits="userSpaceOnUse">
<stop stop-color="#FE413F"/>
<stop offset="1" stop-color="#FFE568"/>
</linearGradient>
<linearGradient id="paint8_linear" x1="218.789" y1="197" x2="230.002" y2="197.569" gradientUnits="userSpaceOnUse">
<stop stop-color="#FE413F"/>
<stop offset="1" stop-color="#FFE568"/>
</linearGradient>
</defs>
</svg>
