<svg width="694" height="484" viewBox="0 0 694 484" fill="none" xmlns="http://www.w3.org/2000/svg">
<rect width="694" height="484" fill="white"/>
<path opacity="0.5" d="M212.972 310.918C174.149 296.202 129.759 283.745 93.4875 304.893C88.8904 307.573 84.3607 310.948 81.8837 315.969C75.3415 329.179 85.7405 346.31 80.6722 360.273C75.604 374.236 56.5291 381.266 58.0906 396.182C58.5012 400.081 60.4262 403.61 62.6944 406.652C76.903 425.696 102.951 427.623 124.967 422.897C146.983 418.172 168.515 408.373 190.928 409.606C212.467 410.824 232.282 422.159 252.017 431.699C285.287 447.826 324.143 459.397 357.386 443.189C372.618 435.76 385.211 423.111 399.79 414.28C419.437 402.488 442.02 397.942 464.203 401.314C479.011 403.603 493.145 409.362 507.637 413.335C540.55 422.351 574.904 422.056 608.82 421.701C615.133 421.635 621.547 421.553 627.598 419.575C636.557 416.621 643.947 409.82 651.062 403.167C660.411 394.432 670.258 384.833 673.273 371.77C676.834 356.264 669.464 339.782 658.533 329.245C647.602 318.708 633.629 312.949 619.993 307.396C616.627 306.037 613.033 304.657 609.587 305.683C607.325 306.362 605.421 308.016 603.731 309.796C594.052 320.015 585.875 337.301 572.676 334.525C567.964 333.536 564.107 329.94 560.379 326.617C540.469 308.895 513.687 295.212 489.659 305.004C472.085 312.166 459.68 330.56 441.87 337.05C429.203 341.673 415.439 339.672 402.112 340.573C382.727 341.872 363.861 349.389 344.45 348.931C294.952 347.765 253.713 295.84 204.417 300.787C200.553 301.171 196.34 302.146 193.971 305.498" fill="#FE413F" fill-opacity="0.5"/>
<path d="M539.475 66H183.779C174.291 66 166.6 73.6914 166.6 83.1792V291.065C166.6 300.553 174.291 308.244 183.779 308.244H539.475C548.963 308.244 556.654 300.553 556.654 291.065V83.1792C556.654 73.6914 548.963 66 539.475 66Z" fill="#535461"/>
<path d="M547.621 101.311H174.812V299.211H547.621V101.311Z" fill="white"/>
<path d="M361.221 87.3519C363.036 87.3519 364.508 85.8804 364.508 84.0652C364.508 82.25 363.036 80.7786 361.221 80.7786C359.406 80.7786 357.935 82.25 357.935 84.0652C357.935 85.8804 359.406 87.3519 361.221 87.3519Z" fill="white"/>
<path d="M418.778 299.617L405.971 312.756H315.673L304.1 299.617H120.203C119.114 299.617 118.07 300.05 117.299 300.82C116.529 301.59 116.097 302.635 116.097 303.724V307.033C116.097 313.124 118.517 318.967 122.824 323.274C127.132 327.582 132.974 330.002 139.066 330.002H582.549C585.565 330.002 588.552 329.408 591.339 328.254C594.126 327.099 596.658 325.407 598.791 323.274C600.924 321.142 602.616 318.609 603.77 315.823C604.924 313.036 605.518 310.049 605.518 307.033V303.724C605.518 302.635 605.086 301.59 604.316 300.82C603.546 300.05 602.501 299.617 601.412 299.617H418.778Z" fill="#535461"/>
<path d="M222.443 113.63V281.966H500.811" stroke="#535461" stroke-width="2" stroke-miterlimit="10"/>
<path opacity="0.5" d="M275.813 231.056H247.075V275.399H275.813V231.056Z" fill="#FE413F"/>
<path opacity="0.7" d="M325.083 191.638H296.345V275.4H325.083V191.638Z" fill="#FE413F"/>
<path opacity="0.5" d="M374.353 215.45H345.615V275.392H374.353V215.45Z" fill="#FE413F"/>
<path opacity="0.8" d="M423.623 178.499H394.885V275.4H423.623V178.499Z" fill="#FE413F"/>
<path d="M472.893 144.008H444.155V275.392H472.893V144.008Z" fill="#FE413F"/>
<path d="M261.034 203.958L311.124 158.794L360.394 201.491L408.844 149.761L458.115 129.229" stroke="#535461" stroke-width="2" stroke-miterlimit="10"/>
<path d="M261.034 209.704C264.208 209.704 266.78 207.131 266.78 203.958C266.78 200.784 264.208 198.212 261.034 198.212C257.861 198.212 255.288 200.784 255.288 203.958C255.288 207.131 257.861 209.704 261.034 209.704Z" fill="#FE413F"/>
<path d="M359.574 206.417C362.748 206.417 365.32 203.844 365.32 200.671C365.32 197.497 362.748 194.925 359.574 194.925C356.401 194.925 353.828 197.497 353.828 200.671C353.828 203.844 356.401 206.417 359.574 206.417Z" fill="#FE413F"/>
<path d="M409.664 155.507C412.838 155.507 415.41 152.935 415.41 149.761C415.41 146.588 412.838 144.015 409.664 144.015C406.491 144.015 403.918 146.588 403.918 149.761C403.918 152.935 406.491 155.507 409.664 155.507Z" fill="#FE413F"/>
<path d="M311.124 163.713C314.297 163.713 316.87 161.14 316.87 157.967C316.87 154.793 314.297 152.221 311.124 152.221C307.951 152.221 305.378 154.793 305.378 157.967C305.378 161.14 307.951 163.713 311.124 163.713Z" fill="#FE413F"/>
<path d="M458.114 134.975C461.288 134.975 463.86 132.403 463.86 129.229C463.86 126.056 461.288 123.483 458.114 123.483C454.941 123.483 452.368 126.056 452.368 129.229C452.368 132.403 454.941 134.975 458.114 134.975Z" fill="#FE413F"/>
<path d="M295.603 304.214L217.654 320.643C215.402 321.115 213.054 320.674 211.126 319.417C209.198 318.161 207.847 316.191 207.369 313.939L193.993 250.487C193.521 248.234 193.962 245.887 195.219 243.959C196.476 242.031 198.446 240.68 200.697 240.203L278.646 223.774C280.899 223.302 283.247 223.743 285.175 224.999C287.103 226.256 288.454 228.226 288.931 230.478L302.307 293.93C302.779 296.182 302.339 298.53 301.082 300.458C299.825 302.386 297.855 303.737 295.603 304.214Z" fill="white"/>
<path d="M295.603 304.214L217.654 320.643C215.402 321.115 213.054 320.674 211.126 319.417C209.198 318.161 207.847 316.191 207.369 313.939L193.993 250.487C193.521 248.234 193.962 245.887 195.219 243.959C196.476 242.031 198.446 240.68 200.697 240.203L278.646 223.774C280.899 223.302 283.247 223.743 285.175 224.999C287.103 226.256 288.454 228.226 288.931 230.478L302.307 293.93C302.779 296.182 302.339 298.53 301.082 300.458C299.825 302.386 297.855 303.737 295.603 304.214ZM200.908 241.202C198.921 241.623 197.183 242.815 196.074 244.516C194.965 246.217 194.576 248.289 194.993 250.276L208.369 313.729C208.79 315.715 209.982 317.453 211.683 318.562C213.384 319.671 215.456 320.06 217.444 319.643L295.393 303.215C297.379 302.794 299.118 301.602 300.227 299.901C301.336 298.199 301.725 296.128 301.308 294.141L287.932 230.688C287.511 228.702 286.319 226.963 284.618 225.855C282.916 224.746 280.845 224.357 278.857 224.774L200.908 241.202Z" fill="#3F3D56"/>
<path d="M273.803 244.696L234.463 252.988C234.119 253.067 233.757 253.014 233.451 252.837C233.145 252.661 232.917 252.374 232.814 252.036C232.767 251.86 232.756 251.676 232.783 251.495C232.809 251.315 232.872 251.142 232.967 250.986C233.063 250.831 233.189 250.696 233.338 250.591C233.487 250.486 233.656 250.412 233.835 250.375L273.88 241.935C275.444 242.816 274.95 244.455 273.803 244.696L273.803 244.696Z" fill="#CCCCCC"/>
<path d="M275.258 251.596L235.918 259.888C235.574 259.967 235.212 259.914 234.906 259.737C234.6 259.561 234.372 259.274 234.269 258.936C234.222 258.76 234.211 258.576 234.238 258.395C234.264 258.215 234.327 258.042 234.422 257.886C234.518 257.731 234.644 257.596 234.793 257.491C234.942 257.386 235.111 257.312 235.29 257.275L275.335 248.835C276.899 249.716 276.405 251.355 275.258 251.596L275.258 251.596Z" fill="#CCCCCC"/>
<path d="M228.242 265.609L216.236 268.139C215.843 268.221 215.435 268.144 215.099 267.926C214.764 267.707 214.528 267.364 214.445 266.972L211.459 252.805C211.377 252.413 211.453 252.005 211.672 251.669C211.891 251.333 212.234 251.098 212.626 251.015L224.632 248.485C225.024 248.403 225.433 248.48 225.768 248.698C226.104 248.917 226.339 249.26 226.422 249.652L229.409 263.818C229.491 264.211 229.414 264.619 229.195 264.955C228.977 265.29 228.634 265.526 228.242 265.609V265.609Z" fill="#CCCCCC"/>
<path d="M278.121 265.748L218.081 278.402C217.737 278.482 217.375 278.428 217.069 278.251C216.763 278.075 216.536 277.789 216.432 277.451C216.385 277.274 216.374 277.09 216.401 276.91C216.427 276.729 216.49 276.556 216.585 276.4C216.681 276.245 216.807 276.111 216.956 276.005C217.105 275.9 217.274 275.827 217.453 275.789L278.199 262.986C279.763 263.867 279.268 265.506 278.121 265.748Z" fill="#CCCCCC"/>
<path d="M279.576 272.65L219.537 285.304C219.192 285.384 218.831 285.33 218.524 285.153C218.218 284.977 217.991 284.69 217.887 284.352C217.84 284.176 217.83 283.992 217.856 283.812C217.882 283.631 217.945 283.458 218.04 283.302C218.136 283.147 218.262 283.012 218.411 282.907C218.56 282.802 218.729 282.729 218.908 282.691L279.654 269.888C281.218 270.769 280.723 272.408 279.576 272.65Z" fill="#CCCCCC"/>
<path d="M281.03 279.547L220.991 292.201C220.646 292.281 220.285 292.227 219.978 292.051C219.672 291.874 219.445 291.588 219.342 291.25C219.294 291.074 219.284 290.89 219.31 290.709C219.336 290.528 219.399 290.355 219.495 290.2C219.59 290.044 219.716 289.91 219.865 289.805C220.015 289.7 220.184 289.626 220.362 289.588L281.108 276.785C282.672 277.666 282.178 279.305 281.03 279.547Z" fill="#CCCCCC"/>
<path d="M282.485 286.448L222.446 299.102C222.101 299.182 221.74 299.128 221.434 298.952C221.127 298.775 220.9 298.489 220.797 298.151C220.749 297.975 220.739 297.791 220.765 297.61C220.791 297.429 220.854 297.256 220.95 297.101C221.045 296.945 221.171 296.811 221.32 296.706C221.47 296.601 221.639 296.527 221.817 296.489L282.563 283.686C284.127 284.567 283.633 286.206 282.485 286.448Z" fill="#CCCCCC"/>
<path d="M283.94 293.346L223.9 306C223.556 306.08 223.194 306.026 222.888 305.849C222.582 305.673 222.354 305.387 222.251 305.049C222.204 304.872 222.193 304.688 222.219 304.508C222.245 304.327 222.308 304.154 222.404 303.998C222.499 303.843 222.625 303.709 222.775 303.603C222.924 303.498 223.093 303.425 223.271 303.387L284.017 290.584C285.581 291.465 285.087 293.104 283.94 293.346Z" fill="#CCCCCC"/>
<path d="M294.538 261.757C294.402 262.004 294.285 262.262 294.189 262.528L269.61 268.627L265.334 264.203L257.814 269.783L264.623 278.349C265.173 279.041 265.933 279.536 266.788 279.76C267.643 279.983 268.548 279.923 269.367 279.589L296.038 268.692C296.914 269.337 297.967 269.7 299.055 269.733C300.143 269.765 301.215 269.466 302.129 268.874C303.042 268.283 303.754 267.427 304.17 266.421C304.585 265.415 304.685 264.306 304.455 263.242C304.225 262.179 303.676 261.21 302.882 260.465C302.088 259.721 301.086 259.236 300.01 259.074C298.933 258.913 297.833 259.083 296.856 259.563C295.878 260.042 295.07 260.807 294.538 261.757L294.538 261.757Z" fill="#FFB8B8"/>
<path d="M210.639 316.03C211.405 315.793 212.11 315.391 212.705 314.853C213.299 314.314 213.768 313.652 214.078 312.912C214.389 312.173 214.533 311.375 214.502 310.573C214.47 309.772 214.264 308.987 213.896 308.275L230.811 261.265L219.064 259.183L206.131 306.047C204.974 306.744 204.114 307.84 203.712 309.129C203.31 310.418 203.395 311.81 203.951 313.04C204.506 314.271 205.494 315.255 206.727 315.806C207.959 316.357 209.351 316.436 210.639 316.03Z" fill="#FFB8B8"/>
<path d="M228.663 269.61L217.065 265.159C216.735 265.032 216.436 264.836 216.189 264.583C215.941 264.331 215.751 264.028 215.632 263.696C215.512 263.363 215.465 263.009 215.495 262.656C215.525 262.304 215.63 261.963 215.804 261.655L221.888 250.868C222.546 249.183 223.844 247.829 225.5 247.1C227.155 246.372 229.031 246.33 230.718 246.982C232.404 247.635 233.763 248.93 234.496 250.583C235.229 252.236 235.277 254.112 234.629 255.8L231.945 267.849C231.868 268.194 231.718 268.518 231.504 268.8C231.29 269.081 231.019 269.314 230.707 269.481C230.396 269.648 230.052 269.746 229.699 269.768C229.346 269.79 228.993 269.736 228.663 269.61V269.61Z" fill="#FE413F"/>
<path d="M254.842 404.289L261.102 404.289L264.081 380.143L254.841 380.144L254.842 404.289Z" fill="#FFB8B8"/>
<path d="M253.245 402.245L265.574 402.245H265.575C266.607 402.245 267.628 402.448 268.582 402.843C269.535 403.238 270.401 403.816 271.131 404.546C271.86 405.275 272.439 406.141 272.834 407.094C273.229 408.048 273.432 409.069 273.432 410.101V410.356L253.246 410.357L253.245 402.245Z" fill="#2F2E41"/>
<path d="M219.606 404.289L225.867 404.289L228.845 380.143L219.605 380.144L219.606 404.289Z" fill="#FFB8B8"/>
<path d="M218.01 402.245L230.339 402.245H230.339C231.371 402.245 232.393 402.448 233.346 402.843C234.299 403.238 235.166 403.816 235.895 404.546C236.625 405.275 237.204 406.141 237.598 407.094C237.993 408.048 238.197 409.069 238.197 410.101V410.356L218.01 410.357L218.01 402.245Z" fill="#2F2E41"/>
<path d="M226.17 394.571H218.247C217.936 394.571 217.628 394.508 217.343 394.385C217.057 394.263 216.799 394.084 216.584 393.859C216.37 393.634 216.203 393.367 216.094 393.076C215.986 392.785 215.937 392.474 215.952 392.164L219.715 311.319L219.952 311.313L258.21 310.315L265.696 391.207C265.725 391.51 265.693 391.816 265.603 392.107C265.512 392.397 265.365 392.667 265.169 392.901C264.973 393.134 264.733 393.326 264.462 393.466C264.191 393.605 263.896 393.69 263.592 393.714L254.693 394.426C254.134 394.47 253.578 394.309 253.13 393.972C252.681 393.635 252.372 393.146 252.259 392.597L240.876 335.013C240.845 334.838 240.752 334.68 240.615 334.567C240.477 334.455 240.304 334.396 240.126 334.4H240.123C239.945 334.396 239.771 334.457 239.633 334.57C239.496 334.684 239.404 334.843 239.374 335.019L228.424 392.717C228.321 393.239 228.039 393.709 227.628 394.047C227.217 394.385 226.702 394.57 226.17 394.571Z" fill="#2F2E41"/>
<path d="M240.682 239.216C247.609 239.216 253.224 233.601 253.224 226.675C253.224 219.748 247.609 214.134 240.682 214.134C233.755 214.134 228.14 219.748 228.14 226.675C228.14 233.601 233.755 239.216 240.682 239.216Z" fill="#FFB8B8"/>
<path d="M236.477 320.793C230.499 320.793 224.359 319.222 219.269 314.576C218.998 314.331 218.789 314.025 218.659 313.683C218.528 313.342 218.48 312.974 218.519 312.611C219.063 307.716 221.706 282.444 220.218 265.562C219.928 262.409 220.374 259.231 221.522 256.28C222.67 253.329 224.489 250.685 226.834 248.557C229.138 246.433 231.904 244.874 234.914 244.003C237.923 243.132 241.094 242.971 244.177 243.535H244.177C244.333 243.563 244.489 243.593 244.645 243.623C254.687 245.566 261.663 254.858 260.874 265.237C259.722 280.381 258.689 300.866 260.311 312.451C260.378 312.925 260.295 313.408 260.074 313.833C259.853 314.257 259.505 314.602 259.078 314.819C255.388 316.683 246.145 320.793 236.477 320.793Z" fill="#FE413F"/>
<path d="M252.843 270.512C252.549 270.316 252.3 270.059 252.114 269.759C251.928 269.458 251.809 269.121 251.766 268.77L250.238 256.521C249.753 254.779 249.978 252.916 250.865 251.34C251.752 249.764 253.227 248.604 254.968 248.114C256.709 247.624 258.573 247.844 260.151 248.727C261.73 249.609 262.894 251.081 263.389 252.82L268.422 264.136C268.566 264.459 268.638 264.809 268.634 265.162C268.63 265.516 268.55 265.864 268.4 266.184C268.249 266.503 268.031 266.787 267.761 267.015C267.491 267.243 267.175 267.41 266.834 267.505L254.866 270.835C254.525 270.93 254.168 270.95 253.819 270.894C253.47 270.839 253.137 270.708 252.843 270.512Z" fill="#FE413F"/>
<path d="M236.303 239.038C235.116 239.061 233.937 238.847 232.832 238.411C232.347 238.223 231.842 238.069 231.357 237.882C227.075 236.228 224.254 231.667 224.153 227.078C224.051 222.488 226.429 218.033 229.958 215.098C233.488 212.162 238.06 210.655 242.638 210.306C247.569 209.931 253.121 211.181 255.877 215.287C256.61 216.38 257.123 217.706 256.689 219.026C256.559 219.424 256.326 219.782 256.015 220.062C254.784 221.156 253.557 220.333 252.303 220.261C250.578 220.161 249.03 221.556 248.473 223.191C247.917 224.826 248.162 226.626 248.611 228.293C248.953 229.296 249.169 230.339 249.254 231.395C249.29 231.925 249.19 232.456 248.964 232.936C248.738 233.417 248.393 233.832 247.961 234.142C246.884 234.793 245.469 234.416 244.391 233.766C243.313 233.116 242.381 232.212 241.217 231.733C240.052 231.255 238.488 231.361 237.81 232.422C237.594 232.808 237.449 233.229 237.379 233.665C236.771 236.433 236.911 236.27 236.303 239.038V239.038Z" fill="#2F2E41"/>
<path d="M291.681 411.046H194.657C194.522 411.046 194.392 410.992 194.296 410.897C194.2 410.801 194.146 410.671 194.146 410.536C194.146 410.4 194.2 410.27 194.296 410.175C194.392 410.079 194.522 410.025 194.657 410.025H291.681C291.817 410.025 291.946 410.079 292.042 410.175C292.138 410.27 292.192 410.4 292.192 410.536C292.192 410.671 292.138 410.801 292.042 410.897C291.946 410.992 291.817 411.046 291.681 411.046Z" fill="#CCCCCC"/>
<path d="M540.035 305.673L470.557 344.641C468.548 345.764 466.176 346.045 463.96 345.422C461.745 344.799 459.867 343.323 458.738 341.317L427.012 284.76C425.888 282.752 425.607 280.379 426.23 278.164C426.853 275.949 428.33 274.071 430.336 272.943L499.814 233.975C501.823 232.851 504.195 232.57 506.411 233.194C508.626 233.817 510.504 235.293 511.632 237.299L543.359 293.856C544.483 295.864 544.764 298.236 544.141 300.452C543.518 302.667 542.041 304.545 540.035 305.673Z" fill="white"/>
<path d="M540.035 305.673L470.557 344.641C468.548 345.764 466.176 346.045 463.96 345.422C461.745 344.799 459.867 343.323 458.738 341.317L427.012 284.76C425.888 282.752 425.607 280.379 426.23 278.164C426.853 275.949 428.33 274.071 430.336 272.943L499.814 233.975C501.823 232.851 504.195 232.57 506.411 233.194C508.626 233.817 510.504 235.293 511.632 237.299L543.359 293.856C544.483 295.864 544.764 298.236 544.141 300.452C543.518 302.667 542.041 304.545 540.035 305.673ZM430.836 273.834C429.066 274.829 427.763 276.486 427.213 278.44C426.663 280.395 426.911 282.488 427.902 284.26L459.629 340.817C460.625 342.587 462.282 343.89 464.237 344.44C466.192 344.99 468.285 344.742 470.057 343.75L539.535 304.782C541.305 303.787 542.608 302.13 543.158 300.175C543.708 298.221 543.46 296.128 542.468 294.355L510.742 237.799C509.746 236.029 508.089 234.726 506.134 234.176C504.179 233.626 502.086 233.874 500.314 234.866L430.836 273.834Z" fill="#3F3D56"/>
<path d="M501.444 255.388L466.379 275.055C466.075 275.234 465.713 275.29 465.368 275.213C465.023 275.136 464.721 274.931 464.521 274.639C464.424 274.485 464.358 274.313 464.329 274.133C464.301 273.953 464.309 273.768 464.353 273.592C464.398 273.415 464.478 273.249 464.589 273.104C464.7 272.959 464.839 272.838 464.999 272.749L500.692 252.729C502.448 253.103 502.466 254.815 501.443 255.388L501.444 255.388Z" fill="#CCCCCC"/>
<path d="M504.894 261.538L469.829 281.205C469.525 281.384 469.163 281.441 468.819 281.364C468.474 281.286 468.171 281.081 467.971 280.79C467.874 280.635 467.808 280.463 467.78 280.283C467.751 280.103 467.759 279.919 467.804 279.742C467.848 279.565 467.928 279.399 468.039 279.254C468.15 279.109 468.29 278.988 468.449 278.899L504.143 258.88C505.898 259.253 505.916 260.965 504.894 261.538L504.894 261.538Z" fill="#CCCCCC"/>
<path d="M464.213 288.958L453.512 294.96C453.162 295.155 452.749 295.204 452.364 295.096C451.978 294.987 451.651 294.73 451.455 294.381L444.371 281.754C444.176 281.404 444.127 280.991 444.235 280.606C444.344 280.22 444.601 279.893 444.95 279.697L455.651 273.695C456.001 273.499 456.414 273.451 456.8 273.559C457.185 273.667 457.512 273.924 457.708 274.274L464.792 286.901C464.988 287.25 465.037 287.663 464.928 288.049C464.82 288.435 464.563 288.761 464.213 288.958L464.213 288.958Z" fill="#CCCCCC"/>
<path d="M511.856 274.188L458.341 304.202C458.036 304.381 457.675 304.438 457.33 304.361C456.985 304.284 456.683 304.079 456.483 303.787C456.385 303.633 456.32 303.461 456.291 303.281C456.262 303.1 456.271 302.916 456.315 302.739C456.36 302.562 456.44 302.396 456.551 302.252C456.662 302.107 456.801 301.986 456.961 301.897L511.105 271.529C512.861 271.902 512.879 273.614 511.856 274.188Z" fill="#CCCCCC"/>
<path d="M515.307 280.339L461.792 310.354C461.488 310.533 461.126 310.59 460.781 310.513C460.437 310.436 460.134 310.231 459.934 309.939C459.837 309.785 459.771 309.612 459.742 309.432C459.714 309.252 459.722 309.068 459.766 308.891C459.811 308.714 459.891 308.548 460.002 308.403C460.113 308.258 460.253 308.138 460.412 308.048L514.556 277.68C516.312 278.054 516.33 279.766 515.307 280.339V280.339Z" fill="#CCCCCC"/>
<path d="M518.756 286.487L465.241 316.502C464.936 316.681 464.575 316.737 464.23 316.66C463.885 316.583 463.582 316.378 463.383 316.086C463.285 315.932 463.22 315.76 463.191 315.58C463.162 315.4 463.17 315.215 463.215 315.039C463.259 314.862 463.34 314.696 463.451 314.551C463.562 314.406 463.701 314.285 463.86 314.196L518.005 283.828C519.76 284.202 519.778 285.913 518.756 286.487Z" fill="#CCCCCC"/>
<path d="M522.207 292.638L468.692 322.653C468.387 322.832 468.026 322.889 467.681 322.812C467.336 322.735 467.033 322.53 466.834 322.238C466.736 322.084 466.671 321.911 466.642 321.731C466.613 321.551 466.621 321.367 466.666 321.19C466.711 321.013 466.791 320.847 466.902 320.702C467.013 320.557 467.152 320.436 467.311 320.347L521.456 289.979C523.211 290.353 523.229 292.065 522.207 292.638H522.207Z" fill="#CCCCCC"/>
<path d="M525.655 298.786L472.14 328.801C471.835 328.98 471.474 329.037 471.129 328.96C470.784 328.883 470.481 328.678 470.282 328.386C470.184 328.232 470.119 328.06 470.09 327.879C470.061 327.699 470.069 327.515 470.114 327.338C470.159 327.161 470.239 326.995 470.35 326.85C470.461 326.706 470.6 326.585 470.759 326.496L524.904 296.128C526.659 296.501 526.678 298.213 525.655 298.786V298.786Z" fill="#CCCCCC"/>
<path d="M516.319 321.827C516.61 321.184 516.757 320.485 516.749 319.779C516.741 319.074 516.579 318.378 516.273 317.742C515.967 317.106 515.526 316.545 514.979 316.098C514.433 315.651 513.796 315.329 513.112 315.155L511.656 298.063L504.657 303.584L507.112 318.969C506.896 320.137 507.116 321.344 507.731 322.361C508.345 323.378 509.311 324.134 510.446 324.486C511.581 324.839 512.806 324.762 513.888 324.272C514.97 323.782 515.835 322.912 516.319 321.827Z" fill="#FFB8B8"/>
<path d="M511.789 313.365L505.976 314.058C505.681 314.094 505.381 314.067 505.097 313.982C504.812 313.896 504.548 313.752 504.321 313.559C504.095 313.367 503.91 313.129 503.78 312.862C503.649 312.595 503.575 312.304 503.562 312.007L502.714 292.399L491.696 262.301C491.254 261.367 491.053 260.337 491.11 259.306C491.167 258.274 491.481 257.274 492.023 256.394C492.293 255.969 492.603 255.57 492.947 255.203C493.625 254.473 494.469 253.917 495.408 253.584C496.348 253.25 497.353 253.149 498.34 253.288C499.357 253.423 500.326 253.799 501.169 254.384C502.011 254.969 502.701 255.747 503.183 256.653L510.369 271.709C513.374 278.006 514.793 284.943 514.502 291.915L513.692 311.311C513.67 311.819 513.471 312.303 513.128 312.678C512.785 313.053 512.321 313.295 511.818 313.361L511.789 313.365Z" fill="url(#paint0_linear)"/>
<path d="M532.433 398.11L527.043 400.475L515.354 380.815L523.308 377.324L532.433 398.11Z" fill="#FFB8B8"/>
<path d="M536.101 402.73L518.723 410.357L518.627 410.137C518.237 409.249 518.026 408.293 518.006 407.323C517.985 406.353 518.156 405.389 518.508 404.486C518.861 403.582 519.388 402.756 520.059 402.056C520.731 401.356 521.533 400.795 522.422 400.405L522.422 400.405L533.035 395.747L536.101 402.73Z" fill="#2F2E41"/>
<path d="M460.079 404.652H454.193L451.394 381.952L460.08 381.953L460.079 404.652Z" fill="#FFB8B8"/>
<path d="M461.579 410.357L442.602 410.356V410.116C442.602 409.146 442.793 408.186 443.164 407.29C443.535 406.394 444.079 405.58 444.765 404.894C445.451 404.208 446.265 403.664 447.162 403.293C448.058 402.922 449.018 402.731 449.988 402.731H449.989L461.58 402.731L461.579 410.357Z" fill="#2F2E41"/>
<path d="M517.382 396.892L484.595 323.731C484.535 323.594 484.435 323.479 484.308 323.401C484.18 323.324 484.031 323.288 483.882 323.298C483.733 323.309 483.591 323.365 483.476 323.46C483.361 323.555 483.278 323.683 483.238 323.827L463.261 394.492C463.129 394.986 462.825 395.418 462.404 395.708C461.982 395.998 461.471 396.128 460.962 396.075L450.051 394.984C449.489 394.925 448.972 394.649 448.61 394.215C448.248 393.781 448.069 393.223 448.112 392.66C451.582 349.502 457.052 308.769 473.441 282.104L473.528 281.962L498.317 286.823L531.411 392.198C531.575 392.74 531.519 393.326 531.257 393.828C530.994 394.33 530.545 394.71 530.006 394.886L520.027 398.093C519.515 398.259 518.961 398.228 518.471 398.006C517.982 397.784 517.593 397.386 517.382 396.892Z" fill="#2F2E41"/>
<path d="M485.509 244.628C492.021 244.628 497.3 239.349 497.3 232.837C497.3 226.326 492.021 221.047 485.509 221.047C478.997 221.047 473.718 226.326 473.718 232.837C473.718 239.349 478.997 244.628 485.509 244.628Z" fill="#FFB8B8"/>
<path d="M471.917 284.145L471.767 284.114L471.731 283.965C470.143 277.258 470.105 269.939 471.619 262.211C472.387 258.261 474.524 254.709 477.654 252.18C480.784 249.651 484.706 248.308 488.729 248.386C493.095 248.475 497.262 250.228 500.377 253.288C503.492 256.347 505.321 260.481 505.488 264.844C505.994 278.135 500.561 289.659 500.506 289.774L500.425 289.943L471.917 284.145Z" fill="url(#paint1_linear)"/>
<path d="M440.308 306.575C441.007 306.472 441.674 306.217 442.263 305.828C442.852 305.439 443.348 304.926 443.717 304.325C444.086 303.723 444.319 303.048 444.399 302.347C444.479 301.646 444.404 300.936 444.18 300.267L457.761 289.786L449.329 286.893L437.725 297.289C436.625 297.74 435.73 298.579 435.208 299.646C434.685 300.713 434.573 301.935 434.891 303.08C435.21 304.224 435.937 305.212 436.936 305.857C437.934 306.501 439.134 306.757 440.308 306.575V306.575Z" fill="#FFB8B8"/>
<path d="M447.726 298.671C447.284 298.933 446.763 299.027 446.257 298.938C445.751 298.849 445.294 298.582 444.968 298.185L441.237 293.674C441.047 293.445 440.907 293.179 440.825 292.894C440.743 292.608 440.721 292.308 440.76 292.013C440.799 291.718 440.899 291.435 441.053 291.18C441.207 290.926 441.411 290.706 441.654 290.534L457.68 279.202L477.016 253.639C477.562 252.762 478.319 252.035 479.217 251.524C480.115 251.014 481.126 250.736 482.159 250.715C482.663 250.712 483.165 250.756 483.66 250.846C484.642 251.02 485.566 251.429 486.355 252.038C487.144 252.647 487.774 253.438 488.192 254.343C488.628 255.27 488.838 256.289 488.802 257.314C488.766 258.339 488.486 259.34 487.986 260.235L473.668 283.42L473.637 283.471L447.726 298.671Z" fill="url(#paint2_linear)"/>
<path d="M487.618 232.106C486.749 230.676 484.831 230.272 483.166 230.436C481.501 230.599 479.882 231.184 478.209 231.171C473.564 231.135 469.978 225.474 471.931 221.259C473.533 217.803 477.533 216.285 481.152 215.094C488.739 212.596 497.454 210.197 504.339 214.246C506.533 215.575 508.333 217.465 509.552 219.722C510.771 221.978 511.366 224.52 511.274 227.083C511.119 230.27 509.898 233.543 510.931 236.563C512.122 240.046 515.898 241.915 519.467 242.819C525.723 244.403 532.318 244.148 538.613 245.569C544.908 246.991 551.359 250.765 553.056 256.99C554.17 261.08 553.007 265.482 551.081 269.257C549.116 273.11 546.385 276.52 543.056 279.28C539.727 282.04 535.869 284.091 531.719 285.309C527.569 286.526 523.215 286.883 518.922 286.358C514.629 285.834 510.488 284.439 506.754 282.258C499.144 277.815 493.65 270.305 490.374 262.125C488.517 257.353 487.209 252.386 486.477 247.318C485.743 242.574 486.366 237.78 487.695 233.167C487.757 232.995 487.783 232.811 487.77 232.628C487.757 232.445 487.705 232.267 487.618 232.106Z" fill="#2F2E41"/>
<path d="M530.157 411.046H433.133C432.997 411.046 432.867 410.992 432.772 410.897C432.676 410.801 432.622 410.671 432.622 410.536C432.622 410.4 432.676 410.27 432.772 410.175C432.867 410.079 432.997 410.025 433.133 410.025H530.157C530.292 410.025 530.422 410.079 530.518 410.175C530.614 410.27 530.667 410.4 530.667 410.536C530.667 410.671 530.614 410.801 530.518 410.897C530.422 410.992 530.292 411.046 530.157 411.046Z" fill="#CCCCCC"/>
<defs>
<linearGradient id="paint0_linear" x1="533.324" y1="218.589" x2="451.329" y2="255.511" gradientUnits="userSpaceOnUse">
<stop stop-color="#FFE66C"/>
<stop offset="0.871768" stop-color="#FE413F"/>
</linearGradient>
<linearGradient id="paint1_linear" x1="533.58" y1="224.724" x2="458.793" y2="298.371" gradientUnits="userSpaceOnUse">
<stop stop-color="#FFE66C"/>
<stop offset="0.871768" stop-color="#FE413F"/>
</linearGradient>
<linearGradient id="paint2_linear" x1="527.327" y1="223.244" x2="441.473" y2="323.203" gradientUnits="userSpaceOnUse">
<stop stop-color="#FFE66C"/>
<stop offset="0.871768" stop-color="#FE413F"/>
</linearGradient>
</defs>
</svg>
