<svg width="575" height="479" viewBox="0 0 575 479" fill="none" xmlns="http://www.w3.org/2000/svg">
<rect width="575" height="479" fill="white"/>
<g clip-path="url(#clip0)">
<path d="M276.392 448C409.276 448 517 439.592 517 429.22C517 418.848 409.276 410.44 276.392 410.44C143.508 410.44 35.7842 418.848 35.7842 429.22C35.7842 439.592 143.508 448 276.392 448Z" fill="#3F3D56"/>
<path d="M480.775 394.331L483.03 410.854L467.244 412.356L469.499 392.078L480.775 394.331Z" fill="#FFB8B8"/>
<path d="M406.356 167.525C406.356 167.525 407.859 187.803 407.859 188.554C407.859 189.305 397.335 241.125 397.335 241.125C397.335 241.125 382.301 269.663 397.335 268.912C412.369 268.161 407.859 241.876 407.859 241.876L423.645 198.317L416.88 167.525L406.356 167.525Z" fill="#FC7F25"/>
<path d="M431.162 394.331L428.907 410.854L444.693 412.356L442.438 392.078L431.162 394.331Z" fill="#FFB8B8"/>
<path d="M413.873 239.623L410.115 244.88C410.115 244.88 407.859 267.41 410.115 274.92C412.37 282.431 416.88 316.977 416.88 319.23C416.88 321.483 417.632 322.985 416.88 323.736C416.128 324.487 413.873 324.487 415.377 325.989C416.88 327.491 416.88 331.997 416.88 331.997V335.752L426.652 391.327C426.652 391.327 420.638 398.087 425.149 398.087C429.659 398.087 446.197 398.087 445.445 390.576L443.941 389.825C443.941 389.825 441.686 340.259 442.438 338.006C443.19 335.752 442.438 331.246 442.438 331.246C442.438 331.246 440.935 328.993 442.438 328.242C443.941 327.491 443.941 321.483 443.941 321.483L450.707 275.671C450.707 275.671 456.72 306.463 460.479 309.467C464.238 312.471 463.486 319.981 463.486 319.981L466.493 386.07C466.493 386.07 463.486 393.58 466.493 395.082C469.499 396.585 482.279 401.842 483.03 394.331C483.782 386.821 487.54 321.483 487.54 318.479C487.54 315.475 486.789 313.973 487.54 311.72C488.292 309.467 486.789 309.467 487.54 309.467C488.292 309.467 486.037 307.214 486.037 305.712V268.912C486.037 268.912 486.789 261.402 487.54 259.9C488.292 258.398 486.789 256.896 487.54 254.643C488.292 252.39 486.037 244.88 486.037 244.88L452.21 235.868L413.873 239.623Z" fill="black" fill-opacity="0.75"/>
<path d="M440.183 407.85C440.183 407.85 443.941 404.095 438.679 404.095C435.301 404.164 431.974 404.931 428.907 406.348L425.148 419.866C425.148 419.866 409.738 432.258 427.028 430.756C444.317 429.254 441.686 430.38 441.686 430.38C441.686 430.38 446.948 428.878 447.7 427.376C448.451 425.874 446.196 404.095 446.196 404.095C446.196 404.095 443.941 410.103 440.183 407.85Z" fill="black" fill-opacity="0.75"/>
<path d="M472.506 407.85C472.506 407.85 468.748 404.095 474.01 404.095C477.388 404.164 480.715 404.931 483.782 406.348L487.54 419.866C487.54 419.866 502.95 432.258 485.661 430.756C468.372 429.254 468.748 430.38 468.748 430.38C468.748 430.38 463.486 428.878 462.734 427.376C461.982 425.874 466.492 404.095 466.492 404.095C466.492 404.095 468.748 410.103 472.506 407.85Z" fill="black" fill-opacity="0.75"/>
<path d="M423.645 108.195C434.439 108.195 443.189 99.4532 443.189 88.6691C443.189 77.885 434.439 69.1427 423.645 69.1427C412.851 69.1427 404.101 77.885 404.101 88.6691C404.101 99.4532 412.851 108.195 423.645 108.195Z" fill="#FFB8B8"/>
<path d="M416.88 102.938C416.88 102.938 419.887 117.959 419.887 120.212C419.887 122.465 432.666 129.224 432.666 129.224L446.948 111.2C446.948 111.2 437.928 98.4323 437.928 95.4283L416.88 102.938Z" fill="#FFB8B8"/>
<path d="M428.155 122.465C428.155 122.465 421.604 120.722 419.618 117.839C419.618 117.839 398.839 138.236 398.839 141.991L415.376 171.281C415.376 171.281 415.376 181.795 416.88 182.546C418.383 183.297 416.88 182.546 416.88 185.55C416.88 188.554 412.37 208.08 413.873 211.084C415.376 214.088 416.88 211.835 415.376 216.341C413.873 220.847 410.114 244.88 410.114 244.88C410.114 244.88 423.645 240.374 443.19 247.884C462.734 255.394 486.037 244.88 486.037 244.88C486.037 244.88 480.023 231.362 481.527 226.856C483.03 222.35 477.768 214.088 477.768 214.088L474.01 144.995C474.01 144.995 479.272 114.204 475.513 112.702L467.996 109.697L443.923 106.742C443.923 106.742 437.928 121.714 428.155 122.465Z" fill="#D0CDE1"/>
<path d="M406.356 136.734L398.838 141.991C398.838 141.991 395.08 153.256 398.838 158.513C402.597 163.77 404.1 171.281 404.1 171.281L419.134 169.778L406.356 136.734Z" fill="#D0CDE1"/>
<path d="M408.723 68.0331L405.333 66.6771C405.333 66.6771 412.422 58.8801 422.284 59.5581L419.51 56.5071C419.51 56.5071 426.291 53.7952 432.455 60.9141C435.695 64.6564 439.444 69.0552 441.781 74.0104H445.412L443.897 77.3439L449.2 80.6774L443.756 80.0786C444.272 82.9565 444.096 85.9156 443.242 88.7119L443.388 91.3467C443.388 91.3467 437.078 81.593 437.078 80.237V83.6269C437.078 83.6269 433.687 80.576 433.687 78.542L431.838 80.915L430.914 77.186L419.51 80.915L421.359 77.864L414.271 78.881L417.045 75.152C417.045 75.152 409.031 79.559 408.723 83.288C408.415 87.017 404.408 91.7629 404.408 91.7629L402.559 88.373C402.559 88.373 399.785 73.118 408.723 68.0331Z" fill="black" fill-opacity="0.75"/>
<path d="M413.714 219H115V428.643H413.714V219Z" fill="#EEEEEE"/>
<path d="M214.691 299.423H139.688V430.233H214.691V299.423Z" fill="#3F3D56"/>
<path d="M173.765 307.27H153.562V326.087H173.765V307.27Z" fill="#F2F2F2"/>
<path d="M200.818 307.27H180.614V326.087H200.818V307.27Z" fill="#F2F2F2"/>
<path d="M173.765 332.93H153.562V352.431H173.765V332.93Z" fill="#F2F2F2"/>
<path d="M200.818 332.93H180.614V352.431H200.818V332.93Z" fill="#F2F2F2"/>
<path d="M205.154 378.399C207.788 378.399 209.923 376.266 209.923 373.635C209.923 371.003 207.788 368.87 205.154 368.87C202.52 368.87 200.385 371.003 200.385 373.635C200.385 376.266 202.52 378.399 205.154 378.399Z" fill="#FE413F"/>
<path d="M388.11 287.005H239.837V411.319H388.11V287.005Z" fill="#3F3D56"/>
<path d="M444.471 258.903H83.3262L107.405 208.606L112.794 197.344L119.844 182.617L125.233 171.355L131.48 158.309H416.018L419.707 171.355L422.894 182.617L427.06 197.344L430.247 208.606L444.471 258.903Z" fill="#3F3D56"/>
<path d="M250.243 338.55H245.04V370.603H250.243V338.55Z" fill="#FE413F"/>
<path d="M250.243 343.315H245.04V347.213H250.243V343.315Z" fill="#F2F2F2"/>
<path d="M250.243 361.94H245.04V365.838H250.243V361.94Z" fill="#F2F2F2"/>
<path d="M265.417 338.55H252.844V370.603H265.417V338.55Z" fill="#FE413F"/>
<path d="M265.417 343.315H252.844V347.213H265.417V343.315Z" fill="#F2F2F2"/>
<path d="M265.417 361.94H252.844V365.838H265.417V361.94Z" fill="#F2F2F2"/>
<path d="M273.654 338.55H268.451V370.603H273.654V338.55Z" fill="#FE413F"/>
<path d="M273.654 343.315H268.451V347.213H273.654V343.315Z" fill="#F2F2F2"/>
<path d="M273.654 361.94H268.451V365.838H273.654V361.94Z" fill="#F2F2F2"/>
<path d="M281.457 338.55H276.255V370.603H281.457V338.55Z" fill="#FE413F"/>
<path d="M281.457 343.315H276.255V347.213H281.457V343.315Z" fill="#F2F2F2"/>
<path d="M281.457 361.94H276.255V365.838H281.457V361.94Z" fill="#F2F2F2"/>
<path d="M286.471 338.663L281.603 340.497L292.919 370.489L297.787 368.656L286.471 338.663Z" fill="#FE413F"/>
<path d="M288.153 343.122L283.285 344.955L284.661 348.603L289.53 346.77L288.153 343.122Z" fill="#F2F2F2"/>
<path d="M294.729 360.55L289.86 362.383L291.237 366.031L296.105 364.198L294.729 360.55Z" fill="#F2F2F2"/>
<path d="M383.341 338.55H370.769V370.603H383.341V338.55Z" fill="#FE413F"/>
<path d="M383.341 343.315H370.769V347.213H383.341V343.315Z" fill="#F2F2F2"/>
<path d="M383.341 361.94H370.769V365.838H383.341V361.94Z" fill="#F2F2F2"/>
<path d="M367.734 338.55H362.531V370.603H367.734V338.55Z" fill="#FE413F"/>
<path d="M367.734 343.315H362.531V347.213H367.734V343.315Z" fill="#F2F2F2"/>
<path d="M367.734 361.94H362.531V365.838H367.734V361.94Z" fill="#F2F2F2"/>
<path d="M359.93 338.55H354.728V370.603H359.93V338.55Z" fill="#FE413F"/>
<path d="M359.93 343.315H354.728V347.213H359.93V343.315Z" fill="#F2F2F2"/>
<path d="M359.93 361.94H354.728V365.838H359.93V361.94Z" fill="#F2F2F2"/>
<path d="M349.714 338.663L338.397 368.656L343.266 370.49L354.582 340.497L349.714 338.663Z" fill="#FE413F"/>
<path d="M348.032 343.122L346.655 346.769L351.523 348.603L352.9 344.955L348.032 343.122Z" fill="#F2F2F2"/>
<path d="M341.456 360.55L340.08 364.198L344.948 366.031L346.325 362.383L341.456 360.55Z" fill="#F2F2F2"/>
<path d="M388.11 370.603H239.837V373.635H388.11V370.603Z" fill="#F2F2F2"/>
<path d="M331.749 338.55H304.436V370.603H331.749V338.55Z" fill="#FE413F"/>
<path d="M325.03 345.48H311.156V351.544H325.03V345.48Z" fill="#F2F2F2"/>
<path d="M315.274 287.005H312.673V314.727H315.274V287.005Z" fill="#F2F2F2"/>
<path d="M313.974 319.058C316.369 319.058 318.31 317.119 318.31 314.727C318.31 312.335 316.369 310.395 313.974 310.395C311.58 310.395 309.639 312.335 309.639 314.727C309.639 317.119 311.58 319.058 313.974 319.058Z" fill="#F2F2F2"/>
<path d="M422.894 182.617H119.845L125.234 171.355H419.708L422.894 182.617Z" fill="#FE413F"/>
<path d="M430.247 208.606H107.406L112.795 197.344H427.061L430.247 208.606Z" fill="#FE413F"/>
<path d="M461.982 143.493C461.982 143.493 457.629 154.676 458.538 165.741C458.705 167.722 459.372 169.628 460.479 171.281L407.149 196.575C407.149 196.575 383.053 199.068 389.066 209.582C395.08 220.096 416.879 204.325 416.879 204.325C416.879 204.325 474.009 196.064 478.52 187.803C483.03 179.542 486.037 144.995 486.037 144.995L461.982 143.493Z" fill="#FFB8B8"/>
<path d="M464.238 112.701H475.513C475.513 112.701 483.782 114.203 486.037 129.224C488.292 144.244 490.547 147.999 488.292 147.999C486.037 147.999 458.976 147.248 458.976 146.497C458.976 145.746 464.238 112.701 464.238 112.701Z" fill="#D0CDE1"/>
<path d="M87.8385 337.053C119.782 337.053 145.677 311.181 145.677 279.268C145.677 247.354 119.782 221.483 87.8385 221.483C55.8952 221.483 30 247.354 30 279.268C30 311.181 55.8952 337.053 87.8385 337.053Z" fill="url(#paint0_linear)"/>
<path opacity="0.1" d="M87.8387 328.963C115.31 328.963 137.58 306.714 137.58 279.268C137.58 251.822 115.31 229.573 87.8387 229.573C60.3675 229.573 38.0977 251.822 38.0977 279.268C38.0977 306.714 60.3675 328.963 87.8387 328.963Z" fill="black" fill-opacity="0.75"/>
<path d="M90.875 295.479C84.7046 295.479 79.37 291.988 76.715 286.875H90.875V281.958H75.0925C74.9696 281.147 74.8958 280.336 74.8958 279.5C74.8958 278.664 74.9696 277.853 75.0925 277.042H90.875V272.125H76.715C79.37 267.012 84.7292 263.521 90.875 263.521C94.8329 263.521 98.4712 264.971 101.274 267.38L105.625 263.029C101.716 259.514 96.5292 257.375 90.875 257.375C81.2383 257.375 73.0767 263.545 70.0283 272.125H61.375V277.042H68.8975C68.7992 277.853 68.75 278.664 68.75 279.5C68.75 280.336 68.7992 281.147 68.8975 281.958H61.375V286.875H70.0283C73.0767 295.455 81.2383 301.625 90.875 301.625C96.5537 301.625 101.716 299.486 105.625 295.971L101.249 291.62C98.4712 294.029 94.8575 295.479 90.875 295.479Z" fill="white"/>
</g>
<defs>
<linearGradient id="paint0_linear" x1="63.7116" y1="221.483" x2="163.721" y2="223.045" gradientUnits="userSpaceOnUse">
<stop stop-color="#FE413F"/>
<stop offset="1" stop-color="#FFE568"/>
</linearGradient>
<clipPath id="clip0">
<rect width="487" height="392" fill="white" transform="translate(30 56)"/>
</clipPath>
</defs>
</svg>
